  0
SECTION
  2
HEADER
  9
$ACADVER
  1
AC1015
  9
$ACADMAINTVER
 70
     6
  9
$DWGCODEPAGE
  3
DOS850
  9
$INSBASE
 10
0.0
 20
0.0
 30
0.0
  9
$EXTMIN
 10
-92.5041
 20
-5.7801
 30
1.000000E+20
  9
$EXTMAX
 10
-48.7859
 20
63.9241
 30
-1.000000E+20
  9
$LIMMIN
 10
0.0
 20
0.0
  9
$LIMMAX
 10
0.0
 20
0.0
  9
$ORTHOMODE
 70
     0
  9
$REGENMODE
 70
     1
  9
$FILLMODE
 70
     1
  9
$QTEXTMODE
 70
     0
  9
$MIRRTEXT
 70
     1
  9
$LTSCALE
 40
1.0
  9
$ATTMODE
 70
     1
  9
$TEXTSIZE
 40
0.2
  9
$TRACEWID
 40
0.05
  9
$TEXTSTYLE
  7
Standard
  9
$CLAYER
  8
0
  9
$CELTYPE
  6
Continuous
  9
$CECOLOR
 62
   256
  9
$CELTSCALE
 40
1.0
  9
$DISPSILH
 70
     0
  9
$DIMSCALE
 40
1.0
  9
$DIMASZ
 40
0.18
  9
$DIMEXO
 40
0.0625
  9
$DIMDLI
 40
0.38
  9
$DIMRND
 40
0.0
  9
$DIMDLE
 40
0.0
  9
$DIMEXE
 40
0.18
  9
$DIMTP
 40
0.0
  9
$DIMTM
 40
0.0
  9
$DIMTXT
 40
0.18
  9
$DIMCEN
 40
0.09
  9
$DIMTSZ
 40
0.0
  9
$DIMTOL
 70
     0
  9
$DIMLIM
 70
     0
  9
$DIMTIH
 70
     1
  9
$DIMTOH
 70
     1
  9
$DIMSE1
 70
     0
  9
$DIMSE2
 70
     0
  9
$DIMTAD
 70
     0
  9
$DIMZIN
 70
     0
  9
$DIMBLK
  1

  9
$DIMASO
 70
     1
  9
$DIMSHO
 70
     1
  9
$DIMPOST
  1

  9
$DIMAPOST
  1

  9
$DIMALT
 70
     0
  9
$DIMALTD
 70
     2
  9
$DIMALTF
 40
25.4
  9
$DIMLFAC
 40
1.0
  9
$DIMTOFL
 70
     0
  9
$DIMTVP
 40
0.0
  9
$DIMTIX
 70
     0
  9
$DIMSOXD
 70
     0
  9
$DIMSAH
 70
     0
  9
$DIMBLK1
  1

  9
$DIMBLK2
  1

  9
$DIMSTYLE
  2
Standard
  9
$DIMCLRD
 70
     0
  9
$DIMCLRE
 70
     0
  9
$DIMCLRT
 70
     0
  9
$DIMTFAC
 40
1.0
  9
$DIMGAP
 40
0.09
  9
$DIMJUST
 70
     0
  9
$DIMSD1
 70
     0
  9
$DIMSD2
 70
     0
  9
$DIMTOLJ
 70
     1
  9
$DIMTZIN
 70
     0
  9
$DIMALTZ
 70
     0
  9
$DIMALTTZ
 70
     0
  9
$DIMUPT
 70
     0
  9
$DIMDEC
 70
     4
  9
$DIMTDEC
 70
     4
  9
$DIMALTU
 70
     2
  9
$DIMALTTD
 70
     2
  9
$DIMTXSTY
  7
Standard
  9
$DIMAUNIT
 70
     0
  9
$DIMADEC
 70
     0
  9
$DIMALTRND
 40
0.0
  9
$DIMAZIN
 70
     0
  9
$DIMDSEP
 70
     0
  9
$DIMATFIT
 70
     3
  9
$DIMFRAC
 70
     0
  9
$DIMLDRBLK
  1

  9
$DIMLUNIT
 70
     2
  9
$DIMLWD
 70
     0
  9
$DIMLWE
 70
     0
  9
$DIMTMOVE
 70
     0
  9
$LUNITS
 70
     2
  9
$LUPREC
 70
     4
  9
$SKETCHINC
 40
0.1
  9
$FILLETRAD
 40
0.0
  9
$AUNITS
 70
     0
  9
$AUPREC
 70
     0
  9
$MENU
  1
acad
  9
$ELEVATION
 40
0.0
  9
$PELEVATION
 40
0.0
  9
$THICKNESS
 40
0.0
  9
$LIMCHECK
 70
     0
  9
$CHAMFERA
 40
0.0
  9
$CHAMFERB
 40
0.0
  9
$CHAMFERC
 40
0.0
  9
$CHAMFERD
 40
0.0
  9
$SKPOLY
 70
     0
  9
$TDCREATE
 40
0.000000000
  9
$TDUCREATE
 40
0.000000000
  9
$TDUPDATE
 40
0.000000000
  9
$TDUUPDATE
 40
0.000000000
  9
$TDINDWG
 40
0.0000000000
  9
$TDUSRTIMER
 40
0.0000000000
  9
$USRTIMER
 70
     1
  9
$ANGBASE
 50
0.0
  9
$ANGDIR
 70
     0
  9
$PDMODE
 70
     0
  9
$PDSIZE
 40
0.0
  9
$PLINEWID
 40
0.0
  9
$SPLFRAME
 70
     0
  9
$SPLINETYPE
 70
     6
  9
$SPLINESEGS
 70
     8
  9
$HANDSEED
  5
3C
  9
$SURFTAB1
 70
     6
  9
$SURFTAB2
 70
     6
  9
$SURFTYPE
 70
     6
  9
$SURFU
 70
     6
  9
$SURFV
 70
     6
  9
$UCSBASE
  2

  9
$UCSNAME
  2

  9
$UCSORG
 10
0.0
 20
0.0
 30
0.0
  9
$UCSXDIR
 10
1.0
 20
0.0
 30
0.0
  9
$UCSYDIR
 10
0.0
 20
1.0
 30
0.0
  9
$UCSORTHOREF
  2

  9
$UCSORTHOVIEW
 70
     0
  9
$UCSORGTOP
 10
0.0
 20
0.0
 30
0.0
  9
$UCSORGBOTTOM
 10
0.0
 20
0.0
 30
0.0
  9
$UCSORGLEFT
 10
0.0
 20
0.0
 30
0.0
  9
$UCSORGRIGHT
 10
0.0
 20
0.0
 30
0.0
  9
$UCSORGFRONT
 10
0.0
 20
0.0
 30
0.0
  9
$UCSORGBACK
 10
0.0
 20
0.0
 30
0.0
  9
$PUCSBASE
  2

  9
$PUCSNAME
  2

  9
$PUCSORG
 10
0.0
 20
0.0
 30
0.0
  9
$PUCSXDIR
 10
1.0
 20
0.0
 30
0.0
  9
$PUCSYDIR
 10
0.0
 20
1.0
 30
0.0
  9
$PUCSORTHOREF
  2

  9
$PUCSORTHOVIEW
 70
     0
  9
$PUCSORGTOP
 10
0.0
 20
0.0
 30
0.0
  9
$PUCSORGBOTTOM
 10
0.0
 20
0.0
 30
0.0
  9
$PUCSORGLEFT
 10
0.0
 20
0.0
 30
0.0
  9
$PUCSORGRIGHT
 10
0.0
 20
0.0
 30
0.0
  9
$PUCSORGFRONT
 10
0.0
 20
0.0
 30
0.0
  9
$PUCSORGBACK
 10
0.0
 20
0.0
 30
0.0
  9
$USERI1
 70
     0
  9
$USERI2
 70
     0
  9
$USERI3
 70
     0
  9
$USERI4
 70
     0
  9
$USERI5
 70
     0
  9
$USERR1
 40
0.0
  9
$USERR2
 40
0.0
  9
$USERR3
 40
0.0
  9
$USERR4
 40
0.0
  9
$USERR5
 40
0.0
  9
$WORLDVIEW
 70
     1
  9
$SHADEDGE
 70
     3
  9
$SHADEDIF
 70
    70
  9
$TILEMODE
 70
     1
  9
$MAXACTVP
 70
    16
  9
$PINSBASE
 10
0.0
 20
0.0
 30
0.0
  9
$PLIMCHECK
 70
     0
  9
$PEXTMIN
 10
1.000000E+20
 20
1.000000E+20
 30
1.000000E+20
  9
$PEXTMAX
 10
-1.000000E+20
 20
-1.000000E+20
 30
-1.000000E+20
  9
$PLIMMIN
 10
0.0
 20
0.0
  9
$PLIMMAX
 10
12.0
 20
9.0
  9
$UNITMODE
 70
     0
  9
$VISRETAIN
 70
     0
  9
$PLINEGEN
 70
     1
  9
$PSLTSCALE
 70
     0
  9
$TREEDEPTH
 70
  3020
  9
$CMLSTYLE
  2
Standard
  9
$CMLJUST
 70
     0
  9
$CMLSCALE
 40
1.0
  9
$PROXYGRAPHICS
 70
     0
  9
$MEASUREMENT
 70
     0
  9
$CELWEIGHT
370
     0
  9
$ENDCAPS
280
     0
  9
$JOINSTYLE
280
     0
  9
$LWDISPLAY
290
     0
  9
$INSUNITS
 70
     4
  9
$HYPERLINKBASE
  1

  9
$XEDIT
290
     1
  9
$CEPSNTYPE
380
     0
  9
$PSTYLEMODE
290
     1
  9
$FINGERPRINTGUID
  2

  9
$VERSIONGUID
  2

  9
$EXTNAMES
290
     1
  9
$PSVPSCALE
 40
0.0
  0
ENDSEC
  0
SECTION
  2
CLASSES
  0
CLASS
  1
LWPOLYLINE
  2
AcDbPolyline
  3
AutoCAD 2000
 90
        0
280
     0
281
     1
  0
CLASS
  1
IMAGE
  2
AcDbRasterImage
  3
ISM
 90
    32895
280
     0
281
     1
  0
CLASS
  1
OLE2FRAME
  2
AcDbOle2Frame
  3
AutoCAD 2000
 90
    32768
280
     0
281
     1
  0
CLASS
  1
HATCH
  2
AcDbHatch
  3
AutoCAD 2000
 90
    32768
280
     0
281
     1
  0
CLASS
  1
DICTIONARYVAR
  2
AcDbDictionaryVar
  3
AutoCAD 2000
 90
    32768
280
     0
281
     0
  0
CLASS
  1
RASTERVARIABLES
  2
AcDbRasterVariables
  3
ISM
 90
    32768
280
     0
281
     0
  0
CLASS
  1
IMAGEDEF
  2
AcDbRasterImageDef
  3
ISM
 90
    32768
280
     0
281
     0
  0
CLASS
  1
IMAGEDEF_REACTOR
  2
AcDbRasterImageDefReactor
  3
ISM
 90
    32769
280
     0
281
     0
  0
CLASS
  1
IDBUFFER
  2
AcDbIdBuffer
  3
AutoCAD 2000
 90
    32768
280
     0
281
     0
  0
CLASS
  1
SPATIAL_FILTER
  2
AcDbSpatialFilter
  3
AutoCAD 2000
 90
    32768
280
     0
281
     0
  0
CLASS
  1
XRECORD
  2
AcDbXrecord
  3
AutoCAD 2000
 90
    32768
280
     0
281
     0
  0
CLASS
  1
SORTENTSTABLE
  2
AcDbSortentsTable
  3
AutoCAD 2000
 90
    32768
280
     0
281
     0
  0
CLASS
  1
LAYER_INDEX
  2
AcDbLayerIndex
  3
AutoCAD 2000
 90
    32768
280
     0
281
     0
  0
CLASS
  1
SPATIAL_INDEX
  2
AcDbSpatialIndex
  3
AutoCAD 2000
 90
    32768
280
     0
281
     0
  0
CLASS
  1
OBJECT_PTR
  2
CAseDLPNTableRecord
  3
"ASE-LPNTableRecord"
 90
    32769
280
     0
281
     0
  0
CLASS
  1
LAYOUT
  2
AcDbLayout
  3
AutoCAD 2000
 90
        0
280
     0
281
     0
  0
CLASS
  1
PLOTSETTINGS
  2
AcDbPlotSettings
  3
AutoCAD 2000
 90
    32768
280
     0
281
     0
  0
CLASS
  1
ACDBDICTIONARYWDFLT
  2
AcDbDictionaryWithDefault
  3
AutoCAD 2000
 90
        0
280
     0
281
     0
  0
CLASS
  1
ACDBPLACEHOLDER
  2
AcDbPlaceHolder
  3
AutoCAD 2000
 90
        0
280
     0
281
     0
  0
CLASS
  1
VBA_PROJECT
  2
AcDbVbaProject
  3
acadvba
 90
    32768
280
     0
281
     0
  0
CLASS
  1
WIPEOUT
  2
AcDbWipeout
  3
WipeOut|AutoCAD Express Tool|expresstools@autodesk.com
 90
    32895
280
     0
281
     1
  0
CLASS
  1
WIPEOUTVARIABLES
  2
AcDbWipeoutVariables
  3
WipeOut|AutoCAD Express Tool|expresstools@autodesk.com
 90
        0
280
     0
281
     0
  0
CLASS
  1
RTEXT
  2
RText
  3
RText|AutoCAD Express Tool|expresstools@autodesk.com
 90
    32768
280
     0
281
     1
  0
CLASS
  1
ARCALIGNEDTEXT
  2
AcDbArcAlignedText
  3
ATEXT|AutoCAD Express Tool|expresstools@autodesk.com
 90
    32768
280
     0
281
     1
  0
ENDSEC
  0
SECTION
  2
TABLES
  0
TABLE
  2
VPORT
  5
7
100
AcDbSymbolTable
 70
     1
  0
VPORT
  5
15
100
AcDbSymbolTableRecord
100
AcDbViewportTableRecord
  2
*ACTIVE
 70
     0
 10
0.0
 20
0.0
 11
1.0
 21
1.0
 12
6.591288
 22
4.579184
 13
0.0
 23
0.0
 14
1.0
 24
1.0
 15
0.0
 25
0.0
 16
0.0
 26
0.0
 36
1.0
 17
0.0
 27
0.0
 37
0.0
 40
9.158369
 41
0.688564
 42
50.0
 43
0.0
 44
0.0
 50
0.0
 51
0.0
 71
     0
 72
   100
 73
     1
 74
     1
 75
     0
 76
     0
 77
     0
 78
     0
281
     0
 65
     0
110
0.0
120
0.0
130
0.0
111
1.0
121
0.0
131
0.0
112
0.0
122
1.0
132
0.0
345
0
346
0
 79
     0
146
0.0
  0
ENDTAB
  0
TABLE
  2
LTYPE
  5
4
100
AcDbSymbolTable
 70
     3
  0
LTYPE
  5
11
100
AcDbSymbolTableRecord
100
AcDbLinetypeTableRecord
  2
ByBlock
 70
    64
  3

 72
    65
 73
     0
 40
0.0
  0
LTYPE
  5
12
100
AcDbSymbolTableRecord
100
AcDbLinetypeTableRecord
  2
ByLayer
 70
    64
  3

 72
    65
 73
     0
 40
0.0
  0
LTYPE
  5
13
100
AcDbSymbolTableRecord
100
AcDbLinetypeTableRecord
  2
Continuous
 70
    64
  3
Solid line
 72
    65
 73
     0
 40
0.0
  0
ENDTAB
  0
TABLE
  2
LAYER
  5
2
100
AcDbSymbolTable
 70
     2
  0
LAYER
  5
14
100
AcDbSymbolTableRecord
100
AcDbLayerTableRecord
  2
0
 70
     0
 62
     7
  6
Continuous
290
     1
370
    -3
390
1D
  0
LAYER
  5
24
100
AcDbSymbolTableRecord
100
AcDbLayerTableRecord
  2
0
 70
     0
 62
     7
  6
Continuous
290
     1
370
    -3
390
1F
  0
ENDTAB
  0
TABLE
  2
STYLE
  5
3
100
AcDbSymbolTable
 70
     1
  0
STYLE
  5
17
100
AcDbSymbolTableRecord
100
AcDbTextStyleTableRecord
  2
Standard
 70
     0
 40
0.0
 41
1.0
 50
0.0
 71
     0
 42
0.0
  3
txt
  4

  0
ENDTAB
  0
TABLE
  2
VIEW
  5
5
100
AcDbSymbolTable
 70
     0
  0
ENDTAB
  0
TABLE
  2
UCS
  5
6
100
AcDbSymbolTable
 70
     0
  0
ENDTAB
  0
TABLE
  2
APPID
  5
8
100
AcDbSymbolTable
 70
     1
  0
APPID
  5
16
100
AcDbSymbolTableRecord
100
AcDbRegAppTableRecord
  2
ACAD
 70
     0
  0
ENDTAB
  0
TABLE
  2
DIMSTYLE
  5
9
100
AcDbSymbolTable
 70
     1
100
AcDbDimStyleTable
 71
     0
  0
DIMSTYLE
105
18
100
AcDbSymbolTableRecord
100
AcDbDimStyleTableRecord
  2
Standard
 70
     0
  3

  4

 40
1.0
 41
0.18
 42
0.0625
 43
0.38
 44
0.18
 45
0.0
 46
0.0
 47
0.0
 48
0.0
 71
     0
 72
     0
 73
     1
 74
     1
 75
     0
 76
     0
 77
     0
 78
     0
 79
     0
140
0.18
141
0.09
142
0.0
143
25.4
144
1.0
145
0.0
146
1.0
147
0.09
148
0.0
170
     0
171
     2
172
     0
173
     0
174
     0
175
     0
176
     0
177
     0
178
     0
179
     0
271
     4
272
     4
273
     2
274
     2
275
     0
276
     0
277
     2
278
    46
279
     0
280
     0
281
     0
282
     0
283
     1
284
     0
285
     0
286
     0
288
     0
340
17
341
0
342
0
343
0
344
0
371
    -2
372
    -2
  0
ENDTAB
  0
TABLE
  2
BLOCK_RECORD
  5
1
100
AcDbSymbolTable
 70
     0
  0
BLOCK_RECORD
  5
A
100
AcDbSymbolTableRecord
100
AcDbBlockTableRecord
  2
*MODEL_SPACE
340
20
  0
BLOCK_RECORD
  5
B
100
AcDbSymbolTableRecord
100
AcDbBlockTableRecord
  2
*PAPER_SPACE
340
21
  0
ENDTAB
  0
ENDSEC
  0
SECTION
  2
BLOCKS
  0
BLOCK
  5
D
100
AcDbEntity
  8
0
100
AcDbBlockBegin
  2
*MODEL_SPACE
 70
     0
 10
0.0
 20
0.0
 30
0.0
  3
*MODEL_SPACE
  1

  0
ENDBLK
  5
E
100
AcDbEntity
  8
0
100
AcDbBlockEnd
  0
BLOCK
  5
F
100
AcDbEntity
 67
     1
  8
0
100
AcDbBlockBegin
  2
*PAPER_SPACE
 70
     0
 10
0.0
 20
0.0
 30
0.0
  3
*PAPER_SPACE
  1

  0
ENDBLK
  5
10
100
AcDbEntity
 67
     1
  8
0
100
AcDbBlockEnd
  0
ENDSEC
  0
SECTION
  2
ENTITIES
  0
SPLINE
  5
25
100
AcDbEntity
  8
0
370
    13
100
AcDbSpline
210
0.0
220
0.0
230
1.0
 70
     1
 71
     3
 72
    20
 73
    16
 74
     0
 42
0.0000000001
 43
0.0000000001
 40
0.0
 40
0.0
 40
0.0
 40
0.0
 40
0.25
 40
0.25
 40
0.25
 40
0.25
 40
0.5
 40
0.5
 40
0.5
 40
0.5
 40
0.75
 40
0.75
 40
0.75
 40
0.75
 40
1.0
 40
1.0
 40
1.0
 40
1.0
 10
-53.539500000000004
 20
21.704900000000002
 30
0.0
 10
-53.539500000000004
 20
22.0501
 30
0.0
 10
-53.819300000000005
 20
22.329900000000002
 30
0.0
 10
-54.164500000000004
 20
22.329900000000002
 30
0.0
 10
-54.164500000000004
 20
22.329900000000002
 30
0.0
 10
-54.509600000000006
 20
22.329900000000002
 30
0.0
 10
-54.789500000000004
 20
22.0501
 30
0.0
 10
-54.789500000000004
 20
21.704900000000002
 30
0.0
 10
-54.789500000000004
 20
21.704900000000002
 30
0.0
 10
-54.789500000000004
 20
21.3597
 30
0.0
 10
-54.509700000000002
 20
21.079900000000002
 30
0.0
 10
-54.164500000000004
 20
21.079900000000002
 30
0.0
 10
-54.164500000000004
 20
21.079900000000002
 30
0.0
 10
-53.819300000000005
 20
21.079900000000002
 30
0.0
 10
-53.539500000000004
 20
21.3597
 30
0.0
 10
-53.539500000000004
 20
21.704900000000002
 30
0.0
  0
SPLINE
  5
26
100
AcDbEntity
  8
0
370
    13
100
AcDbSpline
210
0.0
220
0.0
230
1.0
 70
     1
 71
     3
 72
    20
 73
    16
 74
     0
 42
0.0000000001
 43
0.0000000001
 40
0.0
 40
0.0
 40
0.0
 40
0.0
 40
0.25
 40
0.25
 40
0.25
 40
0.25
 40
0.5
 40
0.5
 40
0.5
 40
0.5
 40
0.75
 40
0.75
 40
0.75
 40
0.75
 40
1.0
 40
1.0
 40
1.0
 40
1.0
 10
-53.539500000000004
 20
44.741199999999999
 30
0.0
 10
-53.539500000000004
 20
45.086400000000005
 30
0.0
 10
-53.819300000000005
 20
45.366199999999999
 30
0.0
 10
-54.164500000000004
 20
45.366199999999999
 30
0.0
 10
-54.164500000000004
 20
45.366199999999999
 30
0.0
 10
-54.509600000000006
 20
45.366199999999999
 30
0.0
 10
-54.789500000000004
 20
45.086400000000005
 30
0.0
 10
-54.789500000000004
 20
44.741199999999999
 30
0.0
 10
-54.789500000000004
 20
44.741199999999999
 30
0.0
 10
-54.789500000000004
 20
44.396000000000001
 30
0.0
 10
-54.509700000000002
 20
44.116199999999999
 30
0.0
 10
-54.164500000000004
 20
44.116199999999999
 30
0.0
 10
-54.164500000000004
 20
44.116199999999999
 30
0.0
 10
-53.819300000000005
 20
44.116199999999999
 30
0.0
 10
-53.539500000000004
 20
44.396000000000001
 30
0.0
 10
-53.539500000000004
 20
44.741199999999999
 30
0.0
  0
SPLINE
  5
27
100
AcDbEntity
  8
0
370
    13
100
AcDbSpline
210
0.0
220
0.0
230
1.0
 70
     1
 71
     3
 72
    20
 73
    16
 74
     0
 42
0.0000000001
 43
0.0000000001
 40
0.0
 40
0.0
 40
0.0
 40
0.0
 40
0.25
 40
0.25
 40
0.25
 40
0.25
 40
0.5
 40
0.5
 40
0.5
 40
0.5
 40
0.75
 40
0.75
 40
0.75
 40
0.75
 40
1.0
 40
1.0
 40
1.0
 40
1.0
 10
-66.839500000000001
 20
21.704900000000002
 30
0.0
 10
-66.839500000000001
 20
22.0501
 30
0.0
 10
-67.11930000000001
 20
22.329900000000002
 30
0.0
 10
-67.464500000000001
 20
22.329900000000002
 30
0.0
 10
-67.464500000000001
 20
22.329900000000002
 30
0.0
 10
-67.809600000000003
 20
22.329900000000002
 30
0.0
 10
-68.089500000000001
 20
22.0501
 30
0.0
 10
-68.089500000000001
 20
21.704900000000002
 30
0.0
 10
-68.089500000000001
 20
21.704900000000002
 30
0.0
 10
-68.089500000000001
 20
21.3597
 30
0.0
 10
-67.809700000000007
 20
21.079900000000002
 30
0.0
 10
-67.464500000000001
 20
21.079900000000002
 30
0.0
 10
-67.464500000000001
 20
21.079900000000002
 30
0.0
 10
-67.11930000000001
 20
21.079900000000002
 30
0.0
 10
-66.839500000000001
 20
21.3597
 30
0.0
 10
-66.839500000000001
 20
21.704900000000002
 30
0.0
  0
SPLINE
  5
28
100
AcDbEntity
  8
0
370
    13
100
AcDbSpline
210
0.0
220
0.0
230
1.0
 70
     1
 71
     3
 72
    20
 73
    16
 74
     0
 42
0.0000000001
 43
0.0000000001
 40
0.0
 40
0.0
 40
0.0
 40
0.0
 40
0.25
 40
0.25
 40
0.25
 40
0.25
 40
0.5
 40
0.5
 40
0.5
 40
0.5
 40
0.75
 40
0.75
 40
0.75
 40
0.75
 40
1.0
 40
1.0
 40
1.0
 40
1.0
 10
-66.839500000000001
 20
44.741199999999999
 30
0.0
 10
-66.839500000000001
 20
45.086400000000005
 30
0.0
 10
-67.11930000000001
 20
45.366199999999999
 30
0.0
 10
-67.464500000000001
 20
45.366199999999999
 30
0.0
 10
-67.464500000000001
 20
45.366199999999999
 30
0.0
 10
-67.809600000000003
 20
45.366199999999999
 30
0.0
 10
-68.089500000000001
 20
45.086400000000005
 30
0.0
 10
-68.089500000000001
 20
44.741199999999999
 30
0.0
 10
-68.089500000000001
 20
44.741199999999999
 30
0.0
 10
-68.089500000000001
 20
44.396000000000001
 30
0.0
 10
-67.809700000000007
 20
44.116199999999999
 30
0.0
 10
-67.464500000000001
 20
44.116199999999999
 30
0.0
 10
-67.464500000000001
 20
44.116199999999999
 30
0.0
 10
-67.11930000000001
 20
44.116199999999999
 30
0.0
 10
-66.839500000000001
 20
44.396000000000001
 30
0.0
 10
-66.839500000000001
 20
44.741199999999999
 30
0.0
  0
SPLINE
  5
29
100
AcDbEntity
  8
0
370
    13
100
AcDbSpline
210
0.0
220
0.0
230
1.0
 70
     1
 71
     3
 72
    20
 73
    16
 74
     0
 42
0.0000000001
 43
0.0000000001
 40
0.0
 40
0.0
 40
0.0
 40
0.0
 40
0.25
 40
0.25
 40
0.25
 40
0.25
 40
0.5
 40
0.5
 40
0.5
 40
0.5
 40
0.75
 40
0.75
 40
0.75
 40
0.75
 40
1.0
 40
1.0
 40
1.0
 40
1.0
 10
-60.014500000000005
 20
19.923000000000002
 30
0.0
 10
-60.014500000000005
 20
20.364900000000002
 30
0.0
 10
-60.372600000000006
 20
20.723000000000003
 30
0.0
 10
-60.814500000000002
 20
20.723000000000003
 30
0.0
 10
-60.814500000000002
 20
20.723000000000003
 30
0.0
 10
-61.256300000000003
 20
20.723000000000003
 30
0.0
 10
-61.6145
 20
20.364900000000002
 30
0.0
 10
-61.6145
 20
19.923000000000002
 30
0.0
 10
-61.6145
 20
19.923000000000002
 30
0.0
 10
-61.6145
 20
19.481200000000001
 30
0.0
 10
-61.256300000000003
 20
19.123000000000001
 30
0.0
 10
-60.814500000000002
 20
19.123000000000001
 30
0.0
 10
-60.814500000000002
 20
19.123000000000001
 30
0.0
 10
-60.372600000000006
 20
19.123000000000001
 30
0.0
 10
-60.014500000000005
 20
19.481200000000001
 30
0.0
 10
-60.014500000000005
 20
19.923000000000002
 30
0.0
  0
SPLINE
  5
2A
100
AcDbEntity
  8
0
370
    13
100
AcDbSpline
210
0.0
220
0.0
230
1.0
 70
     1
 71
     3
 72
    20
 73
    16
 74
     0
 42
0.0000000001
 43
0.0000000001
 40
0.0
 40
0.0
 40
0.0
 40
0.0
 40
0.25
 40
0.25
 40
0.25
 40
0.25
 40
0.5
 40
0.5
 40
0.5
 40
0.5
 40
0.75
 40
0.75
 40
0.75
 40
0.75
 40
1.0
 40
1.0
 40
1.0
 40
1.0
 10
-60.014500000000005
 20
46.523000000000003
 30
0.0
 10
-60.014500000000005
 20
46.9649
 30
0.0
 10
-60.372600000000006
 20
47.323
 30
0.0
 10
-60.814500000000002
 20
47.323
 30
0.0
 10
-60.814500000000002
 20
47.323
 30
0.0
 10
-61.256300000000003
 20
47.323
 30
0.0
 10
-61.6145
 20
46.9649
 30
0.0
 10
-61.6145
 20
46.523000000000003
 30
0.0
 10
-61.6145
 20
46.523000000000003
 30
0.0
 10
-61.6145
 20
46.081200000000003
 30
0.0
 10
-61.256300000000003
 20
45.722999999999999
 30
0.0
 10
-60.814500000000002
 20
45.722999999999999
 30
0.0
 10
-60.814500000000002
 20
45.722999999999999
 30
0.0
 10
-60.372600000000006
 20
45.722999999999999
 30
0.0
 10
-60.014500000000005
 20
46.081200000000003
 30
0.0
 10
-60.014500000000005
 20
46.523000000000003
 30
0.0
  0
SPLINE
  5
2B
100
AcDbEntity
  8
0
370
    13
100
AcDbSpline
210
0.0
220
0.0
230
1.0
 70
     0
 71
     3
 72
     8
 73
     4
 74
     0
 42
0.0000000001
 43
0.0000000001
 40
0.0
 40
0.0
 40
0.0
 40
0.0
 40
1.0
 40
1.0
 40
1.0
 40
1.0
 10
-70.612400000000008
 20
23.4251
 30
0.0
 10
-70.612400000000008
 20
23.4251
 30
0.0
 10
-70.612400000000008
 20
23.4251
 30
0.0
 10
-70.612400000000008
 20
23.4251
 30
0.0
  0
SPLINE
  5
2C
100
AcDbEntity
  8
0
370
    13
100
AcDbSpline
210
0.0
220
0.0
230
1.0
 70
     0
 71
     3
 72
   164
 73
   160
 74
     0
 42
0.0000000001
 43
0.0000000001
 40
0.0
 40
0.0
 40
0.0
 40
0.0
 40
0.025
 40
0.025
 40
0.025
 40
0.025
 40
0.05
 40
0.05
 40
0.05
 40
0.05
 40
0.075
 40
0.075
 40
0.075
 40
0.075
 40
0.1
 40
0.1
 40
0.1
 40
0.1
 40
0.125
 40
0.125
 40
0.125
 40
0.125
 40
0.15
 40
0.15
 40
0.15
 40
0.15
 40
0.175
 40
0.175
 40
0.175
 40
0.175
 40
0.2
 40
0.2
 40
0.2
 40
0.2
 40
0.225
 40
0.225
 40
0.225
 40
0.225
 40
0.25
 40
0.25
 40
0.25
 40
0.25
 40
0.275
 40
0.275
 40
0.275
 40
0.275
 40
0.3
 40
0.3
 40
0.3
 40
0.3
 40
0.325
 40
0.325
 40
0.325
 40
0.325
 40
0.35
 40
0.35
 40
0.35
 40
0.35
 40
0.3750000000000001
 40
0.3750000000000001
 40
0.3750000000000001
 40
0.3750000000000001
 40
0.4000000000000001
 40
0.4000000000000001
 40
0.4000000000000001
 40
0.4000000000000001
 40
0.4250000000000001
 40
0.4250000000000001
 40
0.4250000000000001
 40
0.4250000000000001
 40
0.4500000000000001
 40
0.4500000000000001
 40
0.4500000000000001
 40
0.4500000000000001
 40
0.4750000000000001
 40
0.4750000000000001
 40
0.4750000000000001
 40
0.4750000000000001
 40
0.5000000000000001
 40
0.5000000000000001
 40
0.5000000000000001
 40
0.5000000000000001
 40
0.5250000000000001
 40
0.5250000000000001
 40
0.5250000000000001
 40
0.5250000000000001
 40
0.5500000000000002
 40
0.5500000000000002
 40
0.5500000000000002
 40
0.5500000000000002
 40
0.5750000000000002
 40
0.5750000000000002
 40
0.5750000000000002
 40
0.5750000000000002
 40
0.6000000000000002
 40
0.6000000000000002
 40
0.6000000000000002
 40
0.6000000000000002
 40
0.6250000000000002
 40
0.6250000000000002
 40
0.6250000000000002
 40
0.6250000000000002
 40
0.6500000000000002
 40
0.6500000000000002
 40
0.6500000000000002
 40
0.6500000000000002
 40
0.6750000000000003
 40
0.6750000000000003
 40
0.6750000000000003
 40
0.6750000000000003
 40
0.7000000000000003
 40
0.7000000000000003
 40
0.7000000000000003
 40
0.7000000000000003
 40
0.7250000000000003
 40
0.7250000000000003
 40
0.7250000000000003
 40
0.7250000000000003
 40
0.7500000000000003
 40
0.7500000000000003
 40
0.7500000000000003
 40
0.7500000000000003
 40
0.7750000000000004
 40
0.7750000000000004
 40
0.7750000000000004
 40
0.7750000000000004
 40
0.8000000000000004
 40
0.8000000000000004
 40
0.8000000000000004
 40
0.8000000000000004
 40
0.8250000000000004
 40
0.8250000000000004
 40
0.8250000000000004
 40
0.8250000000000004
 40
0.8500000000000004
 40
0.8500000000000004
 40
0.8500000000000004
 40
0.8500000000000004
 40
0.8750000000000004
 40
0.8750000000000004
 40
0.8750000000000004
 40
0.8750000000000004
 40
0.9000000000000005
 40
0.9000000000000005
 40
0.9000000000000005
 40
0.9000000000000005
 40
0.9250000000000005
 40
0.9250000000000005
 40
0.9250000000000005
 40
0.9250000000000005
 40
0.9500000000000005
 40
0.9500000000000005
 40
0.9500000000000005
 40
0.9500000000000005
 40
0.9750000000000005
 40
0.9750000000000005
 40
0.9750000000000005
 40
0.9750000000000005
 40
1.0
 40
1.0
 40
1.0
 40
1.0
 10
-70.612400000000008
 20
43.021000000000001
 30
0.0
 10
-71.022800000000004
 20
43.4313
 30
0.0
 10
-71.2346
 20
43.999700000000004
 30
0.0
 10
-71.193100000000001
 20
44.578400000000002
 30
0.0
 10
-71.193100000000001
 20
44.578400000000002
 30
0.0
 10
-71.151600000000002
 20
45.157200000000003
 30
0.0
 10
-70.860600000000005
 20
45.689500000000002
 30
0.0
 10
-70.395899999999997
 20
46.036999999999999
 30
0.0
 10
-70.395899999999997
 20
46.036999999999999
 30
0.0
 10
-68.727500000000006
 20
47.284500000000001
 30
0.0
 10
-66.831500000000005
 20
48.194200000000002
 30
0.0
 10
-64.81450000000001
 20
48.715000000000003
 30
0.0
 10
-64.81450000000001
 20
48.715000000000003
 30
0.0
 10
-63.489900000000006
 20
49.057000000000002
 30
0.0
 10
-62.564500000000002
 20
50.2517
 30
0.0
 10
-62.564500000000002
 20
51.619700000000002
 30
0.0
 10
-62.564500000000002
 20
51.619700000000002
 30
0.0
 10
-62.564500000000002
 20
51.619700000000002
 30
0.0
 10
-62.564500000000002
 20
63.174100000000003
 30
0.0
 10
-62.564500000000002
 20
63.174100000000003
 30
0.0
 10
-62.564500000000002
 20
63.174100000000003
 30
0.0
 10
-62.564500000000002
 20
63.174100000000003
 30
0.0
 10
-59.564500000000002
 20
63.174100000000003
 30
0.0
 10
-59.564500000000002
 20
63.174100000000003
 30
0.0
 10
-59.564500000000002
 20
63.174100000000003
 30
0.0
 10
-59.559900000000006
 20
59.363100000000003
 30
0.0
 10
-59.5045
 20
55.552100000000003
 30
0.0
 10
-59.564500000000002
 20
51.741600000000005
 30
0.0
 10
-59.564500000000002
 20
51.741600000000005
 30
0.0
 10
-59.564500000000002
 20
50.343299999999999
 30
0.0
 10
-58.598400000000005
 20
49.130400000000002
 30
0.0
 10
-57.235500000000002
 20
48.817600000000006
 30
0.0
 10
-57.235500000000002
 20
48.817600000000006
 30
0.0
 10
-55.062800000000003
 20
48.319000000000003
 30
0.0
 10
-53.018300000000004
 20
47.371900000000004
 30
0.0
 10
-51.233000000000004
 20
46.036900000000003
 30
0.0
 10
-51.233000000000004
 20
46.036900000000003
 30
0.0
 10
-50.768300000000004
 20
45.689399999999999
 30
0.0
 10
-50.4773
 20
45.1571
 30
0.0
 10
-50.435900000000004
 20
44.578400000000002
 30
0.0
 10
-50.435900000000004
 20
44.578400000000002
 30
0.0
 10
-50.394400000000005
 20
43.999700000000004
 30
0.0
 10
-50.606200000000001
 20
43.4313
 30
0.0
 10
-51.016500000000001
 20
43.021000000000001
 30
0.0
 10
-51.016500000000001
 20
43.021000000000001
 30
0.0
 10
-51.016500000000001
 20
43.021000000000001
 30
0.0
 10
-51.016500000000001
 20
43.021000000000001
 30
0.0
 10
-51.016500000000001
 20
43.021000000000001
 30
0.0
 10
-51.016500000000001
 20
43.021000000000001
 30
0.0
 10
-51.016500000000001
 20
43.021000000000001
 30
0.0
 10
-52.447900000000004
 20
41.589600000000004
 30
0.0
 10
-52.447900000000004
 20
41.589600000000004
 30
0.0
 10
-52.447900000000004
 20
41.589600000000004
 30
0.0
 10
-52.447900000000004
 20
41.589600000000004
 30
0.0
 10
-52.447900000000004
 20
41.589600000000004
 30
0.0
 10
-52.447900000000004
 20
41.589600000000004
 30
0.0
 10
-52.447900000000004
 20
41.589600000000004
 30
0.0
 10
-53.138000000000005
 20
40.899500000000003
 30
0.0
 10
-54.2254
 20
40.808300000000003
 30
0.0
 10
-55.020800000000001
 20
41.373699999999999
 30
0.0
 10
-55.020800000000001
 20
41.373699999999999
 30
0.0
 10
-57.450300000000006
 20
43.1006
 30
0.0
 10
-60.523500000000006
 20
43.653800000000004
 30
0.0
 10
-63.402700000000003
 20
42.882300000000001
 30
0.0
 10
-63.402700000000003
 20
42.882300000000001
 30
0.0
 10
-63.747800000000005
 20
42.7898
 30
0.0
 10
-64.017300000000006
 20
42.520299999999999
 30
0.0
 10
-64.109800000000007
 20
42.175200000000004
 30
0.0
 10
-64.109800000000007
 20
42.175200000000004
 30
0.0
 10
-64.202200000000005
 20
41.830100000000002
 30
0.0
 10
-64.1036
 20
41.4619
 30
0.0
 10
-63.850900000000003
 20
41.209299999999999
 30
0.0
 10
-63.850900000000003
 20
41.209299999999999
 30
0.0
 10
-63.598300000000002
 20
40.956600000000002
 30
0.0
 10
-63.2301
 20
40.858000000000004
 30
0.0
 10
-62.885000000000005
 20
40.950400000000002
 30
0.0
 10
-62.885000000000005
 20
40.950400000000002
 30
0.0
 10
-59.636400000000002
 20
41.820900000000002
 30
0.0
 10
-56.190300000000001
 20
40.566600000000001
 30
0.0
 10
-54.261200000000002
 20
37.811599999999999
 30
0.0
 10
-54.261200000000002
 20
37.811599999999999
 30
0.0
 10
-52.3322
 20
35.056699999999999
 30
0.0
 10
-52.3322
 20
31.389400000000002
 30
0.0
 10
-54.261300000000006
 20
28.634400000000003
 30
0.0
 10
-54.261300000000006
 20
28.634400000000003
 30
0.0
 10
-56.190300000000001
 20
25.8795
 30
0.0
 10
-59.636400000000002
 20
24.6252
 30
0.0
 10
-62.885000000000005
 20
25.4956
 30
0.0
 10
-62.885000000000005
 20
25.4956
 30
0.0
 10
-63.2301
 20
25.588100000000001
 30
0.0
 10
-63.598300000000002
 20
25.4894
 30
0.0
 10
-63.850900000000003
 20
25.236800000000002
 30
0.0
 10
-63.850900000000003
 20
25.236800000000002
 30
0.0
 10
-64.1036
 20
24.984200000000001
 30
0.0
 10
-64.202200000000005
 20
24.616
 30
0.0
 10
-64.109800000000007
 20
24.270900000000001
 30
0.0
 10
-64.109800000000007
 20
24.270900000000001
 30
0.0
 10
-64.017300000000006
 20
23.925800000000002
 30
0.0
 10
-63.747800000000005
 20
23.656300000000002
 30
0.0
 10
-63.402700000000003
 20
23.563800000000001
 30
0.0
 10
-63.402700000000003
 20
23.563800000000001
 30
0.0
 10
-60.523500000000006
 20
22.792300000000001
 30
0.0
 10
-57.450300000000006
 20
23.345400000000001
 30
0.0
 10
-55.020800000000001
 20
25.072400000000002
 30
0.0
 10
-55.020800000000001
 20
25.072400000000002
 30
0.0
 10
-54.2254
 20
25.637800000000002
 30
0.0
 10
-53.138000000000005
 20
25.546500000000002
 30
0.0
 10
-52.447900000000004
 20
24.856400000000001
 30
0.0
 10
-52.447900000000004
 20
24.856400000000001
 30
0.0
 10
-52.447900000000004
 20
24.856400000000001
 30
0.0
 10
-51.016500000000001
 20
23.4251
 30
0.0
 10
-51.016500000000001
 20
23.4251
 30
0.0
 10
-51.016500000000001
 20
23.4251
 30
0.0
 10
-50.606200000000001
 20
23.014700000000001
 30
0.0
 10
-50.394300000000001
 20
22.446400000000001
 30
0.0
 10
-50.435900000000004
 20
21.867599999999999
 30
0.0
 10
-50.435900000000004
 20
21.867599999999999
 30
0.0
 10
-50.477400000000003
 20
21.288800000000002
 30
0.0
 10
-50.768300000000004
 20
20.756600000000002
 30
0.0
 10
-51.233000000000004
 20
20.409100000000002
 30
0.0
 10
-51.233000000000004
 20
20.409100000000002
 30
0.0
 10
-53.018300000000004
 20
19.074200000000001
 30
0.0
 10
-55.062800000000003
 20
18.127100000000002
 30
0.0
 10
-57.235500000000002
 20
17.628500000000003
 30
0.0
 10
-57.235500000000002
 20
17.628500000000003
 30
0.0
 10
-58.598400000000005
 20
17.3157
 30
0.0
 10
-59.564500000000002
 20
16.102800000000002
 30
0.0
 10
-59.564500000000002
 20
14.704500000000001
 30
0.0
 10
-59.564500000000002
 20
14.704500000000001
 30
0.0
 10
-59.564500000000002
 20
10.893700000000001
 30
0.0
 10
-59.564500000000002
 20
7.0829000000000004
 30
0.0
 10
-59.564500000000002
 20
3.2720000000000002
 30
0.0
 10
-59.564500000000002
 20
3.2720000000000002
 30
0.0
 10
-60.564500000000002
 20
3.2720000000000002
 30
0.0
 10
-61.564500000000002
 20
3.2720000000000002
 30
0.0
 10
-62.564500000000002
 20
3.2720000000000002
 30
0.0
 10
-62.564500000000002
 20
3.2720000000000002
 30
0.0
 10
-62.564500000000002
 20
3.2720000000000002
 30
0.0
 10
-62.564500000000002
 20
3.2720000000000002
 30
0.0
 10
-62.564500000000002
 20
3.2720000000000002
 30
0.0
 10
-62.564500000000002
 20
3.2720000000000002
 30
0.0
 10
-62.564500000000002
 20
7.1234999999999999
 30
0.0
 10
-62.564500000000002
 20
10.975
 30
0.0
 10
-62.564500000000002
 20
14.826400000000001
 30
0.0
 10
-62.564500000000002
 20
14.826400000000001
 30
0.0
 10
-62.564500000000002
 20
16.194400000000002
 30
0.0
 10
-63.489900000000006
 20
17.389099999999999
 30
0.0
 10
-64.81450000000001
 20
17.731100000000001
 30
0.0
 10
-64.81450000000001
 20
17.731100000000001
 30
0.0
 10
-66.831500000000005
 20
18.251899999999999
 30
0.0
 10
-68.727500000000006
 20
19.1616
 30
0.0
 10
-70.395899999999997
 20
20.409100000000002
 30
0.0
 10
-70.395899999999997
 20
20.409100000000002
 30
0.0
 10
-70.860600000000005
 20
20.756600000000002
 30
0.0
 10
-71.151499999999999
 20
21.288800000000002
 30
0.0
 10
-71.193100000000001
 20
21.867599999999999
 30
0.0
 10
-71.193100000000001
 20
21.867599999999999
 30
0.0
 10
-71.2346
 20
22.446400000000001
 30
0.0
 10
-71.022800000000004
 20
23.014800000000001
 30
0.0
 10
-70.612400000000008
 20
23.4251
 30
0.0
  0
SPLINE
  5
2D
100
AcDbEntity
  8
0
370
    13
100
AcDbSpline
210
0.0
220
0.0
230
1.0
 70
     0
 71
     3
 72
     8
 73
     4
 74
     0
 42
0.0000000001
 43
0.0000000001
 40
0.0
 40
0.0
 40
0.0
 40
0.0
 40
1.0
 40
1.0
 40
1.0
 40
1.0
 10
-70.612400000000008
 20
43.021000000000001
 30
0.0
 10
-70.612400000000008
 20
43.021000000000001
 30
0.0
 10
-70.612400000000008
 20
43.021000000000001
 30
0.0
 10
-70.612400000000008
 20
43.021000000000001
 30
0.0
  0
SPLINE
  5
2E
100
AcDbEntity
  8
0
370
    13
100
AcDbSpline
210
0.0
220
0.0
230
1.0
 70
     0
 71
     3
 72
    64
 73
    60
 74
     0
 42
0.0000000001
 43
0.0000000001
 40
0.0
 40
0.0
 40
0.0
 40
0.0
 40
0.0666666666666667
 40
0.0666666666666667
 40
0.0666666666666667
 40
0.0666666666666667
 40
0.1333333333333333
 40
0.1333333333333333
 40
0.1333333333333333
 40
0.1333333333333333
 40
0.2
 40
0.2
 40
0.2
 40
0.2
 40
0.2666666666666667
 40
0.2666666666666667
 40
0.2666666666666667
 40
0.2666666666666667
 40
0.3333333333333333
 40
0.3333333333333333
 40
0.3333333333333333
 40
0.3333333333333333
 40
0.4
 40
0.4
 40
0.4
 40
0.4
 40
0.4666666666666666
 40
0.4666666666666666
 40
0.4666666666666666
 40
0.4666666666666666
 40
0.5333333333333333
 40
0.5333333333333333
 40
0.5333333333333333
 40
0.5333333333333333
 40
0.6
 40
0.6
 40
0.6
 40
0.6
 40
0.6666666666666666
 40
0.6666666666666666
 40
0.6666666666666666
 40
0.6666666666666666
 40
0.7333333333333333
 40
0.7333333333333333
 40
0.7333333333333333
 40
0.7333333333333333
 40
0.7999999999999999
 40
0.7999999999999999
 40
0.7999999999999999
 40
0.7999999999999999
 40
0.8666666666666666
 40
0.8666666666666666
 40
0.8666666666666666
 40
0.8666666666666666
 40
0.9333333333333332
 40
0.9333333333333332
 40
0.9333333333333332
 40
0.9333333333333332
 40
1.0
 40
1.0
 40
1.0
 40
1.0
 10
-70.612400000000008
 20
43.021000000000001
 30
0.0
 10
-70.612400000000008
 20
43.021000000000001
 30
0.0
 10
-66.291700000000006
 20
38.700299999999999
 30
0.0
 10
-66.291700000000006
 20
38.700299999999999
 30
0.0
 10
-66.291700000000006
 20
38.700299999999999
 30
0.0
 10
-66.291700000000006
 20
38.700299999999999
 30
0.0
 10
-66.291700000000006
 20
38.700299999999999
 30
0.0
 10
-66.291700000000006
 20
38.700299999999999
 30
0.0
 10
-66.291700000000006
 20
38.700299999999999
 30
0.0
 10
-65.646799999999999
 20
38.055399999999999
 30
0.0
 10
-64.647400000000005
 20
37.928400000000003
 30
0.0
 10
-63.861700000000006
 20
38.391600000000004
 30
0.0
 10
-63.861700000000006
 20
38.391600000000004
 30
0.0
 10
-62.474600000000002
 20
39.209400000000002
 30
0.0
 10
-60.817
 20
39.435400000000001
 30
0.0
 10
-59.261600000000001
 20
39.018599999999999
 30
0.0
 10
-59.261600000000001
 20
39.018599999999999
 30
0.0
 10
-58.728100000000005
 20
38.875700000000002
 30
0.0
 10
-58.411500000000004
 20
38.327300000000001
 30
0.0
 10
-58.554500000000004
 20
37.793800000000005
 30
0.0
 10
-58.554500000000004
 20
37.793800000000005
 30
0.0
 10
-58.697400000000002
 20
37.260400000000004
 30
0.0
 10
-59.245699999999999
 20
36.943800000000003
 30
0.0
 10
-59.779200000000003
 20
37.0867
 30
0.0
 10
-59.779200000000003
 20
37.0867
 30
0.0
 10
-61.403500000000001
 20
37.521999999999998
 30
0.0
 10
-63.126600000000003
 20
36.894800000000004
 30
0.0
 10
-64.091099999999997
 20
35.517299999999999
 30
0.0
 10
-64.091099999999997
 20
35.517299999999999
 30
0.0
 10
-65.055599999999998
 20
34.139900000000004
 30
0.0
 10
-65.055599999999998
 20
32.306200000000004
 30
0.0
 10
-64.091099999999997
 20
30.928700000000003
 30
0.0
 10
-64.091099999999997
 20
30.928700000000003
 30
0.0
 10
-63.126600000000003
 20
29.551300000000001
 30
0.0
 10
-61.403500000000001
 20
28.924100000000003
 30
0.0
 10
-59.779200000000003
 20
29.359300000000001
 30
0.0
 10
-59.779200000000003
 20
29.359300000000001
 30
0.0
 10
-59.245699999999999
 20
29.502300000000002
 30
0.0
 10
-58.697400000000002
 20
29.185700000000001
 30
0.0
 10
-58.554400000000001
 20
28.652200000000001
 30
0.0
 10
-58.554400000000001
 20
28.652200000000001
 30
0.0
 10
-58.411500000000004
 20
28.1188
 30
0.0
 10
-58.728100000000005
 20
27.570400000000003
 30
0.0
 10
-59.261600000000001
 20
27.427500000000002
 30
0.0
 10
-59.261600000000001
 20
27.427500000000002
 30
0.0
 10
-60.817
 20
27.0107
 30
0.0
 10
-62.474600000000002
 20
27.236800000000002
 30
0.0
 10
-63.861700000000006
 20
28.054500000000001
 30
0.0
 10
-63.861700000000006
 20
28.054500000000001
 30
0.0
 10
-64.647199999999998
 20
28.517600000000002
 30
0.0
 10
-65.646799999999999
 20
28.390700000000002
 30
0.0
 10
-66.291700000000006
 20
27.745800000000003
 30
0.0
 10
-66.291700000000006
 20
27.745800000000003
 30
0.0
 10
-66.291700000000006
 20
27.745800000000003
 30
0.0
 10
-66.291700000000006
 20
27.745800000000003
 30
0.0
 10
-66.291700000000006
 20
27.745800000000003
 30
0.0
 10
-66.291700000000006
 20
27.745800000000003
 30
0.0
 10
-66.291700000000006
 20
27.745800000000003
 30
0.0
 10
-70.612400000000008
 20
23.4251
 30
0.0
 10
-70.612400000000008
 20
23.4251
 30
0.0
  0
SPLINE
  5
2F
100
AcDbEntity
  8
0
370
    13
100
AcDbSpline
210
0.0
220
0.0
230
1.0
 70
     1
 71
     3
 72
    20
 73
    16
 74
     0
 42
0.0000000001
 43
0.0000000001
 40
0.0
 40
0.0
 40
0.0
 40
0.0
 40
0.25
 40
0.25
 40
0.25
 40
0.25
 40
0.5
 40
0.5
 40
0.5
 40
0.5
 40
0.75
 40
0.75
 40
0.75
 40
0.75
 40
1.0
 40
1.0
 40
1.0
 40
1.0
 10
-60.064500000000002
 20
33.222999999999999
 30
0.0
 10
-60.064500000000002
 20
33.637300000000003
 30
0.0
 10
-60.400400000000005
 20
33.972999999999999
 30
0.0
 10
-60.814500000000002
 20
33.972999999999999
 30
0.0
 10
-60.814500000000002
 20
33.972999999999999
 30
0.0
 10
-61.228700000000003
 20
33.972999999999999
 30
0.0
 10
-61.564500000000002
 20
33.637300000000003
 30
0.0
 10
-61.564500000000002
 20
33.222999999999999
 30
0.0
 10
-61.564500000000002
 20
33.222999999999999
 30
0.0
 10
-61.564500000000002
 20
32.808900000000001
 30
0.0
 10
-61.228700000000003
 20
32.472999999999999
 30
0.0
 10
-60.814500000000002
 20
32.472999999999999
 30
0.0
 10
-60.814500000000002
 20
32.472999999999999
 30
0.0
 10
-60.400400000000005
 20
32.472999999999999
 30
0.0
 10
-60.064500000000002
 20
32.808900000000001
 30
0.0
 10
-60.064500000000002
 20
33.222999999999999
 30
0.0
  0
SPLINE
  5
30
100
AcDbEntity
  8
0
370
    13
100
AcDbSpline
210
0.0
220
0.0
230
1.0
 70
     1
 71
     3
 72
    20
 73
    16
 74
     0
 42
0.0000000001
 43
0.0000000001
 40
0.0
 40
0.0
 40
0.0
 40
0.0
 40
0.25
 40
0.25
 40
0.25
 40
0.25
 40
0.5
 40
0.5
 40
0.5
 40
0.5
 40
0.75
 40
0.75
 40
0.75
 40
0.75
 40
1.0
 40
1.0
 40
1.0
 40
1.0
 10
-73.859499999999997
 20
14.084900000000001
 30
0.0
 10
-73.859499999999997
 20
14.430100000000001
 30
0.0
 10
-74.139300000000006
 20
14.709900000000001
 30
0.0
 10
-74.484499999999997
 20
14.709900000000001
 30
0.0
 10
-74.484499999999997
 20
14.709900000000001
 30
0.0
 10
-74.829599999999999
 20
14.709900000000001
 30
0.0
 10
-75.109499999999997
 20
14.430100000000001
 30
0.0
 10
-75.109499999999997
 20
14.084900000000001
 30
0.0
 10
-75.109499999999997
 20
14.084900000000001
 30
0.0
 10
-75.109499999999997
 20
13.739700000000001
 30
0.0
 10
-74.829700000000003
 20
13.459900000000001
 30
0.0
 10
-74.484499999999997
 20
13.459900000000001
 30
0.0
 10
-74.484499999999997
 20
13.459900000000001
 30
0.0
 10
-74.139300000000006
 20
13.459900000000001
 30
0.0
 10
-73.859499999999997
 20
13.739700000000001
 30
0.0
 10
-73.859499999999997
 20
14.084900000000001
 30
0.0
  0
SPLINE
  5
31
100
AcDbEntity
  8
0
370
    13
100
AcDbSpline
210
0.0
220
0.0
230
1.0
 70
     1
 71
     3
 72
    20
 73
    16
 74
     0
 42
0.0000000001
 43
0.0000000001
 40
0.0
 40
0.0
 40
0.0
 40
0.0
 40
0.25
 40
0.25
 40
0.25
 40
0.25
 40
0.5
 40
0.5
 40
0.5
 40
0.5
 40
0.75
 40
0.75
 40
0.75
 40
0.75
 40
1.0
 40
1.0
 40
1.0
 40
1.0
 10
-73.859499999999997
 20
37.121200000000002
 30
0.0
 10
-73.859499999999997
 20
37.4664
 30
0.0
 10
-74.139300000000006
 20
37.746200000000002
 30
0.0
 10
-74.484499999999997
 20
37.746200000000002
 30
0.0
 10
-74.484499999999997
 20
37.746200000000002
 30
0.0
 10
-74.829599999999999
 20
37.746200000000002
 30
0.0
 10
-75.109499999999997
 20
37.4664
 30
0.0
 10
-75.109499999999997
 20
37.121200000000002
 30
0.0
 10
-75.109499999999997
 20
37.121200000000002
 30
0.0
 10
-75.109499999999997
 20
36.776000000000003
 30
0.0
 10
-74.829700000000003
 20
36.496200000000002
 30
0.0
 10
-74.484499999999997
 20
36.496200000000002
 30
0.0
 10
-74.484499999999997
 20
36.496200000000002
 30
0.0
 10
-74.139300000000006
 20
36.496200000000002
 30
0.0
 10
-73.859499999999997
 20
36.776000000000003
 30
0.0
 10
-73.859499999999997
 20
37.121200000000002
 30
0.0
  0
SPLINE
  5
32
100
AcDbEntity
  8
0
370
    13
100
AcDbSpline
210
0.0
220
0.0
230
1.0
 70
     1
 71
     3
 72
    20
 73
    16
 74
     0
 42
0.0000000001
 43
0.0000000001
 40
0.0
 40
0.0
 40
0.0
 40
0.0
 40
0.25
 40
0.25
 40
0.25
 40
0.25
 40
0.5
 40
0.5
 40
0.5
 40
0.5
 40
0.75
 40
0.75
 40
0.75
 40
0.75
 40
1.0
 40
1.0
 40
1.0
 40
1.0
 10
-87.159500000000008
 20
14.084900000000001
 30
0.0
 10
-87.159500000000008
 20
14.430100000000001
 30
0.0
 10
-87.439300000000003
 20
14.709900000000001
 30
0.0
 10
-87.784500000000008
 20
14.709900000000001
 30
0.0
 10
-87.784500000000008
 20
14.709900000000001
 30
0.0
 10
-88.129600000000011
 20
14.709900000000001
 30
0.0
 10
-88.409500000000008
 20
14.430100000000001
 30
0.0
 10
-88.409500000000008
 20
14.084900000000001
 30
0.0
 10
-88.409500000000008
 20
14.084900000000001
 30
0.0
 10
-88.409500000000008
 20
13.739700000000001
 30
0.0
 10
-88.1297
 20
13.459900000000001
 30
0.0
 10
-87.784500000000008
 20
13.459900000000001
 30
0.0
 10
-87.784500000000008
 20
13.459900000000001
 30
0.0
 10
-87.439300000000003
 20
13.459900000000001
 30
0.0
 10
-87.159500000000008
 20
13.739700000000001
 30
0.0
 10
-87.159500000000008
 20
14.084900000000001
 30
0.0
  0
SPLINE
  5
33
100
AcDbEntity
  8
0
370
    13
100
AcDbSpline
210
0.0
220
0.0
230
1.0
 70
     1
 71
     3
 72
    20
 73
    16
 74
     0
 42
0.0000000001
 43
0.0000000001
 40
0.0
 40
0.0
 40
0.0
 40
0.0
 40
0.25
 40
0.25
 40
0.25
 40
0.25
 40
0.5
 40
0.5
 40
0.5
 40
0.5
 40
0.75
 40
0.75
 40
0.75
 40
0.75
 40
1.0
 40
1.0
 40
1.0
 40
1.0
 10
-87.159500000000008
 20
37.121200000000002
 30
0.0
 10
-87.159500000000008
 20
37.4664
 30
0.0
 10
-87.439300000000003
 20
37.746200000000002
 30
0.0
 10
-87.784500000000008
 20
37.746200000000002
 30
0.0
 10
-87.784500000000008
 20
37.746200000000002
 30
0.0
 10
-88.129600000000011
 20
37.746200000000002
 30
0.0
 10
-88.409500000000008
 20
37.4664
 30
0.0
 10
-88.409500000000008
 20
37.121200000000002
 30
0.0
 10
-88.409500000000008
 20
37.121200000000002
 30
0.0
 10
-88.409500000000008
 20
36.776000000000003
 30
0.0
 10
-88.1297
 20
36.496200000000002
 30
0.0
 10
-87.784500000000008
 20
36.496200000000002
 30
0.0
 10
-87.784500000000008
 20
36.496200000000002
 30
0.0
 10
-87.439300000000003
 20
36.496200000000002
 30
0.0
 10
-87.159500000000008
 20
36.776000000000003
 30
0.0
 10
-87.159500000000008
 20
37.121200000000002
 30
0.0
  0
SPLINE
  5
34
100
AcDbEntity
  8
0
370
    13
100
AcDbSpline
210
0.0
220
0.0
230
1.0
 70
     1
 71
     3
 72
    20
 73
    16
 74
     0
 42
0.0000000001
 43
0.0000000001
 40
0.0
 40
0.0
 40
0.0
 40
0.0
 40
0.25
 40
0.25
 40
0.25
 40
0.25
 40
0.5
 40
0.5
 40
0.5
 40
0.5
 40
0.75
 40
0.75
 40
0.75
 40
0.75
 40
1.0
 40
1.0
 40
1.0
 40
1.0
 10
-80.334500000000006
 20
12.303000000000001
 30
0.0
 10
-80.334500000000006
 20
12.744900000000001
 30
0.0
 10
-80.692599999999999
 20
13.103
 30
0.0
 10
-81.134500000000003
 20
13.103
 30
0.0
 10
-81.134500000000003
 20
13.103
 30
0.0
 10
-81.576300000000003
 20
13.103
 30
0.0
 10
-81.9345
 20
12.744900000000001
 30
0.0
 10
-81.9345
 20
12.303000000000001
 30
0.0
 10
-81.9345
 20
12.303000000000001
 30
0.0
 10
-81.9345
 20
11.8612
 30
0.0
 10
-81.576300000000003
 20
11.503
 30
0.0
 10
-81.134500000000003
 20
11.503
 30
0.0
 10
-81.134500000000003
 20
11.503
 30
0.0
 10
-80.692599999999999
 20
11.503
 30
0.0
 10
-80.334500000000006
 20
11.8612
 30
0.0
 10
-80.334500000000006
 20
12.303000000000001
 30
0.0
  0
SPLINE
  5
35
100
AcDbEntity
  8
0
370
    13
100
AcDbSpline
210
0.0
220
0.0
230
1.0
 70
     1
 71
     3
 72
    20
 73
    16
 74
     0
 42
0.0000000001
 43
0.0000000001
 40
0.0
 40
0.0
 40
0.0
 40
0.0
 40
0.25
 40
0.25
 40
0.25
 40
0.25
 40
0.5
 40
0.5
 40
0.5
 40
0.5
 40
0.75
 40
0.75
 40
0.75
 40
0.75
 40
1.0
 40
1.0
 40
1.0
 40
1.0
 10
-80.334500000000006
 20
38.902999999999999
 30
0.0
 10
-80.334500000000006
 20
39.344900000000003
 30
0.0
 10
-80.692599999999999
 20
39.703000000000003
 30
0.0
 10
-81.134500000000003
 20
39.703000000000003
 30
0.0
 10
-81.134500000000003
 20
39.703000000000003
 30
0.0
 10
-81.576300000000003
 20
39.703000000000003
 30
0.0
 10
-81.9345
 20
39.344900000000003
 30
0.0
 10
-81.9345
 20
38.902999999999999
 30
0.0
 10
-81.9345
 20
38.902999999999999
 30
0.0
 10
-81.9345
 20
38.461200000000005
 30
0.0
 10
-81.576300000000003
 20
38.103000000000002
 30
0.0
 10
-81.134500000000003
 20
38.103000000000002
 30
0.0
 10
-81.134500000000003
 20
38.103000000000002
 30
0.0
 10
-80.692599999999999
 20
38.103000000000002
 30
0.0
 10
-80.334500000000006
 20
38.461200000000005
 30
0.0
 10
-80.334500000000006
 20
38.902999999999999
 30
0.0
  0
SPLINE
  5
36
100
AcDbEntity
  8
0
370
    13
100
AcDbSpline
210
0.0
220
0.0
230
1.0
 70
     0
 71
     3
 72
     8
 73
     4
 74
     0
 42
0.0000000001
 43
0.0000000001
 40
0.0
 40
0.0
 40
0.0
 40
0.0
 40
1.0
 40
1.0
 40
1.0
 40
1.0
 10
-90.932400000000001
 20
15.805100000000001
 30
0.0
 10
-90.932400000000001
 20
15.805100000000001
 30
0.0
 10
-90.932400000000001
 20
15.805100000000001
 30
0.0
 10
-90.932400000000001
 20
15.805100000000001
 30
0.0
  0
SPLINE
  5
37
100
AcDbEntity
  8
0
370
    13
100
AcDbSpline
210
0.0
220
0.0
230
1.0
 70
     0
 71
     3
 72
   164
 73
   160
 74
     0
 42
0.0000000001
 43
0.0000000001
 40
0.0
 40
0.0
 40
0.0
 40
0.0
 40
0.025
 40
0.025
 40
0.025
 40
0.025
 40
0.05
 40
0.05
 40
0.05
 40
0.05
 40
0.075
 40
0.075
 40
0.075
 40
0.075
 40
0.1
 40
0.1
 40
0.1
 40
0.1
 40
0.125
 40
0.125
 40
0.125
 40
0.125
 40
0.15
 40
0.15
 40
0.15
 40
0.15
 40
0.175
 40
0.175
 40
0.175
 40
0.175
 40
0.2
 40
0.2
 40
0.2
 40
0.2
 40
0.225
 40
0.225
 40
0.225
 40
0.225
 40
0.25
 40
0.25
 40
0.25
 40
0.25
 40
0.275
 40
0.275
 40
0.275
 40
0.275
 40
0.3
 40
0.3
 40
0.3
 40
0.3
 40
0.325
 40
0.325
 40
0.325
 40
0.325
 40
0.35
 40
0.35
 40
0.35
 40
0.35
 40
0.3750000000000001
 40
0.3750000000000001
 40
0.3750000000000001
 40
0.3750000000000001
 40
0.4000000000000001
 40
0.4000000000000001
 40
0.4000000000000001
 40
0.4000000000000001
 40
0.4250000000000001
 40
0.4250000000000001
 40
0.4250000000000001
 40
0.4250000000000001
 40
0.4500000000000001
 40
0.4500000000000001
 40
0.4500000000000001
 40
0.4500000000000001
 40
0.4750000000000001
 40
0.4750000000000001
 40
0.4750000000000001
 40
0.4750000000000001
 40
0.5000000000000001
 40
0.5000000000000001
 40
0.5000000000000001
 40
0.5000000000000001
 40
0.5250000000000001
 40
0.5250000000000001
 40
0.5250000000000001
 40
0.5250000000000001
 40
0.5500000000000002
 40
0.5500000000000002
 40
0.5500000000000002
 40
0.5500000000000002
 40
0.5750000000000002
 40
0.5750000000000002
 40
0.5750000000000002
 40
0.5750000000000002
 40
0.6000000000000002
 40
0.6000000000000002
 40
0.6000000000000002
 40
0.6000000000000002
 40
0.6250000000000002
 40
0.6250000000000002
 40
0.6250000000000002
 40
0.6250000000000002
 40
0.6500000000000002
 40
0.6500000000000002
 40
0.6500000000000002
 40
0.6500000000000002
 40
0.6750000000000003
 40
0.6750000000000003
 40
0.6750000000000003
 40
0.6750000000000003
 40
0.7000000000000003
 40
0.7000000000000003
 40
0.7000000000000003
 40
0.7000000000000003
 40
0.7250000000000003
 40
0.7250000000000003
 40
0.7250000000000003
 40
0.7250000000000003
 40
0.7500000000000003
 40
0.7500000000000003
 40
0.7500000000000003
 40
0.7500000000000003
 40
0.7750000000000004
 40
0.7750000000000004
 40
0.7750000000000004
 40
0.7750000000000004
 40
0.8000000000000004
 40
0.8000000000000004
 40
0.8000000000000004
 40
0.8000000000000004
 40
0.8250000000000004
 40
0.8250000000000004
 40
0.8250000000000004
 40
0.8250000000000004
 40
0.8500000000000004
 40
0.8500000000000004
 40
0.8500000000000004
 40
0.8500000000000004
 40
0.8750000000000004
 40
0.8750000000000004
 40
0.8750000000000004
 40
0.8750000000000004
 40
0.9000000000000005
 40
0.9000000000000005
 40
0.9000000000000005
 40
0.9000000000000005
 40
0.9250000000000005
 40
0.9250000000000005
 40
0.9250000000000005
 40
0.9250000000000005
 40
0.9500000000000005
 40
0.9500000000000005
 40
0.9500000000000005
 40
0.9500000000000005
 40
0.9750000000000005
 40
0.9750000000000005
 40
0.9750000000000005
 40
0.9750000000000005
 40
1.0
 40
1.0
 40
1.0
 40
1.0
 10
-90.932400000000001
 20
35.401000000000003
 30
0.0
 10
-91.342800000000011
 20
35.811300000000003
 30
0.0
 10
-91.554600000000008
 20
36.3797
 30
0.0
 10
-91.513100000000009
 20
36.958400000000005
 30
0.0
 10
-91.513100000000009
 20
36.958400000000005
 30
0.0
 10
-91.471600000000009
 20
37.537199999999999
 30
0.0
 10
-91.180599999999998
 20
38.069500000000005
 30
0.0
 10
-90.715900000000005
 20
38.417000000000002
 30
0.0
 10
-90.715900000000005
 20
38.417000000000002
 30
0.0
 10
-89.047499999999999
 20
39.664500000000004
 30
0.0
 10
-87.151499999999999
 20
40.574200000000005
 30
0.0
 10
-85.134500000000003
 20
41.094999999999999
 30
0.0
 10
-85.134500000000003
 20
41.094999999999999
 30
0.0
 10
-83.809899999999999
 20
41.437000000000005
 30
0.0
 10
-82.884500000000003
 20
42.631700000000002
 30
0.0
 10
-82.884500000000003
 20
43.999700000000004
 30
0.0
 10
-82.884500000000003
 20
43.999700000000004
 30
0.0
 10
-82.884500000000003
 20
43.999700000000004
 30
0.0
 10
-82.884500000000003
 20
55.554100000000005
 30
0.0
 10
-82.884500000000003
 20
55.554100000000005
 30
0.0
 10
-82.884500000000003
 20
55.554100000000005
 30
0.0
 10
-82.884500000000003
 20
55.554100000000005
 30
0.0
 10
-79.884500000000003
 20
55.554100000000005
 30
0.0
 10
-79.884500000000003
 20
55.554100000000005
 30
0.0
 10
-79.884500000000003
 20
55.554100000000005
 30
0.0
 10
-79.879900000000006
 20
51.743100000000005
 30
0.0
 10
-79.8245
 20
47.932100000000005
 30
0.0
 10
-79.884500000000003
 20
44.121600000000001
 30
0.0
 10
-79.884500000000003
 20
44.121600000000001
 30
0.0
 10
-79.884500000000003
 20
42.723300000000002
 30
0.0
 10
-78.918400000000005
 20
41.510400000000004
 30
0.0
 10
-77.555500000000009
 20
41.197600000000001
 30
0.0
 10
-77.555500000000009
 20
41.197600000000001
 30
0.0
 10
-75.382800000000003
 20
40.699000000000005
 30
0.0
 10
-73.338300000000004
 20
39.751899999999999
 30
0.0
 10
-71.552999999999997
 20
38.416900000000005
 30
0.0
 10
-71.552999999999997
 20
38.416900000000005
 30
0.0
 10
-71.088300000000004
 20
38.069400000000002
 30
0.0
 10
-70.797300000000007
 20
37.537100000000002
 30
0.0
 10
-70.755899999999997
 20
36.958400000000005
 30
0.0
 10
-70.755899999999997
 20
36.958400000000005
 30
0.0
 10
-70.714399999999998
 20
36.3797
 30
0.0
 10
-70.926200000000009
 20
35.811300000000003
 30
0.0
 10
-71.336500000000001
 20
35.401000000000003
 30
0.0
 10
-71.336500000000001
 20
35.401000000000003
 30
0.0
 10
-71.336500000000001
 20
35.401000000000003
 30
0.0
 10
-71.336500000000001
 20
35.401000000000003
 30
0.0
 10
-71.336500000000001
 20
35.401000000000003
 30
0.0
 10
-71.336500000000001
 20
35.401000000000003
 30
0.0
 10
-71.336500000000001
 20
35.401000000000003
 30
0.0
 10
-72.767899999999997
 20
33.9696
 30
0.0
 10
-72.767899999999997
 20
33.9696
 30
0.0
 10
-72.767899999999997
 20
33.9696
 30
0.0
 10
-72.767899999999997
 20
33.9696
 30
0.0
 10
-72.767899999999997
 20
33.9696
 30
0.0
 10
-72.767899999999997
 20
33.9696
 30
0.0
 10
-72.767899999999997
 20
33.9696
 30
0.0
 10
-73.457999999999998
 20
33.279499999999999
 30
0.0
 10
-74.545400000000001
 20
33.188299999999998
 30
0.0
 10
-75.340800000000002
 20
33.753700000000002
 30
0.0
 10
-75.340800000000002
 20
33.753700000000002
 30
0.0
 10
-77.770300000000006
 20
35.480600000000003
 30
0.0
 10
-80.843500000000006
 20
36.033799999999999
 30
0.0
 10
-83.722700000000003
 20
35.262300000000003
 30
0.0
 10
-83.722700000000003
 20
35.262300000000003
 30
0.0
 10
-84.067800000000005
 20
35.169800000000002
 30
0.0
 10
-84.337299999999999
 20
34.900300000000001
 30
0.0
 10
-84.4298
 20
34.555199999999999
 30
0.0
 10
-84.4298
 20
34.555199999999999
 30
0.0
 10
-84.522199999999998
 20
34.210100000000004
 30
0.0
 10
-84.423600000000008
 20
33.841900000000003
 30
0.0
 10
-84.170900000000003
 20
33.589300000000001
 30
0.0
 10
-84.170900000000003
 20
33.589300000000001
 30
0.0
 10
-83.918300000000002
 20
33.336600000000004
 30
0.0
 10
-83.5501
 20
33.238
 30
0.0
 10
-83.204999999999998
 20
33.330400000000004
 30
0.0
 10
-83.204999999999998
 20
33.330400000000004
 30
0.0
 10
-79.956400000000002
 20
34.200900000000004
 30
0.0
 10
-76.510300000000001
 20
32.946600000000004
 30
0.0
 10
-74.58120000000001
 20
30.191600000000001
 30
0.0
 10
-74.58120000000001
 20
30.191600000000001
 30
0.0
 10
-72.652200000000008
 20
27.436700000000002
 30
0.0
 10
-72.652200000000008
 20
23.769400000000001
 30
0.0
 10
-74.581299999999999
 20
21.014400000000002
 30
0.0
 10
-74.581299999999999
 20
21.014400000000002
 30
0.0
 10
-76.510300000000001
 20
18.259499999999999
 30
0.0
 10
-79.956400000000002
 20
17.005200000000002
 30
0.0
 10
-83.204999999999998
 20
17.875600000000002
 30
0.0
 10
-83.204999999999998
 20
17.875600000000002
 30
0.0
 10
-83.5501
 20
17.9681
 30
0.0
 10
-83.918300000000002
 20
17.869400000000002
 30
0.0
 10
-84.170900000000003
 20
17.616800000000001
 30
0.0
 10
-84.170900000000003
 20
17.616800000000001
 30
0.0
 10
-84.423600000000008
 20
17.3642
 30
0.0
 10
-84.522199999999998
 20
16.996000000000002
 30
0.0
 10
-84.4298
 20
16.6509
 30
0.0
 10
-84.4298
 20
16.6509
 30
0.0
 10
-84.337299999999999
 20
16.305800000000001
 30
0.0
 10
-84.067800000000005
 20
16.036300000000001
 30
0.0
 10
-83.722700000000003
 20
15.943800000000001
 30
0.0
 10
-83.722700000000003
 20
15.943800000000001
 30
0.0
 10
-80.843500000000006
 20
15.1723
 30
0.0
 10
-77.770300000000006
 20
15.7254
 30
0.0
 10
-75.340800000000002
 20
17.452400000000001
 30
0.0
 10
-75.340800000000002
 20
17.452400000000001
 30
0.0
 10
-74.545400000000001
 20
18.017800000000001
 30
0.0
 10
-73.457999999999998
 20
17.926500000000001
 30
0.0
 10
-72.767899999999997
 20
17.2364
 30
0.0
 10
-72.767899999999997
 20
17.2364
 30
0.0
 10
-72.767899999999997
 20
17.2364
 30
0.0
 10
-71.336500000000001
 20
15.805100000000001
 30
0.0
 10
-71.336500000000001
 20
15.805100000000001
 30
0.0
 10
-71.336500000000001
 20
15.805100000000001
 30
0.0
 10
-70.926200000000009
 20
15.3947
 30
0.0
 10
-70.714300000000009
 20
14.826400000000001
 30
0.0
 10
-70.755899999999997
 20
14.2476
 30
0.0
 10
-70.755899999999997
 20
14.2476
 30
0.0
 10
-70.79740000000001
 20
13.668800000000001
 30
0.0
 10
-71.088300000000004
 20
13.136600000000001
 30
0.0
 10
-71.552999999999997
 20
12.789100000000001
 30
0.0
 10
-71.552999999999997
 20
12.789100000000001
 30
0.0
 10
-73.338300000000004
 20
11.4542
 30
0.0
 10
-75.382800000000003
 20
10.507100000000001
 30
0.0
 10
-77.555500000000009
 20
10.0085
 30
0.0
 10
-77.555500000000009
 20
10.0085
 30
0.0
 10
-78.918400000000005
 20
9.6957000000000004
 30
0.0
 10
-79.884500000000003
 20
8.482800000000001
 30
0.0
 10
-79.884500000000003
 20
7.0845000000000002
 30
0.0
 10
-79.884500000000003
 20
7.0845000000000002
 30
0.0
 10
-79.884500000000003
 20
3.2737000000000003
 30
0.0
 10
-79.884500000000003
 20
-0.5371
 30
0.0
 10
-79.884500000000003
 20
-4.3479999999999999
 30
0.0
 10
-79.884500000000003
 20
-4.3479999999999999
 30
0.0
 10
-80.884500000000003
 20
-4.3479999999999999
 30
0.0
 10
-81.884500000000003
 20
-4.3479999999999999
 30
0.0
 10
-82.884500000000003
 20
-4.3479999999999999
 30
0.0
 10
-82.884500000000003
 20
-4.3479999999999999
 30
0.0
 10
-82.884500000000003
 20
-4.3479999999999999
 30
0.0
 10
-82.884500000000003
 20
-4.3479999999999999
 30
0.0
 10
-82.884500000000003
 20
-4.3479999999999999
 30
0.0
 10
-82.884500000000003
 20
-4.3479999999999999
 30
0.0
 10
-82.884500000000003
 20
-0.4965
 30
0.0
 10
-82.884500000000003
 20
3.355
 30
0.0
 10
-82.884500000000003
 20
7.2064000000000004
 30
0.0
 10
-82.884500000000003
 20
7.2064000000000004
 30
0.0
 10
-82.884500000000003
 20
8.5744000000000007
 30
0.0
 10
-83.809899999999999
 20
9.7690999999999999
 30
0.0
 10
-85.134500000000003
 20
10.1111
 30
0.0
 10
-85.134500000000003
 20
10.1111
 30
0.0
 10
-87.151499999999999
 20
10.6319
 30
0.0
 10
-89.047499999999999
 20
11.541600000000001
 30
0.0
 10
-90.715900000000005
 20
12.789100000000001
 30
0.0
 10
-90.715900000000005
 20
12.789100000000001
 30
0.0
 10
-91.180599999999998
 20
13.136600000000001
 30
0.0
 10
-91.471500000000006
 20
13.668800000000001
 30
0.0
 10
-91.513100000000009
 20
14.2476
 30
0.0
 10
-91.513100000000009
 20
14.2476
 30
0.0
 10
-91.554600000000008
 20
14.826400000000001
 30
0.0
 10
-91.342800000000011
 20
15.3948
 30
0.0
 10
-90.932400000000001
 20
15.805100000000001
 30
0.0
  0
SPLINE
  5
38
100
AcDbEntity
  8
0
370
    13
100
AcDbSpline
210
0.0
220
0.0
230
1.0
 70
     0
 71
     3
 72
     8
 73
     4
 74
     0
 42
0.0000000001
 43
0.0000000001
 40
0.0
 40
0.0
 40
0.0
 40
0.0
 40
1.0
 40
1.0
 40
1.0
 40
1.0
 10
-90.932400000000001
 20
35.401000000000003
 30
0.0
 10
-90.932400000000001
 20
35.401000000000003
 30
0.0
 10
-90.932400000000001
 20
35.401000000000003
 30
0.0
 10
-90.932400000000001
 20
35.401000000000003
 30
0.0
  0
SPLINE
  5
39
100
AcDbEntity
  8
0
370
    13
100
AcDbSpline
210
0.0
220
0.0
230
1.0
 70
     0
 71
     3
 72
    64
 73
    60
 74
     0
 42
0.0000000001
 43
0.0000000001
 40
0.0
 40
0.0
 40
0.0
 40
0.0
 40
0.0666666666666667
 40
0.0666666666666667
 40
0.0666666666666667
 40
0.0666666666666667
 40
0.1333333333333333
 40
0.1333333333333333
 40
0.1333333333333333
 40
0.1333333333333333
 40
0.2
 40
0.2
 40
0.2
 40
0.2
 40
0.2666666666666667
 40
0.2666666666666667
 40
0.2666666666666667
 40
0.2666666666666667
 40
0.3333333333333333
 40
0.3333333333333333
 40
0.3333333333333333
 40
0.3333333333333333
 40
0.4
 40
0.4
 40
0.4
 40
0.4
 40
0.4666666666666666
 40
0.4666666666666666
 40
0.4666666666666666
 40
0.4666666666666666
 40
0.5333333333333333
 40
0.5333333333333333
 40
0.5333333333333333
 40
0.5333333333333333
 40
0.6
 40
0.6
 40
0.6
 40
0.6
 40
0.6666666666666666
 40
0.6666666666666666
 40
0.6666666666666666
 40
0.6666666666666666
 40
0.7333333333333333
 40
0.7333333333333333
 40
0.7333333333333333
 40
0.7333333333333333
 40
0.7999999999999999
 40
0.7999999999999999
 40
0.7999999999999999
 40
0.7999999999999999
 40
0.8666666666666666
 40
0.8666666666666666
 40
0.8666666666666666
 40
0.8666666666666666
 40
0.9333333333333332
 40
0.9333333333333332
 40
0.9333333333333332
 40
0.9333333333333332
 40
1.0
 40
1.0
 40
1.0
 40
1.0
 10
-90.932400000000001
 20
35.401000000000003
 30
0.0
 10
-90.932400000000001
 20
35.401000000000003
 30
0.0
 10
-86.611699999999999
 20
31.080300000000001
 30
0.0
 10
-86.611699999999999
 20
31.080300000000001
 30
0.0
 10
-86.611699999999999
 20
31.080300000000001
 30
0.0
 10
-86.611699999999999
 20
31.080300000000001
 30
0.0
 10
-86.611699999999999
 20
31.080300000000001
 30
0.0
 10
-86.611699999999999
 20
31.080300000000001
 30
0.0
 10
-86.611699999999999
 20
31.080300000000001
 30
0.0
 10
-85.966800000000006
 20
30.435400000000001
 30
0.0
 10
-84.967399999999998
 20
30.308400000000002
 30
0.0
 10
-84.181700000000006
 20
30.771600000000003
 30
0.0
 10
-84.181700000000006
 20
30.771600000000003
 30
0.0
 10
-82.794600000000003
 20
31.589400000000001
 30
0.0
 10
-81.137
 20
31.8154
 30
0.0
 10
-79.581600000000009
 20
31.398600000000002
 30
0.0
 10
-79.581600000000009
 20
31.398600000000002
 30
0.0
 10
-79.048100000000005
 20
31.255700000000001
 30
0.0
 10
-78.731499999999997
 20
30.7073
 30
0.0
 10
-78.874499999999998
 20
30.1738
 30
0.0
 10
-78.874499999999998
 20
30.1738
 30
0.0
 10
-79.017400000000009
 20
29.640400000000003
 30
0.0
 10
-79.565700000000007
 20
29.323800000000002
 30
0.0
 10
-80.09920000000001
 20
29.466700000000003
 30
0.0
 10
-80.09920000000001
 20
29.466700000000003
 30
0.0
 10
-81.723500000000001
 20
29.902000000000001
 30
0.0
 10
-83.446600000000004
 20
29.274800000000003
 30
0.0
 10
-84.411100000000005
 20
27.897300000000001
 30
0.0
 10
-84.411100000000005
 20
27.897300000000001
 30
0.0
 10
-85.375600000000006
 20
26.5199
 30
0.0
 10
-85.375600000000006
 20
24.686199999999999
 30
0.0
 10
-84.411100000000005
 20
23.308700000000002
 30
0.0
 10
-84.411100000000005
 20
23.308700000000002
 30
0.0
 10
-83.446600000000004
 20
21.9313
 30
0.0
 10
-81.723500000000001
 20
21.304100000000002
 30
0.0
 10
-80.09920000000001
 20
21.7393
 30
0.0
 10
-80.09920000000001
 20
21.7393
 30
0.0
 10
-79.565700000000007
 20
21.882300000000001
 30
0.0
 10
-79.017400000000009
 20
21.5657
 30
0.0
 10
-78.874400000000009
 20
21.0322
 30
0.0
 10
-78.874400000000009
 20
21.0322
 30
0.0
 10
-78.731499999999997
 20
20.498799999999999
 30
0.0
 10
-79.048100000000005
 20
19.950400000000002
 30
0.0
 10
-79.581600000000009
 20
19.807500000000001
 30
0.0
 10
-79.581600000000009
 20
19.807500000000001
 30
0.0
 10
-81.137
 20
19.390700000000002
 30
0.0
 10
-82.794600000000003
 20
19.616800000000001
 30
0.0
 10
-84.181700000000006
 20
20.4345
 30
0.0
 10
-84.181700000000006
 20
20.4345
 30
0.0
 10
-84.967200000000005
 20
20.897600000000001
 30
0.0
 10
-85.966800000000006
 20
20.770700000000001
 30
0.0
 10
-86.611699999999999
 20
20.125800000000002
 30
0.0
 10
-86.611699999999999
 20
20.125800000000002
 30
0.0
 10
-86.611699999999999
 20
20.125800000000002
 30
0.0
 10
-86.611699999999999
 20
20.125800000000002
 30
0.0
 10
-86.611699999999999
 20
20.125800000000002
 30
0.0
 10
-86.611699999999999
 20
20.125800000000002
 30
0.0
 10
-86.611699999999999
 20
20.125800000000002
 30
0.0
 10
-90.932400000000001
 20
15.805100000000001
 30
0.0
 10
-90.932400000000001
 20
15.805100000000001
 30
0.0
  0
SPLINE
  5
3A
100
AcDbEntity
  8
0
370
    13
100
AcDbSpline
210
0.0
220
0.0
230
1.0
 70
     1
 71
     3
 72
    20
 73
    16
 74
     0
 42
0.0000000001
 43
0.0000000001
 40
0.0
 40
0.0
 40
0.0
 40
0.0
 40
0.25
 40
0.25
 40
0.25
 40
0.25
 40
0.5
 40
0.5
 40
0.5
 40
0.5
 40
0.75
 40
0.75
 40
0.75
 40
0.75
 40
1.0
 40
1.0
 40
1.0
 40
1.0
 10
-80.384500000000003
 20
25.603000000000002
 30
0.0
 10
-80.384500000000003
 20
26.017200000000003
 30
0.0
 10
-80.720300000000009
 20
26.353000000000002
 30
0.0
 10
-81.134500000000003
 20
26.353000000000002
 30
0.0
 10
-81.134500000000003
 20
26.353000000000002
 30
0.0
 10
-81.548700000000011
 20
26.353000000000002
 30
0.0
 10
-81.884500000000003
 20
26.017200000000003
 30
0.0
 10
-81.884500000000003
 20
25.603000000000002
 30
0.0
 10
-81.884500000000003
 20
25.603000000000002
 30
0.0
 10
-81.884500000000003
 20
25.188800000000001
 30
0.0
 10
-81.548700000000011
 20
24.853000000000002
 30
0.0
 10
-81.134500000000003
 20
24.853000000000002
 30
0.0
 10
-81.134500000000003
 20
24.853000000000002
 30
0.0
 10
-80.720300000000009
 20
24.853000000000002
 30
0.0
 10
-80.384500000000003
 20
25.188800000000001
 30
0.0
 10
-80.384500000000003
 20
25.603000000000002
 30
0.0
  0
LWPOLYLINE
  5
3B
100
AcDbEntity
  8
0
370
     5
100
AcDbPolyline
 90
        5
 70
     1
 10
-92.466
 20
-5.742
 10
-48.824
 20
-5.742
 10
-48.824
 20
63.886
 10
-92.466
 20
63.886
 10
-92.466
 20
-5.742
  0
ENDSEC
  0
SECTION
  2
OBJECTS
  0
DICTIONARY
  5
19
100
AcDbDictionary
280
     0
281
     1
  3
ACAD_GROUP
350
1A
  3
ACAD_MLINESTYLE
350
1B
  3
ACAD_LAYOUT
350
1E
  3
ACAD_PLOTSETTINGS
350
22
  3
ACAD_PLOTSTYLENAME
350
1F
  3
ACAD_WIPEOUT_VARS
350
23
  0
DICTIONARY
  5
1A
102
{ACAD_REACTORS
330
19
102
}
100
AcDbDictionary
280
     0
281
     1
  0
DICTIONARY
  5
1B
102
{ACAD_REACTORS
330
19
102
}
100
AcDbDictionary
280
     0
281
     1
  3
Standard
350
1C
  0
MLINESTYLE
  5
1C
102
{ACAD_REACTORS
330
1B
102
}
100
AcDbMlineStyle
  2
Standard
 70
     0
  3

 62
     0
 51
90.0
 52
90.0
 71
     2
 49
0.5
 62
   256
  6
BYLAYER
 49
-0.5
 62
   256
  6
BYLAYER
  0
ACDBDICTIONARYWDFLT
  5
1F
102
{ACAD_REACTORS
330
19
102
}
100
AcDbDictionary
281
     1
  3
Normal
350
1D
100
AcDbDictionaryWithDefault
340
1D
  0
ACDBPLACEHOLDER
  5
1D
102
{ACAD_REACTORS
330
1F
102
}
  0
LAYOUT
  5
20
102
{ACAD_REACTORS
330
1E
102
}
100
AcDbPlotSettings
  1

  2

  4

  6

 40
0.0
 41
0.0
 42
0.0
 43
0.0
 44
0.0
 45
0.0
 46
0.0
 47
0.0
 48
0.0
 49
0.0
140
0.0
141
0.0
142
1.0
143
1.0
 70
  1024
 72
     0
 73
     0
 74
     0
  7

 75
     0
147
1.0
148
0.0
149
0.0
100
AcDbLayout
  1
Model
 70
     0
 71
     0
 10
0.0
 20
0.0
 11
0.0
 21
0.0
 12
0.0
 22
0.0
 32
0.0
 14
0.0
 24
0.0
 34
0.0
 15
0.0
 25
0.0
 35
0.0
146
0.0
 13
0.0
 23
0.0
 33
0.0
 16
0.0
 26
0.0
 36
0.0
 17
0.0
 27
0.0
 37
0.0
 76
     0
330
A
331
0
345
0
346
0
  0
LAYOUT
  5
21
102
{ACAD_REACTORS
330
1E
102
}
100
AcDbPlotSettings
  1

  2

  4

  6

 40
0.0
 41
0.0
 42
0.0
 43
0.0
 44
0.0
 45
0.0
 46
0.0
 47
0.0
 48
0.0
 49
0.0
140
0.0
141
0.0
142
1.0
143
1.0
 70
     0
 72
     0
 73
     0
 74
     0
  7

 75
     0
147
1.0
148
0.0
149
0.0
100
AcDbLayout
  1
Layout1
 70
     0
 71
     0
 10
0.0
 20
0.0
 11
0.0
 21
0.0
 12
0.0
 22
0.0
 32
0.0
 14
0.0
 24
0.0
 34
0.0
 15
0.0
 25
0.0
 35
0.0
146
0.0
 13
0.0
 23
0.0
 33
0.0
 16
0.0
 26
0.0
 36
0.0
 17
0.0
 27
0.0
 37
0.0
 76
     0
330
B
331
0
345
0
346
0
  0
DICTIONARY
  5
1E
102
{ACAD_REACTORS
330
19
102
}
100
AcDbDictionary
280
     0
281
     1
  3
Layout1
350
21
  3
Model
350
20
  0
DICTIONARY
  5
22
102
{ACAD_REACTORS
330
19
102
}
100
AcDbDictionary
280
     0
281
     1
  0
WIPEOUTVARIABLES
  5
23
100
AcDbWipeoutVariables
 70
     1
  0
ENDSEC
  0
EOF
