  0
SECTION
  2
HEADER
  9
$ACADVER
  1
AC1014
  9
$ACADMAINTVER
 70
     0
  9
$DWGCODEPAGE
  3
ANSI_1251
  9
$INSBASE
 10
0.0
 20
0.0
 30
0.0
  9
$EXTMIN
 10
0.0
 20
0.0
 30
0.0
  9
$EXTMAX
 10
210.0
 20
297.0
 30
0.0
  9
$LIMMIN
 10
0.0
 20
0.0
  9
$LIMMAX
 10
12.0
 20
9.0
  9
$ORTHOMODE
 70
     0
  9
$REGENMODE
 70
     1
  9
$FILLMODE
 70
     0
  9
$QTEXTMODE
 70
     0
  9
$MIRRTEXT
 70
     1
  9
$DRAGMODE
 70
     2
  9
$LTSCALE
 40
2.1
  9
$OSMODE
 70
     0
  9
$ATTMODE
 70
     1
  9
$TEXTSIZE
 40
0.2
  9
$TRACEWID
 40
0.05
  9
$TEXTSTYLE
  7
STANDARD
  9
$CLAYER
  8
0
  9
$CELTYPE
  6
BYLAYER
  9
$CECOLOR
 62
   256
  9
$CELTSCALE
 40
1.0
  9
$DELOBJ
 70
     1
  9
$DISPSILH
 70
     0
  9
$DIMSCALE
 40
1.0
  9
$DIMASZ
 40
0.18
  9
$DIMEXO
 40
0.0625
  9
$DIMDLI
 40
0.38
  9
$DIMRND
 40
0.0
  9
$DIMDLE
 40
0.0
  9
$DIMEXE
 40
0.18
  9
$DIMTP
 40
0.0
  9
$DIMTM
 40
0.0
  9
$DIMTXT
 40
0.18
  9
$DIMCEN
 40
0.09
  9
$DIMTSZ
 40
0.0
  9
$DIMTOL
 70
     0
  9
$DIMLIM
 70
     0
  9
$DIMTIH
 70
     0
  9
$DIMTOH
 70
     0
  9
$DIMSE1
 70
     0
  9
$DIMSE2
 70
     0
  9
$DIMTAD
 70
     1
  9
$DIMZIN
 70
     0
  9
$DIMBLK
  1

  9
$DIMASO
 70
     1
  9
$DIMSHO
 70
     1
  9
$DIMPOST
  1

  9
$DIMAPOST
  1

  9
$DIMALT
 70
     0
  9
$DIMALTD
 70
     2
  9
$DIMALTF
 40
25.4
  9
$DIMLFAC
 40
1.0
  9
$DIMTOFL
 70
     0
  9
$DIMTVP
 40
0.0
  9
$DIMTIX
 70
     0
  9
$DIMSOXD
 70
     0
  9
$DIMSAH
 70
     0
  9
$DIMBLK1
  1

  9
$DIMBLK2
  1

  9
$DIMSTYLE
  2
STANDARD
  9
$DIMCLRD
 70
     0
  9
$DIMCLRE
 70
     0
  9
$DIMCLRT
 70
     0
  9
$DIMTFAC
 40
1.0
  9
$DIMGAP
 40
0.09
  9
$DIMJUST
 70
     0
  9
$DIMSD1
 70
     0
  9
$DIMSD2
 70
     0
  9
$DIMTOLJ
 70
     1
  9
$DIMTZIN
 70
     0
  9
$DIMALTZ
 70
     0
  9
$DIMALTTZ
 70
     0
  9
$DIMFIT
 70
     3
  9
$DIMUPT
 70
     0
  9
$DIMUNIT
 70
     2
  9
$DIMDEC
 70
     2
  9
$DIMTDEC
 70
     4
  9
$DIMALTU
 70
     2
  9
$DIMALTTD
 70
     2
  9
$DIMTXSTY
  7
STANDARD
  9
$DIMAUNIT
 70
     0
  9
$LUNITS
 70
     2
  9
$LUPREC
 70
     4
  9
$SKETCHINC
 40
0.1
  9
$FILLETRAD
 40
0.5
  9
$AUNITS
 70
     0
  9
$AUPREC
 70
     0
  9
$MENU
  1
.
  9
$ELEVATION
 40
0.0
  9
$PELEVATION
 40
0.0
  9
$THICKNESS
 40
0.0
  9
$LIMCHECK
 70
     0
  9
$BLIPMODE
 70
     0
  9
$CHAMFERA
 40
0.5
  9
$CHAMFERB
 40
0.5
  9
$CHAMFERC
 40
1.0
  9
$CHAMFERD
 40
0.0
  9
$SKPOLY
 70
     0
  9
$TDCREATE
 40
2450772.666465926
  9
$TDUPDATE
 40
2457330.444594908
  9
$TDINDWG
 40
0.0011564931
  9
$TDUSRTIMER
 40
0.0000000000
  9
$USRTIMER
 70
     1
  9
$ANGBASE
 50
0.0
  9
$ANGDIR
 70
     0
  9
$PDMODE
 70
     0
  9
$PDSIZE
 40
0.0
  9
$PLINEWID
 40
0.0
  9
$COORDS
 70
     1
  9
$SPLFRAME
 70
     0
  9
$SPLINETYPE
 70
     6
  9
$SPLINESEGS
 70
     8
  9
$ATTDIA
 70
     0
  9
$ATTREQ
 70
     1
  9
$HANDLING
 70
     1
  9
$HANDSEED
  5
1F5
  9
$SURFTAB1
 70
     6
  9
$SURFTAB2
 70
     6
  9
$SURFTYPE
 70
     6
  9
$SURFU
 70
     6
  9
$SURFV
 70
     6
  9
$UCSNAME
  2

  9
$UCSORG
 10
0.0
 20
0.0
 30
0.0
  9
$UCSXDIR
 10
1.0
 20
0.0
 30
0.0
  9
$UCSYDIR
 10
0.0
 20
1.0
 30
0.0
  9
$PUCSNAME
  2

  9
$PUCSORG
 10
0.0
 20
0.0
 30
0.0
  9
$PUCSXDIR
 10
1.0
 20
0.0
 30
0.0
  9
$PUCSYDIR
 10
0.0
 20
1.0
 30
0.0
  9
$USERI1
 70
     0
  9
$USERI2
 70
     0
  9
$USERI3
 70
     0
  9
$USERI4
 70
     0
  9
$USERI5
 70
     0
  9
$USERR1
 40
0.0
  9
$USERR2
 40
0.0
  9
$USERR3
 40
0.0
  9
$USERR4
 40
0.0
  9
$USERR5
 40
0.0
  9
$WORLDVIEW
 70
     1
  9
$SHADEDGE
 70
     3
  9
$SHADEDIF
 70
    70
  9
$TILEMODE
 70
     1
  9
$MAXACTVP
 70
    48
  9
$PINSBASE
 10
0.0
 20
0.0
 30
0.0
  9
$PLIMCHECK
 70
     0
  9
$PEXTMIN
 10
0.0
 20
0.0
 30
0.0
  9
$PEXTMAX
 10
0.0
 20
0.0
 30
0.0
  9
$PLIMMIN
 10
0.0
 20
0.0
  9
$PLIMMAX
 10
12.0
 20
9.0
  9
$UNITMODE
 70
     0
  9
$VISRETAIN
 70
     1
  9
$PLINEGEN
 70
     0
  9
$PSLTSCALE
 70
     1
  9
$TREEDEPTH
 70
  3020
  9
$PICKSTYLE
 70
     1
  9
$CMLSTYLE
  2
STANDARD
  9
$CMLJUST
 70
     0
  9
$CMLSCALE
 40
1.0
  9
$PROXYGRAPHICS
 70
     1
  9
$MEASUREMENT
 70
     0
  0
ENDSEC
  0
SECTION
  2
CLASSES
  0
CLASS
  1
LWPOLYLINE
  2
AcDbPolyline
  3
"AutoCAD"
 90
        0
280
     0
281
     1
  0
CLASS
  1
IMAGE
  2
AcDbRasterImage
  3
ISM
 90
      127
280
     0
281
     1
  0
CLASS
  1
OLE2FRAME
  2
AcDbOle2Frame
  3
""
 90
        0
280
     0
281
     1
  0
CLASS
  1
HATCH
  2
AcDbHatch
  3
"ACAD_SEDONA"
 90
        0
280
     0
281
     1
  0
CLASS
  1
DICTIONARYVAR
  2
AcDbDictionaryVar
  3
"AutoCAD"
 90
        0
280
     0
281
     0
  0
CLASS
  1
RASTERVARIABLES
  2
AcDbRasterVariables
  3
ISM
 90
        0
280
     0
281
     0
  0
CLASS
  1
IMAGEDEF
  2
AcDbRasterImageDef
  3
ISM
 90
        0
280
     0
281
     0
  0
CLASS
  1
IMAGEDEF_REACTOR
  2
AcDbRasterImageDefReactor
  3
ISM
 90
        1
280
     0
281
     0
  0
CLASS
  1
IDBUFFER
  2
AcDbIdBuffer
  3
"Acad"
 90
        0
280
     0
281
     0
  0
CLASS
  1
SPATIAL_FILTER
  2
AcDbSpatialFilter
  3
"Acad"
 90
        0
280
     0
281
     0
  0
CLASS
  1
XRECORD
  2
AcDbXrecord
  3
"<Built In>"
 90
        0
280
     0
281
     0
  0
CLASS
  1
SORTENTSTABLE
  2
AcDbSortentsTable
  3
"AutoCAD"
 90
        0
280
     0
281
     0
  0
CLASS
  1
LAYER_INDEX
  2
AcDbLayerIndex
  3
"Acad"
 90
        0
280
     0
281
     0
  0
CLASS
  1
SPATIAL_INDEX
  2
AcDbSpatialIndex
  3
"Acad"
 90
        0
280
     0
281
     0
  0
CLASS
  1
OBJECT_PTR
  2
CAseDLPNTableRecord
  3
"ASE-LPNTableRecord"
 90
        1
280
     0
281
     0
  0
CLASS
  1
LAYOUT
  2
AcDbLayout
  3
"AutoCAD 2000"
 90
        1
280
     0
281
     0
  0
CLASS
  1
PLOTSETTINGS
  2
AcDbPlotSettings
  3
"AutoCAD 2000"
 90
        1
280
     0
281
     0
  0
CLASS
  1
ACDBDICTIONARYWDFLT
  2
AcDbDictionaryWithDefault
  3
"AutoCAD 2000"
 90
        1
280
     0
281
     0
  0
CLASS
  1
ACDBPLACEHOLDER
  2
AcDbPlaceHolder
  3
"AutoCAD 2000"
 90
        1
280
     0
281
     0
  0
CLASS
  1
VBA_PROJECT
  2
AcDbVbaProject
  3
"acadvba"
 90
        1
280
     0
281
     0
  0
CLASS
  1
WIPEOUT
  2
AcDbWipeout
  3
WipeOut|AutoCAD Express Tool|expresstools@autodesk.com
 90
      127
280
     0
281
     1
  0
CLASS
  1
WIPEOUTVARIABLES
  2
AcDbWipeoutVariables
  3
WipeOut|AutoCAD Express Tool|expresstools@autodesk.com
 90
        0
280
     0
281
     0
  0
CLASS
  1
RTEXT
  2
RText
  3
RText|AutoCAD Express Tool|expresstools@autodesk.com
 90
        0
280
     0
281
     1
  0
CLASS
  1
ARCALIGNEDTEXT
  2
AcDbArcAlignedText
  3
ATEXT|AutoCAD Express Tool|expresstools@autodesk.com
 90
        0
280
     0
281
     1
  0
ENDSEC
  0
SECTION
  2
TABLES
  0
TABLE
  2
VPORT
  5
8
100
AcDbSymbolTable
 70
     1
  0
VPORT
  5
25
100
AcDbSymbolTableRecord
100
AcDbViewportTableRecord
  2
*ACTIVE
 70
     0
 10
0.0
 20
0.0
 11
1.0
 21
1.0
 12
105.0
 22
148.5
 13
0.0
 23
0.0
 14
0.5
 24
0.5
 15
0.5
 25
0.5
 16
0.0
 26
0.0
 36
1.0
 17
0.0
 27
0.0
 37
0.0
 40
297.0
 41
0.707071
 42
50.0
 43
0.0
 44
0.0
 50
0.0
 51
0.0
 71
     0
 72
   100
 73
     1
 74
     1
 75
     0
 76
     0
 77
     0
 78
     0
  0
ENDTAB
  0
TABLE
  2
LTYPE
  5
5
100
AcDbSymbolTable
 70
     4
  0
LTYPE
  5
12
100
AcDbSymbolTableRecord
100
AcDbLinetypeTableRecord
  2
BYBLOCK
 70
    64
  3

 72
    65
 73
     0
 40
0.0
  0
LTYPE
  5
13
100
AcDbSymbolTableRecord
100
AcDbLinetypeTableRecord
  2
BYLAYER
 70
    64
  3

 72
    65
 73
     0
 40
0.0
  0
LTYPE
  5
14
100
AcDbSymbolTableRecord
100
AcDbLinetypeTableRecord
  2
CONTINUOUS
 70
     0
  3
Solid line
 72
    65
 73
     0
 40
0.0
  0
LTYPE
  5
1D8
100
AcDbSymbolTableRecord
100
AcDbLinetypeTableRecord
  2
DASHED
 70
     0
  3
DASHED
 72
    65
 73
     2
 40
0.75
 49
0.5
 74
     0
 49
-0.25
 74
     0
  0
ENDTAB
  0
TABLE
  2
LAYER
  5
2
100
AcDbSymbolTable
 70
     4
  0
LAYER
  5
E
100
AcDbSymbolTableRecord
100
AcDbLayerTableRecord
  2
0
 70
     0
 62
     7
  6
CONTINUOUS
  0
LAYER
  5
33
100
AcDbSymbolTableRecord
100
AcDbLayerTableRecord
  2
\U+0411\U+043B\U+043E\U+043A-\U+0441\U+0445\U+0435\U+043C\U+0430
 70
     0
 62
     7
  6
CONTINUOUS
  0
LAYER
  5
C7
100
AcDbSymbolTableRecord
100
AcDbLayerTableRecord
  2
ELECTRICAL
 70
     0
 62
     7
  6
CONTINUOUS
  0
LAYER
  5
DA
100
AcDbSymbolTableRecord
100
AcDbLayerTableRecord
  2
\U+0421\U+043E\U+0435\U+0434\U+0438\U+043D\U+0438\U+0442\U+0435\U+043B\U+044C\U+043D\U+0430\U+044F_\U+043B\U+0438\U+043D\U+0438\U+044F
 70
     0
 62
     7
  6
CONTINUOUS
  0
ENDTAB
  0
TABLE
  2
STYLE
  5
3
100
AcDbSymbolTable
 70
     1
  0
STYLE
  5
F
100
AcDbSymbolTableRecord
100
AcDbTextStyleTableRecord
  2
STANDARD
 70
     0
 40
0.0
 41
1.0
 50
0.0
 71
     0
 42
0.2
  3
txt.shx
  4

  0
ENDTAB
  0
TABLE
  2
VIEW
  5
6
100
AcDbSymbolTable
 70
     0
  0
ENDTAB
  0
TABLE
  2
UCS
  5
7
100
AcDbSymbolTable
 70
     0
  0
ENDTAB
  0
TABLE
  2
APPID
  5
9
100
AcDbSymbolTable
 70
     1
  0
APPID
  5
10
100
AcDbSymbolTableRecord
100
AcDbRegAppTableRecord
  2
ACAD
 70
     0
  0
ENDTAB
  0
TABLE
  2
DIMSTYLE
  5
A
100
AcDbSymbolTable
 70
     1
  0
DIMSTYLE
105
1D
100
AcDbSymbolTableRecord
100
AcDbDimStyleTableRecord
  2
STANDARD
 70
     0
  3

  4

  5

  6

  7

 40
1.0
 41
0.18
 42
0.0625
 43
0.38
 44
0.18
 45
0.0
 46
0.0
 47
0.0
 48
0.0
 71
     0
 72
     0
 73
     1
 74
     1
 75
     0
 76
     0
 77
     0
 78
     0
140
0.18
141
0.09
142
0.0
143
25.4
144
1.0
145
0.0
146
1.0
147
0.09
170
     0
171
     2
172
     0
173
     0
174
     0
175
     0
176
     0
177
     0
178
     0
270
     2
271
     4
272
     4
273
     2
274
     2
275
     0
280
     0
281
     0
282
     0
283
     1
284
     0
285
     0
286
     0
287
     3
288
     0
340
F
  0
ENDTAB
  0
TABLE
  2
BLOCK_RECORD
  5
1
100
AcDbSymbolTable
 70
     4
  0
BLOCK_RECORD
  5
18
100
AcDbSymbolTableRecord
100
AcDbBlockTableRecord
  2
*MODEL_SPACE
  0
BLOCK_RECORD
  5
15
100
AcDbSymbolTableRecord
100
AcDbBlockTableRecord
  2
*PAPER_SPACE
  0
BLOCK_RECORD
  5
1DD
100
AcDbSymbolTableRecord
100
AcDbBlockTableRecord
  2
\U+041F\U+0440\U+043E\U+0446\U+0435\U+0441\U+0441
  0
BLOCK_RECORD
  5
1E1
100
AcDbSymbolTableRecord
100
AcDbBlockTableRecord
  2
INDUCTOR_38
  0
BLOCK_RECORD
  5
1ED
100
AcDbSymbolTableRecord
100
AcDbBlockTableRecord
  2
CIRCLE
  0
BLOCK_RECORD
  5
1F1
100
AcDbSymbolTableRecord
100
AcDbBlockTableRecord
  2
\U+0414\U+0438\U+043D\U+0430\U+043C\U+0438\U+0447\U+0435\U+0441\U+043A\U+0430\U+044F_\U+0441\U+043E\U+0435\U+0434\U+0438\U+043D\U+0438\U+0442\U+0435\U+043B\U+044C\U+043D\U+0430\U+044F_\U+043B\U+0438\U+043D
  0
ENDTAB
  0
ENDSEC
  0
SECTION
  2
BLOCKS
  0
BLOCK
  5
19
100
AcDbEntity
  8
0
100
AcDbBlockBegin
  2
*MODEL_SPACE
 70
     0
 10
0.0
 20
0.0
 30
0.0
  3
*MODEL_SPACE
  1

  0
ENDBLK
  5
1A
100
AcDbEntity
  8
0
100
AcDbBlockEnd
  0
BLOCK
  5
16
100
AcDbEntity
 67
     1
  8
0
100
AcDbBlockBegin
  2
*PAPER_SPACE
 70
     0
 10
0.0
 20
0.0
 30
0.0
  3
*PAPER_SPACE
  1

  0
ENDBLK
  5
17
100
AcDbEntity
 67
     1
  8
0
100
AcDbBlockEnd
  0
BLOCK
  5
1DE
100
AcDbEntity
  8
0
100
AcDbBlockBegin
  2
\U+041F\U+0440\U+043E\U+0446\U+0435\U+0441\U+0441
 70
     0
 10
0.0
 20
0.0
 30
0.0
  3
\U+041F\U+0440\U+043E\U+0446\U+0435\U+0441\U+0441
  1

  0
LWPOLYLINE
  5
1DF
100
AcDbEntity
  8
\U+0411\U+043B\U+043E\U+043A-\U+0441\U+0445\U+0435\U+043C\U+0430
  6
CONTINUOUS
100
AcDbPolyline
 90
        4
 70
     1
 10
37.5
 20
42.5
 10
62.5
 20
42.5
 10
62.5
 20
57.5
 10
37.5
 20
57.5
  0
ENDBLK
  5
1E0
100
AcDbEntity
  8
0
100
AcDbBlockEnd
  0
BLOCK
  5
1E2
100
AcDbEntity
  8
0
100
AcDbBlockBegin
  2
INDUCTOR_38
 70
     2
 10
0.0
 20
0.0
 30
0.0
  3
INDUCTOR_38
  1

  0
ATTDEF
  5
1E3
100
AcDbEntity
  8
0
100
AcDbText
 10
20.0
 20
33.75
 30
0.0
 40
0.2
  1
Air
100
AcDbAttributeDefinition
  3
Core
  2
CORE
 70
     0
  0
ATTDEF
  5
1E4
100
AcDbEntity
  8
0
100
AcDbText
 10
20.0
 20
33.75
 30
0.0
 40
0.2
  1
Fixed
100
AcDbAttributeDefinition
  3
Adjustability
  2
ADJUSTABILITY
 70
     0
  0
ATTDEF
  5
1E5
100
AcDbEntity
  8
0
100
AcDbText
 10
20.0
 20
33.75
 30
0.0
 40
0.2
  1
0
100
AcDbAttributeDefinition
  3
Taps
  2
TAPS
 70
     0
  0
ELLIPSE
  5
1E6
100
AcDbEntity
  8
\U+0411\U+043B\U+043E\U+043A-\U+0441\U+0445\U+0435\U+043C\U+0430
  6
CONTINUOUS
100
AcDbEllipse
 10
16.25
 20
33.057648
 30
0.0
 11
0.0
 21
-1.4423520191846331
 31
0.0
210
0.0
220
0.0
230
1.0
 40
0.867333
 41
1.5308176396716056
 42
4.7523676675079951
  0
ELLIPSE
  5
1E7
100
AcDbEntity
  8
\U+0411\U+043B\U+043E\U+043A-\U+0441\U+0445\U+0435\U+043C\U+0430
  6
CONTINUOUS
100
AcDbEllipse
 10
18.75
 20
33.057648
 30
0.0
 11
0.0
 21
-1.4423520191846331
 31
0.0
210
0.0
220
0.0
230
1.0
 40
0.867333
 41
1.5308176396716058
 42
4.7523676675079951
  0
ELLIPSE
  5
1E8
100
AcDbEntity
  8
\U+0411\U+043B\U+043E\U+043A-\U+0441\U+0445\U+0435\U+043C\U+0430
  6
CONTINUOUS
100
AcDbEllipse
 10
21.25
 20
33.057648
 30
0.0
 11
0.0
 21
-1.4423520191846331
 31
0.0
210
0.0
220
0.0
230
1.0
 40
0.867333
 41
1.5308176396716058
 42
4.7523676675079951
  0
ELLIPSE
  5
1E9
100
AcDbEntity
  8
\U+0411\U+043B\U+043E\U+043A-\U+0441\U+0445\U+0435\U+043C\U+0430
  6
CONTINUOUS
100
AcDbEllipse
 10
23.75
 20
33.057648
 30
0.0
 11
0.0
 21
-1.4423520191846357
 31
0.0
210
0.0
220
0.0
230
1.0
 40
0.867333
 41
1.5308176396716062
 42
4.7523676675079942
  0
LINE
  5
1EA
100
AcDbEntity
  8
\U+0411\U+043B\U+043E\U+043A-\U+0441\U+0445\U+0435\U+043C\U+0430
  6
CONTINUOUS
100
AcDbLine
 10
15.0
 20
33.0
 30
0.0
 11
15.0
 21
30.0
 31
0.0
  0
LINE
  5
1EB
100
AcDbEntity
  8
\U+0411\U+043B\U+043E\U+043A-\U+0441\U+0445\U+0435\U+043C\U+0430
  6
CONTINUOUS
100
AcDbLine
 10
25.0
 20
33.0
 30
0.0
 11
25.0
 21
30.0
 31
0.0
  0
ENDBLK
  5
1EC
100
AcDbEntity
  8
0
100
AcDbBlockEnd
  0
BLOCK
  5
1EE
100
AcDbEntity
  8
0
100
AcDbBlockBegin
  2
CIRCLE
 70
     0
 10
0.0
 20
0.0
 30
0.0
  3
CIRCLE
  1

  0
LWPOLYLINE
  5
1EF
100
AcDbEntity
  8
0
  6
CONTINUOUS
 62
     7
100
AcDbPolyline
 90
        2
 70
     1
 10
30.0
 20
50.0
 42
-1.0
 10
70.0
 20
50.0
 42
-1.0
  0
ENDBLK
  5
1F0
100
AcDbEntity
  8
0
100
AcDbBlockEnd
  0
BLOCK
  5
1F2
100
AcDbEntity
  8
0
100
AcDbBlockBegin
  2
\U+0414\U+0438\U+043D\U+0430\U+043C\U+0438\U+0447\U+0435\U+0441\U+043A\U+0430\U+044F_\U+0441\U+043E\U+0435\U+0434\U+0438\U+043D\U+0438\U+0442\U+0435\U+043B\U+044C\U+043D\U+0430\U+044F_\U+043B\U+0438\U+043D
 70
     0
 10
0.0
 20
0.0
 30
0.0
  3
\U+0414\U+0438\U+043D\U+0430\U+043C\U+0438\U+0447\U+0435\U+0441\U+043A\U+0430\U+044F_\U+0441\U+043E\U+0435\U+0434\U+0438\U+043D\U+0438\U+0442\U+0435\U+043B\U+044C\U+043D\U+0430\U+044F_\U+043B\U+0438\U+043D
  1

  0
LWPOLYLINE
  5
1F3
100
AcDbEntity
  8
\U+0411\U+043B\U+043E\U+043A-\U+0441\U+0445\U+0435\U+043C\U+0430
  6
CONTINUOUS
100
AcDbPolyline
 90
        3
 70
     0
 10
30.0
 20
60.0
 10
30.0
 20
30.0
 10
60.0
 20
30.0
  0
ENDBLK
  5
1F4
100
AcDbEntity
  8
0
100
AcDbBlockEnd
  0
ENDSEC
  0
SECTION
  2
ENTITIES
  0
LWPOLYLINE
  5
32
100
AcDbEntity
  8
0
  6
CONTINUOUS
 62
     7
100
AcDbPolyline
 90
        2
 70
     1
 10
127.729205
 20
221.362848
 42
1.0
 10
123.396491
 20
221.362848
 42
1.0
  0
LWPOLYLINE
  5
34
100
AcDbEntity
  8
\U+0411\U+043B\U+043E\U+043A-\U+0441\U+0445\U+0435\U+043C\U+0430
  6
CONTINUOUS
100
AcDbPolyline
 90
        4
 70
     1
 10
47.175385
 20
248.615929
 10
73.731627
 20
248.615929
 10
73.731627
 20
251.952108
 10
47.175385
 20
251.952108
  0
MTEXT
  5
35
100
AcDbEntity
  8
\U+0411\U+043B\U+043E\U+043A-\U+0441\U+0445\U+0435\U+043C\U+0430
100
AcDbMText
 10
60.453506
 20
250.284018
 30
0.0
 40
2.054647
 41
26.556242
 71
     5
 72
     5
  1
\C7;\fArial|b0|i0|;\H2.0546471100301;\U+0426\U+0415\U+041F\U+042C
  0
LWPOLYLINE
  5
36
100
AcDbEntity
  8
\U+0411\U+043B\U+043E\U+043A-\U+0441\U+0445\U+0435\U+043C\U+0430
  6
CONTINUOUS
100
AcDbPolyline
 90
        4
 70
     1
 10
47.175385
 20
245.33191
 10
73.731627
 20
245.33191
 10
73.731627
 20
248.66809
 10
47.175385
 20
248.66809
  0
MTEXT
  5
37
100
AcDbEntity
  8
\U+0411\U+043B\U+043E\U+043A-\U+0441\U+0445\U+0435\U+043C\U+0430
100
AcDbMText
 10
60.453506
 20
247.0
 30
0.0
 40
2.054647
 41
26.556242
 71
     5
 72
     5
  1
\C7;\fArial|b0|i0|;\H2.0546471100301;3.3\U+0412(\U+0440\U+0435\U+0437.1 \U+043A\U+0430\U+043D\U+0430\U+043B)
  0
LWPOLYLINE
  5
38
100
AcDbEntity
  8
\U+0411\U+043B\U+043E\U+043A-\U+0441\U+0445\U+0435\U+043C\U+0430
  6
CONTINUOUS
100
AcDbPolyline
 90
        4
 70
     1
 10
47.175385
 20
235.35605
 10
73.731627
 20
235.35605
 10
73.731627
 20
238.692229
 10
47.175385
 20
238.692229
  0
MTEXT
  5
39
100
AcDbEntity
  8
\U+0411\U+043B\U+043E\U+043A-\U+0441\U+0445\U+0435\U+043C\U+0430
100
AcDbMText
 10
60.453506
 20
237.024139
 30
0.0
 40
2.054647
 41
26.556242
 71
     5
 72
     5
  1
\C7;\fArial|b0|i0|;\H2.0546471100301;U\U+0432\U+044B\U+0445(\U+0442\U+0430\U+0445.1\U+043A\U+0430\U+043D\U+0430\U+043B)
  0
LWPOLYLINE
  5
3A
100
AcDbEntity
  8
\U+0411\U+043B\U+043E\U+043A-\U+0441\U+0445\U+0435\U+043C\U+0430
  6
CONTINUOUS
100
AcDbPolyline
 90
        4
 70
     1
 10
47.175385
 20
232.019871
 10
73.731627
 20
232.019871
 10
73.731627
 20
235.35605
 10
47.175385
 20
235.35605
  0
MTEXT
  5
3B
100
AcDbEntity
  8
\U+0411\U+043B\U+043E\U+043A-\U+0441\U+0445\U+0435\U+043C\U+0430
100
AcDbMText
 10
60.453506
 20
233.68796
 30
0.0
 40
2.054647
 41
26.556242
 71
     5
 72
     5
  1
\C7;\fArial|b0|i0|;\H2.0546471100301;U\U+0432\U+044B\U+0445(\U+0442\U+0430\U+0445.1\U+043A\U+0430\U+043D\U+0430\U+043B)
  0
LWPOLYLINE
  5
3C
100
AcDbEntity
  8
\U+0411\U+043B\U+043E\U+043A-\U+0441\U+0445\U+0435\U+043C\U+0430
  6
CONTINUOUS
100
AcDbPolyline
 90
        4
 70
     1
 10
47.175385
 20
228.683692
 10
73.731627
 20
228.683692
 10
73.731627
 20
232.019871
 10
47.175385
 20
232.019871
  0
MTEXT
  5
3D
100
AcDbEntity
  8
\U+0411\U+043B\U+043E\U+043A-\U+0441\U+0445\U+0435\U+043C\U+0430
100
AcDbMText
 10
60.453506
 20
230.351781
 30
0.0
 40
2.054647
 41
26.556242
 71
     5
 72
     5
  1
\C7;\fArial|b0|i0|;\H2.0546471100301;3.3\U+0412(\U+0440\U+0435\U+0437.2 \U+043A\U+0430\U+043D\U+0430\U+043B)
  0
LWPOLYLINE
  5
3E
100
AcDbEntity
  8
\U+0411\U+043B\U+043E\U+043A-\U+0441\U+0445\U+0435\U+043C\U+0430
  6
CONTINUOUS
100
AcDbPolyline
 90
        4
 70
     1
 10
47.175385
 20
241.93191
 10
73.731627
 20
241.93191
 10
73.731627
 20
245.26809
 10
47.175385
 20
245.26809
  0
MTEXT
  5
3F
100
AcDbEntity
  8
\U+0411\U+043B\U+043E\U+043A-\U+0441\U+0445\U+0435\U+043C\U+0430
100
AcDbMText
 10
60.453506
 20
243.6
 30
0.0
 40
2.054647
 41
26.556242
 71
     5
 72
     5
  1
\C7;\fArial|b0|i0|;\H2.0546471100301;GND(\U+0440\U+0435\U+0437.1 \U+043A\U+0430\U+043D\U+0430\U+043B)
  0
LWPOLYLINE
  5
40
100
AcDbEntity
  8
\U+0411\U+043B\U+043E\U+043A-\U+0441\U+0445\U+0435\U+043C\U+0430
  6
CONTINUOUS
100
AcDbPolyline
 90
        4
 70
     1
 10
47.175385
 20
238.6
 10
73.731627
 20
238.6
 10
73.731627
 20
241.936179
 10
47.175385
 20
241.936179
  0
MTEXT
  5
41
100
AcDbEntity
  8
\U+0411\U+043B\U+043E\U+043A-\U+0441\U+0445\U+0435\U+043C\U+0430
100
AcDbMText
 10
60.453506
 20
240.26809
 30
0.0
 40
2.054647
 41
26.556242
 71
     5
 72
     5
  1
\C7;\fArial|b0|i0|;\H2.0546471100301;\U+041E\U+0421(\U+0440\U+0435\U+0437.1 \U+043A\U+0430\U+043D\U+0430\U+043B)
  0
LWPOLYLINE
  5
42
102
{ACAD_REACTORS
330
1C6
102
}
100
AcDbEntity
  8
\U+0411\U+043B\U+043E\U+043A-\U+0441\U+0445\U+0435\U+043C\U+0430
  6
CONTINUOUS
100
AcDbPolyline
 90
        4
 70
     1
 10
47.175385
 20
215.43636
 10
73.731627
 20
215.43636
 10
73.731627
 20
218.772539
 10
47.175385
 20
218.772539
  0
MTEXT
  5
43
100
AcDbEntity
  8
\U+0411\U+043B\U+043E\U+043A-\U+0441\U+0445\U+0435\U+043C\U+0430
100
AcDbMText
 10
60.453506
 20
217.104449
 30
0.0
 40
2.054647
 41
26.556242
 71
     5
 72
     5
  1
\C7;\fArial|b0|i0|;\H2.0546471100301;\U+041E\U+0421(\U+0440\U+0435\U+0437.2 \U+043A\U+0430\U+043D\U+0430\U+043B)
  0
LWPOLYLINE
  5
44
102
{ACAD_REACTORS
330
1C6
102
}
100
AcDbEntity
  8
\U+0411\U+043B\U+043E\U+043A-\U+0441\U+0445\U+0435\U+043C\U+0430
  6
CONTINUOUS
100
AcDbPolyline
 90
        4
 70
     1
 10
47.175385
 20
212.100181
 10
73.731627
 20
212.100181
 10
73.731627
 20
215.43636
 10
47.175385
 20
215.43636
  0
MTEXT
  5
45
100
AcDbEntity
  8
\U+0411\U+043B\U+043E\U+043A-\U+0441\U+0445\U+0435\U+043C\U+0430
100
AcDbMText
 10
60.453506
 20
213.76827
 30
0.0
 40
2.054647
 41
26.556242
 71
     5
 72
     5
  1
\C7;\fArial|b0|i0|;\H2.0546471100301;U\U+0432\U+044B\U+0445(\U+0442\U+0430\U+0445.2\U+043A\U+0430\U+043D\U+0430\U+043B)
  0
LWPOLYLINE
  5
46
102
{ACAD_REACTORS
330
1C6
102
}
100
AcDbEntity
  8
\U+0411\U+043B\U+043E\U+043A-\U+0441\U+0445\U+0435\U+043C\U+0430
  6
CONTINUOUS
100
AcDbPolyline
 90
        4
 70
     1
 10
47.175385
 20
225.254889
 10
73.731627
 20
225.254889
 10
73.731627
 20
228.591068
 10
47.175385
 20
228.591068
  0
MTEXT
  5
47
100
AcDbEntity
  8
\U+0411\U+043B\U+043E\U+043A-\U+0441\U+0445\U+0435\U+043C\U+0430
100
AcDbMText
 10
60.453506
 20
226.922978
 30
0.0
 40
2.054647
 41
26.556242
 71
     5
 72
     5
  1
\C7;\fArial|b0|i0|;\H2.0546471100301;GND(\U+0440\U+0435\U+0437.2 \U+043A\U+0430\U+043D\U+0430\U+043B)
  0
LWPOLYLINE
  5
48
100
AcDbEntity
  8
\U+0411\U+043B\U+043E\U+043A-\U+0441\U+0445\U+0435\U+043C\U+0430
  6
CONTINUOUS
100
AcDbPolyline
 90
        4
 70
     1
 10
47.175385
 20
221.91871
 10
73.731627
 20
221.91871
 10
73.731627
 20
225.254889
 10
47.175385
 20
225.254889
  0
MTEXT
  5
49
100
AcDbEntity
  8
\U+0411\U+043B\U+043E\U+043A-\U+0441\U+0445\U+0435\U+043C\U+0430
100
AcDbMText
 10
60.453506
 20
223.586799
 30
0.0
 40
2.054647
 41
26.556242
 71
     5
 72
     5
  1
\C7;\fArial|b0|i0|;\H2.0546471100301;U\U+0443\U+043F\U+0440\U+0430\U+0432\U+043B(1 \U+043A\U+0430\U+043D\U+0430\U+043B)
  0
LWPOLYLINE
  5
4A
102
{ACAD_REACTORS
330
1C6
102
}
100
AcDbEntity
  8
\U+0411\U+043B\U+043E\U+043A-\U+0441\U+0445\U+0435\U+043C\U+0430
  6
CONTINUOUS
100
AcDbPolyline
 90
        4
 70
     1
 10
47.175385
 20
218.710538
 10
73.731627
 20
218.710538
 10
73.731627
 20
222.046717
 10
47.175385
 20
222.046717
  0
MTEXT
  5
4B
100
AcDbEntity
  8
\U+0411\U+043B\U+043E\U+043A-\U+0441\U+0445\U+0435\U+043C\U+0430
100
AcDbMText
 10
60.453506
 20
220.378627
 30
0.0
 40
2.054647
 41
26.556242
 71
     5
 72
     5
  1
\C7;\fArial|b0|i0|;\H2.0546471100301;U\U+0443\U+043F\U+0440\U+0430\U+0432\U+043B(1 \U+043A\U+0430\U+043D\U+0430\U+043B)
  0
LWPOLYLINE
  5
4C
102
{ACAD_REACTORS
330
1C6
102
}
100
AcDbEntity
  8
\U+0411\U+043B\U+043E\U+043A-\U+0441\U+0445\U+0435\U+043C\U+0430
  6
CONTINUOUS
100
AcDbPolyline
 90
        4
 70
     1
 10
47.186135
 20
202.31473
 10
73.742377
 20
202.31473
 10
73.742377
 20
205.650909
 10
47.186135
 20
205.650909
  0
MTEXT
  5
4D
100
AcDbEntity
  8
\U+0411\U+043B\U+043E\U+043A-\U+0441\U+0445\U+0435\U+043C\U+0430
100
AcDbMText
 10
60.464256
 20
203.982819
 30
0.0
 40
2.054647
 41
26.556242
 71
     5
 72
     5
  1
\C7;\fArial|b0|i0|;\H2.0546471100301;U\U+0443\U+043F\U+0440\U+0430\U+0432\U+043B(2 \U+043A\U+0430\U+043D\U+0430\U+043B)
  0
LWPOLYLINE
  5
4E
100
AcDbEntity
  8
\U+0411\U+043B\U+043E\U+043A-\U+0441\U+0445\U+0435\U+043C\U+0430
  6
CONTINUOUS
100
AcDbPolyline
 90
        4
 70
     1
 10
47.186135
 20
198.978551
 10
73.742377
 20
198.978551
 10
73.742377
 20
202.31473
 10
47.186135
 20
202.31473
  0
MTEXT
  5
4F
100
AcDbEntity
  8
\U+0411\U+043B\U+043E\U+043A-\U+0441\U+0445\U+0435\U+043C\U+0430
100
AcDbMText
 10
60.464256
 20
200.64664
 30
0.0
 40
2.054647
 41
26.556242
 71
     5
 72
     5
  1
\C7;\fArial|b0|i0|;\H2.0546471100301;\U+043D\U+0435\U+0442
  0
LWPOLYLINE
  5
50
100
AcDbEntity
  8
\U+0411\U+043B\U+043E\U+043A-\U+0441\U+0445\U+0435\U+043C\U+0430
  6
CONTINUOUS
100
AcDbPolyline
 90
        4
 70
     1
 10
47.186135
 20
208.79708
 10
73.742377
 20
208.79708
 10
73.742377
 20
212.133259
 10
47.186135
 20
212.133259
  0
MTEXT
  5
51
100
AcDbEntity
  8
\U+0411\U+043B\U+043E\U+043A-\U+0441\U+0445\U+0435\U+043C\U+0430
100
AcDbMText
 10
60.464256
 20
210.465169
 30
0.0
 40
2.054647
 41
26.556242
 71
     5
 72
     5
  1
\C7;\fArial|b0|i0|;\H2.0546471100301;U\U+0432\U+044B\U+0445(\U+0442\U+0430\U+0445.2\U+043A\U+0430\U+043D\U+0430\U+043B)
  0
LWPOLYLINE
  5
52
100
AcDbEntity
  8
\U+0411\U+043B\U+043E\U+043A-\U+0441\U+0445\U+0435\U+043C\U+0430
  6
CONTINUOUS
100
AcDbPolyline
 90
        4
 70
     1
 10
47.186135
 20
205.588908
 10
73.742377
 20
205.588908
 10
73.742377
 20
208.925087
 10
47.186135
 20
208.925087
  0
MTEXT
  5
53
100
AcDbEntity
  8
\U+0411\U+043B\U+043E\U+043A-\U+0441\U+0445\U+0435\U+043C\U+0430
100
AcDbMText
 10
60.464256
 20
207.256997
 30
0.0
 40
2.054647
 41
26.556242
 71
     5
 72
     5
  1
\C7;\fArial|b0|i0|;\H2.0546471100301;U\U+0443\U+043F\U+0440\U+0430\U+0432\U+043B(2 \U+043A\U+0430\U+043D\U+0430\U+043B)
  0
LWPOLYLINE
  5
54
100
AcDbEntity
  8
\U+0411\U+043B\U+043E\U+043A-\U+0441\U+0445\U+0435\U+043C\U+0430
  6
CONTINUOUS
100
AcDbPolyline
 90
        4
 70
     1
 10
47.175385
 20
195.73191
 10
73.731627
 20
195.73191
 10
73.731627
 20
199.06809
 10
47.175385
 20
199.06809
  0
MTEXT
  5
55
100
AcDbEntity
  8
\U+0411\U+043B\U+043E\U+043A-\U+0441\U+0445\U+0435\U+043C\U+0430
100
AcDbMText
 10
60.453506
 20
197.4
 30
0.0
 40
2.054647
 41
26.556242
 71
     5
 72
     5
  1
\C7;\fArial|b0|i0|;\H2.0546471100301;\U+043D\U+0435\U+0442
  0
LWPOLYLINE
  5
56
100
AcDbEntity
  8
\U+0411\U+043B\U+043E\U+043A-\U+0441\U+0445\U+0435\U+043C\U+0430
  6
CONTINUOUS
100
AcDbPolyline
 90
        4
 70
     1
 10
47.175385
 20
185.72859
 10
73.731627
 20
185.72859
 10
73.731627
 20
189.064769
 10
47.175385
 20
189.064769
  0
MTEXT
  5
57
100
AcDbEntity
  8
\U+0411\U+043B\U+043E\U+043A-\U+0441\U+0445\U+0435\U+043C\U+0430
100
AcDbMText
 10
60.453506
 20
187.396679
 30
0.0
 40
2.054647
 41
26.556242
 71
     5
 72
     5
  1
\C7;\fArial|b0|i0|;\H2.0546471100301;\U+043D\U+0435\U+0442
  0
LWPOLYLINE
  5
58
100
AcDbEntity
  8
\U+0411\U+043B\U+043E\U+043A-\U+0441\U+0445\U+0435\U+043C\U+0430
  6
CONTINUOUS
100
AcDbPolyline
 90
        4
 70
     1
 10
47.175385
 20
182.392411
 10
73.731627
 20
182.392411
 10
73.731627
 20
185.72859
 10
47.175385
 20
185.72859
  0
MTEXT
  5
59
100
AcDbEntity
  8
\U+0411\U+043B\U+043E\U+043A-\U+0441\U+0445\U+0435\U+043C\U+0430
100
AcDbMText
 10
60.453506
 20
184.0605
 30
0.0
 40
2.054647
 41
26.556242
 71
     5
 72
     5
  1
\C7;\fArial|b0|i0|;\H2.0546471100301;\U+043D\U+0435\U+0442
  0
LWPOLYLINE
  5
5A
100
AcDbEntity
  8
\U+0411\U+043B\U+043E\U+043A-\U+0441\U+0445\U+0435\U+043C\U+0430
  6
CONTINUOUS
100
AcDbPolyline
 90
        4
 70
     1
 10
47.175385
 20
179.056232
 10
73.731627
 20
179.056232
 10
73.731627
 20
182.392411
 10
47.175385
 20
182.392411
  0
MTEXT
  5
5B
100
AcDbEntity
  8
\U+0411\U+043B\U+043E\U+043A-\U+0441\U+0445\U+0435\U+043C\U+0430
100
AcDbMText
 10
60.453506
 20
180.724321
 30
0.0
 40
2.054647
 41
26.556242
 71
     5
 72
     5
  1
\C7;\fArial|b0|i0|;\H2.0546471100301;\U+043D\U+0435\U+0442
  0
LWPOLYLINE
  5
5C
100
AcDbEntity
  8
\U+0411\U+043B\U+043E\U+043A-\U+0441\U+0445\U+0435\U+043C\U+0430
  6
CONTINUOUS
100
AcDbPolyline
 90
        4
 70
     1
 10
47.175385
 20
192.4
 10
73.731627
 20
192.4
 10
73.731627
 20
195.736179
 10
47.175385
 20
195.736179
  0
MTEXT
  5
5D
100
AcDbEntity
  8
\U+0411\U+043B\U+043E\U+043A-\U+0441\U+0445\U+0435\U+043C\U+0430
100
AcDbMText
 10
60.453506
 20
194.06809
 30
0.0
 40
2.054647
 41
26.556242
 71
     5
 72
     5
  1
\C7;\fArial|b0|i0|;\H2.0546471100301;\U+043D\U+0435\U+0442
  0
LWPOLYLINE
  5
5E
100
AcDbEntity
  8
\U+0411\U+043B\U+043E\U+043A-\U+0441\U+0445\U+0435\U+043C\U+0430
  6
CONTINUOUS
100
AcDbPolyline
 90
        4
 70
     1
 10
47.175385
 20
189.063821
 10
73.731627
 20
189.063821
 10
73.731627
 20
192.4
 10
47.175385
 20
192.4
  0
MTEXT
  5
5F
100
AcDbEntity
  8
\U+0411\U+043B\U+043E\U+043A-\U+0441\U+0445\U+0435\U+043C\U+0430
100
AcDbMText
 10
60.453506
 20
190.73191
 30
0.0
 40
2.054647
 41
26.556242
 71
     5
 72
     5
  1
\C7;\fArial|b0|i0|;\H2.0546471100301;\U+043D\U+0435\U+0442
  0
LWPOLYLINE
  5
60
102
{ACAD_REACTORS
330
1C6
102
}
100
AcDbEntity
  8
\U+0411\U+043B\U+043E\U+043A-\U+0441\U+0445\U+0435\U+043C\U+0430
  6
CONTINUOUS
100
AcDbPolyline
 90
        4
 70
     1
 10
47.175385
 20
165.8089
 10
73.731627
 20
165.8089
 10
73.731627
 20
169.145079
 10
47.175385
 20
169.145079
  0
MTEXT
  5
61
100
AcDbEntity
  8
\U+0411\U+043B\U+043E\U+043A-\U+0441\U+0445\U+0435\U+043C\U+0430
100
AcDbMText
 10
60.453506
 20
167.47699
 30
0.0
 40
2.054647
 41
26.556242
 71
     5
 72
     5
  1
\C7;\fArial|b0|i0|;\H2.0546471100301;\U+041F\U+043E\U+0434\U+0441\U+0432\U+0435\U+0442
  0
LWPOLYLINE
  5
62
102
{ACAD_REACTORS
330
1C6
102
}
100
AcDbEntity
  8
\U+0411\U+043B\U+043E\U+043A-\U+0441\U+0445\U+0435\U+043C\U+0430
  6
CONTINUOUS
100
AcDbPolyline
 90
        4
 70
     1
 10
47.175385
 20
162.472721
 10
73.731627
 20
162.472721
 10
73.731627
 20
165.8089
 10
47.175385
 20
165.8089
  0
MTEXT
  5
63
100
AcDbEntity
  8
\U+0411\U+043B\U+043E\U+043A-\U+0441\U+0445\U+0435\U+043C\U+0430
100
AcDbMText
 10
60.453506
 20
164.140811
 30
0.0
 40
2.054647
 41
26.556242
 71
     5
 72
     5
  1
\C7;\fArial|b0|i0|;\H2.0546471100301;\U+041F\U+043E\U+0434\U+0441\U+0432\U+0435\U+0442
  0
LWPOLYLINE
  5
64
102
{ACAD_REACTORS
330
1C6
102
}
100
AcDbEntity
  8
\U+0411\U+043B\U+043E\U+043A-\U+0441\U+0445\U+0435\U+043C\U+0430
  6
CONTINUOUS
100
AcDbPolyline
 90
        4
 70
     1
 10
47.175385
 20
175.663821
 10
73.731627
 20
175.663821
 10
73.731627
 20
179.0
 10
47.175385
 20
179.0
  0
MTEXT
  5
65
100
AcDbEntity
  8
\U+0411\U+043B\U+043E\U+043A-\U+0441\U+0445\U+0435\U+043C\U+0430
100
AcDbMText
 10
60.453506
 20
177.33191
 30
0.0
 40
2.054647
 41
26.556242
 71
     5
 72
     5
  1
\C7;\fArial|b0|i0|;\H2.0546471100301;U\U+0432\U+043E\U+0437\U+0431(\U+041E\U+0431\U+0449.)
  0
LWPOLYLINE
  5
66
100
AcDbEntity
  8
\U+0411\U+043B\U+043E\U+043A-\U+0441\U+0445\U+0435\U+043C\U+0430
  6
CONTINUOUS
100
AcDbPolyline
 90
        4
 70
     1
 10
47.175385
 20
172.29125
 10
73.731627
 20
172.29125
 10
73.731627
 20
175.627429
 10
47.175385
 20
175.627429
  0
MTEXT
  5
67
100
AcDbEntity
  8
\U+0411\U+043B\U+043E\U+043A-\U+0441\U+0445\U+0435\U+043C\U+0430
100
AcDbMText
 10
60.453506
 20
173.95934
 30
0.0
 40
2.054647
 41
26.556242
 71
     5
 72
     5
  1
\C7;\fArial|b0|i0|;\H2.0546471100301;U\U+0432\U+043E\U+0437\U+0431(1)
  0
LWPOLYLINE
  5
68
102
{ACAD_REACTORS
330
1C6
102
}
100
AcDbEntity
  8
\U+0411\U+043B\U+043E\U+043A-\U+0441\U+0445\U+0435\U+043C\U+0430
  6
CONTINUOUS
100
AcDbPolyline
 90
        4
 70
     1
 10
47.175385
 20
169.083078
 10
73.731627
 20
169.083078
 10
73.731627
 20
172.419257
 10
47.175385
 20
172.419257
  0
MTEXT
  5
69
100
AcDbEntity
  8
\U+0411\U+043B\U+043E\U+043A-\U+0441\U+0445\U+0435\U+043C\U+0430
100
AcDbMText
 10
60.453506
 20
170.751167
 30
0.0
 40
2.054647
 41
26.556242
 71
     5
 72
     5
  1
\C7;\fArial|b0|i0|;\H2.0546471100301;U\U+0432\U+043E\U+0437\U+0431(2)
  0
LWPOLYLINE
  5
6A
100
AcDbEntity
  8
\U+0411\U+043B\U+043E\U+043A-\U+0441\U+0445\U+0435\U+043C\U+0430
  6
CONTINUOUS
100
AcDbPolyline
 90
        4
 70
     1
 10
47.186135
 20
159.16962
 10
73.742377
 20
159.16962
 10
73.742377
 20
162.505799
 10
47.186135
 20
162.505799
  0
MTEXT
  5
6B
100
AcDbEntity
  8
\U+0411\U+043B\U+043E\U+043A-\U+0441\U+0445\U+0435\U+043C\U+0430
100
AcDbMText
 10
60.464256
 20
160.837709
 30
0.0
 40
2.054647
 41
26.556242
 71
     5
 72
     5
  1
\C7;\fArial|b0|i0|;\H2.0546471100301;\U+041F\U+043E\U+0434\U+0441\U+0432\U+0435\U+0442
  0
LWPOLYLINE
  5
6C
100
AcDbEntity
  8
\U+0411\U+043B\U+043E\U+043A-\U+0441\U+0445\U+0435\U+043C\U+0430
  6
CONTINUOUS
100
AcDbPolyline
 90
        4
 70
     1
 10
47.186135
 20
155.863821
 10
73.742377
 20
155.863821
 10
73.742377
 20
159.2
 10
47.186135
 20
159.2
  0
MTEXT
  5
6D
100
AcDbEntity
  8
\U+0411\U+043B\U+043E\U+043A-\U+0441\U+0445\U+0435\U+043C\U+0430
100
AcDbMText
 10
60.464256
 20
157.53191
 30
0.0
 40
2.054647
 41
26.556242
 71
     5
 72
     5
  1
\C7;\fArial|b0|i0|;\H2.0546471100301;\U+043D\U+0435\U+0442
  0
LWPOLYLINE
  5
6E
102
{ACAD_REACTORS
330
1C6
102
}
100
AcDbEntity
  8
\U+0411\U+043B\U+043E\U+043A-\U+0441\U+0445\U+0435\U+043C\U+0430
  6
CONTINUOUS
100
AcDbPolyline
 90
        4
 70
     1
 10
73.173759
 20
248.782321
 10
81.164595
 20
248.782321
 10
81.164595
 20
252.112406
 10
73.173759
 20
252.112406
  0
LWPOLYLINE
  5
6F
102
{ACAD_REACTORS
330
1C6
102
}
100
AcDbEntity
  8
0
  6
CONTINUOUS
 62
     7
100
AcDbPolyline
 90
        4
 70
     1
 10
74.591488
 20
249.373142
 10
79.746866
 20
249.373142
 10
79.746866
 20
251.521584
 10
74.591488
 20
251.521584
  0
MTEXT
  5
70
100
AcDbEntity
  8
0
100
AcDbMText
 10
77.169177
 20
250.447363
 30
0.0
 40
2.054647
 41
5.155378
 71
     5
 72
     5
  1
\C7;\fArial|b0|i0|;\H2.0546471100301;\U+2116
  0
LWPOLYLINE
  5
71
102
{ACAD_REACTORS
330
1C6
102
}
100
AcDbEntity
  8
\U+0411\U+043B\U+043E\U+043A-\U+0441\U+0445\U+0435\U+043C\U+0430
  6
CONTINUOUS
100
AcDbPolyline
 90
        4
 70
     1
 10
73.173759
 20
245.380622
 10
81.164595
 20
245.380622
 10
81.164595
 20
248.710706
 10
73.173759
 20
248.710706
  0
MTEXT
  5
72
100
AcDbEntity
  8
\U+0411\U+043B\U+043E\U+043A-\U+0441\U+0445\U+0435\U+043C\U+0430
100
AcDbMText
 10
77.169177
 20
247.045664
 30
0.0
 40
2.054647
 41
7.990835
 71
     5
 72
     5
  1
\C7;\fArial|b0|i0|;\H2.0546471100301;1
  0
LWPOLYLINE
  5
73
102
{ACAD_REACTORS
330
1C6
102
}
100
AcDbEntity
  8
\U+0411\U+043B\U+043E\U+043A-\U+0441\U+0445\U+0435\U+043C\U+0430
  6
CONTINUOUS
100
AcDbPolyline
 90
        4
 70
     1
 10
73.173759
 20
231.956601
 10
81.164595
 20
231.956601
 10
81.164595
 20
235.286686
 10
73.173759
 20
235.286686
  0
MTEXT
  5
74
100
AcDbEntity
  8
\U+0411\U+043B\U+043E\U+043A-\U+0441\U+0445\U+0435\U+043C\U+0430
100
AcDbMText
 10
77.169177
 20
233.621643
 30
0.0
 40
2.054647
 41
7.990835
 71
     5
 72
     5
  1
\C7;\fArial|b0|i0|;\H2.0546471100301;5
  0
LWPOLYLINE
  5
75
102
{ACAD_REACTORS
330
1C6
102
}
100
AcDbEntity
  8
\U+0411\U+043B\U+043E\U+043A-\U+0441\U+0445\U+0435\U+043C\U+0430
  6
CONTINUOUS
100
AcDbPolyline
 90
        4
 70
     1
 10
73.173759
 20
242.051357
 10
81.164595
 20
242.051357
 10
81.164595
 20
245.381442
 10
73.173759
 20
245.381442
  0
MTEXT
  5
76
100
AcDbEntity
  8
\U+0411\U+043B\U+043E\U+043A-\U+0441\U+0445\U+0435\U+043C\U+0430
100
AcDbMText
 10
77.169177
 20
243.716399
 30
0.0
 40
2.054647
 41
7.990835
 71
     5
 72
     5
  1
\C7;\fArial|b0|i0|;\H2.0546471100301;2
  0
LWPOLYLINE
  5
77
102
{ACAD_REACTORS
330
1C6
102
}
100
AcDbEntity
  8
\U+0411\U+043B\U+043E\U+043A-\U+0441\U+0445\U+0435\U+043C\U+0430
  6
CONTINUOUS
100
AcDbPolyline
 90
        4
 70
     1
 10
73.173759
 20
238.649658
 10
81.164595
 20
238.649658
 10
81.164595
 20
241.979742
 10
73.173759
 20
241.979742
  0
MTEXT
  5
78
100
AcDbEntity
  8
\U+0411\U+043B\U+043E\U+043A-\U+0441\U+0445\U+0435\U+043C\U+0430
100
AcDbMText
 10
77.169177
 20
240.3147
 30
0.0
 40
2.054647
 41
7.990835
 71
     5
 72
     5
  1
\C7;\fArial|b0|i0|;\H2.0546471100301;3
  0
LWPOLYLINE
  5
79
102
{ACAD_REACTORS
330
1C6
102
}
100
AcDbEntity
  8
\U+0411\U+043B\U+043E\U+043A-\U+0441\U+0445\U+0435\U+043C\U+0430
  6
CONTINUOUS
100
AcDbPolyline
 90
        4
 70
     1
 10
73.173759
 20
235.247958
 10
81.164595
 20
235.247958
 10
81.164595
 20
238.578043
 10
73.173759
 20
238.578043
  0
MTEXT
  5
7A
100
AcDbEntity
  8
\U+0411\U+043B\U+043E\U+043A-\U+0441\U+0445\U+0435\U+043C\U+0430
100
AcDbMText
 10
77.169177
 20
236.913
 30
0.0
 40
2.054647
 41
7.990835
 71
     5
 72
     5
  1
\C7;\fArial|b0|i0|;\H2.0546471100301;4
  0
LWPOLYLINE
  5
7B
102
{ACAD_REACTORS
330
1C6
102
}
100
AcDbEntity
  8
\U+0411\U+043B\U+043E\U+043A-\U+0441\U+0445\U+0435\U+043C\U+0430
  6
CONTINUOUS
100
AcDbPolyline
 90
        4
 70
     1
 10
73.173759
 20
228.643981
 10
81.164595
 20
228.643981
 10
81.164595
 20
231.974066
 10
73.173759
 20
231.974066
  0
MTEXT
  5
7C
100
AcDbEntity
  8
\U+0411\U+043B\U+043E\U+043A-\U+0441\U+0445\U+0435\U+043C\U+0430
100
AcDbMText
 10
77.169177
 20
230.309023
 30
0.0
 40
2.054647
 41
7.990835
 71
     5
 72
     5
  1
\C7;\fArial|b0|i0|;\H2.0546471100301;6
  0
LWPOLYLINE
  5
7D
102
{ACAD_REACTORS
330
1C6
102
}
100
AcDbEntity
  8
\U+0411\U+043B\U+043E\U+043A-\U+0441\U+0445\U+0435\U+043C\U+0430
  6
CONTINUOUS
100
AcDbPolyline
 90
        4
 70
     1
 10
73.173759
 20
225.31297
 10
81.164595
 20
225.31297
 10
81.164595
 20
228.643055
 10
73.173759
 20
228.643055
  0
MTEXT
  5
7E
100
AcDbEntity
  8
\U+0411\U+043B\U+043E\U+043A-\U+0441\U+0445\U+0435\U+043C\U+0430
100
AcDbMText
 10
77.169177
 20
226.978012
 30
0.0
 40
2.054647
 41
7.990835
 71
     5
 72
     5
  1
\C7;\fArial|b0|i0|;\H2.0546471100301;7
  0
LWPOLYLINE
  5
7F
102
{ACAD_REACTORS
330
1C6
102
}
100
AcDbEntity
  8
\U+0411\U+043B\U+043E\U+043A-\U+0441\U+0445\U+0435\U+043C\U+0430
  6
CONTINUOUS
100
AcDbPolyline
 90
        4
 70
     1
 10
73.173759
 20
212.338866
 10
81.164595
 20
212.338866
 10
81.164595
 20
215.35711
 10
73.173759
 20
215.35711
  0
MTEXT
  5
80
100
AcDbEntity
  8
\U+0411\U+043B\U+043E\U+043A-\U+0441\U+0445\U+0435\U+043C\U+0430
100
AcDbMText
 10
77.169177
 20
213.847988
 30
0.0
 40
2.054647
 41
7.990835
 71
     5
 72
     5
  1
\C7;\fArial|b0|i0|;\H2.0546471100301;11
  0
LWPOLYLINE
  5
81
102
{ACAD_REACTORS
330
1C6
102
}
100
AcDbEntity
  8
\U+0411\U+043B\U+043E\U+043A-\U+0441\U+0445\U+0435\U+043C\U+0430
  6
CONTINUOUS
100
AcDbPolyline
 90
        4
 70
     1
 10
73.173759
 20
222.038384
 10
81.164595
 20
222.038384
 10
81.164595
 20
225.368469
 10
73.173759
 20
225.368469
  0
MTEXT
  5
82
100
AcDbEntity
  8
\U+0411\U+043B\U+043E\U+043A-\U+0441\U+0445\U+0435\U+043C\U+0430
100
AcDbMText
 10
77.169177
 20
223.703426
 30
0.0
 40
2.054647
 41
7.990835
 71
     5
 72
     5
  1
\C7;\fArial|b0|i0|;\H2.0546471100301;8
  0
LWPOLYLINE
  5
83
102
{ACAD_REACTORS
330
1C6
102
}
100
AcDbEntity
  8
\U+0411\U+043B\U+043E\U+043A-\U+0441\U+0445\U+0435\U+043C\U+0430
  6
CONTINUOUS
100
AcDbPolyline
 90
        4
 70
     1
 10
73.173759
 20
218.636684
 10
81.164595
 20
218.636684
 10
81.164595
 20
221.966769
 10
73.173759
 20
221.966769
  0
MTEXT
  5
84
100
AcDbEntity
  8
\U+0411\U+043B\U+043E\U+043A-\U+0441\U+0445\U+0435\U+043C\U+0430
100
AcDbMText
 10
77.169177
 20
220.301727
 30
0.0
 40
2.054647
 41
7.990835
 71
     5
 72
     5
  1
\C7;\fArial|b0|i0|;\H2.0546471100301;9
  0
LWPOLYLINE
  5
85
102
{ACAD_REACTORS
330
1C6
102
}
100
AcDbEntity
  8
\U+0411\U+043B\U+043E\U+043A-\U+0441\U+0445\U+0435\U+043C\U+0430
  6
CONTINUOUS
100
AcDbPolyline
 90
        4
 70
     1
 10
73.173759
 20
215.234985
 10
81.164595
 20
215.234985
 10
81.164595
 20
218.56507
 10
73.173759
 20
218.56507
  0
MTEXT
  5
86
100
AcDbEntity
  8
\U+0411\U+043B\U+043E\U+043A-\U+0441\U+0445\U+0435\U+043C\U+0430
100
AcDbMText
 10
77.169177
 20
216.900027
 30
0.0
 40
2.054647
 41
7.990835
 71
     5
 72
     5
  1
\C7;\fArial|b0|i0|;\H2.0546471100301;10
  0
LWPOLYLINE
  5
87
102
{ACAD_REACTORS
330
1C6
102
}
100
AcDbEntity
  8
\U+0411\U+043B\U+043E\U+043A-\U+0441\U+0445\U+0435\U+043C\U+0430
  6
CONTINUOUS
100
AcDbPolyline
 90
        4
 70
     1
 10
73.18455
 20
199.181756
 10
81.175385
 20
199.181756
 10
81.175385
 20
202.2
 10
73.18455
 20
202.2
  0
MTEXT
  5
88
100
AcDbEntity
  8
\U+0411\U+043B\U+043E\U+043A-\U+0441\U+0445\U+0435\U+043C\U+0430
100
AcDbMText
 10
77.179968
 20
200.690878
 30
0.0
 40
2.054647
 41
7.990835
 71
     5
 72
     5
  1
\C7;\fArial|b0|i0|;\H2.0546471100301;15
  0
LWPOLYLINE
  5
89
102
{ACAD_REACTORS
330
1C6
102
}
100
AcDbEntity
  8
\U+0411\U+043B\U+043E\U+043A-\U+0441\U+0445\U+0435\U+043C\U+0430
  6
CONTINUOUS
100
AcDbPolyline
 90
        4
 70
     1
 10
73.18455
 20
208.916754
 10
81.175385
 20
208.916754
 10
81.175385
 20
212.246838
 10
73.18455
 20
212.246838
  0
MTEXT
  5
8A
100
AcDbEntity
  8
\U+0411\U+043B\U+043E\U+043A-\U+0441\U+0445\U+0435\U+043C\U+0430
100
AcDbMText
 10
77.179968
 20
210.581796
 30
0.0
 40
2.054647
 41
7.990835
 71
     5
 72
     5
  1
\C7;\fArial|b0|i0|;\H2.0546471100301;12
  0
LWPOLYLINE
  5
8B
102
{ACAD_REACTORS
330
1C6
102
}
100
AcDbEntity
  8
\U+0411\U+043B\U+043E\U+043A-\U+0441\U+0445\U+0435\U+043C\U+0430
  6
CONTINUOUS
100
AcDbPolyline
 90
        4
 70
     1
 10
73.18455
 20
205.515054
 10
81.175385
 20
205.515054
 10
81.175385
 20
208.845139
 10
73.18455
 20
208.845139
  0
MTEXT
  5
8C
100
AcDbEntity
  8
\U+0411\U+043B\U+043E\U+043A-\U+0441\U+0445\U+0435\U+043C\U+0430
100
AcDbMText
 10
77.179968
 20
207.180097
 30
0.0
 40
2.054647
 41
7.990835
 71
     5
 72
     5
  1
\C7;\fArial|b0|i0|;\H2.0546471100301;13
  0
LWPOLYLINE
  5
8D
102
{ACAD_REACTORS
330
1C6
102
}
100
AcDbEntity
  8
\U+0411\U+043B\U+043E\U+043A-\U+0441\U+0445\U+0435\U+043C\U+0430
  6
CONTINUOUS
100
AcDbPolyline
 90
        4
 70
     1
 10
73.18455
 20
202.113355
 10
81.175385
 20
202.113355
 10
81.175385
 20
205.443439
 10
73.18455
 20
205.443439
  0
MTEXT
  5
8E
100
AcDbEntity
  8
\U+0411\U+043B\U+043E\U+043A-\U+0441\U+0445\U+0435\U+043C\U+0430
100
AcDbMText
 10
77.179968
 20
203.778397
 30
0.0
 40
2.054647
 41
7.990835
 71
     5
 72
     5
  1
\C7;\fArial|b0|i0|;\H2.0546471100301;14
  0
LWPOLYLINE
  5
8F
102
{ACAD_REACTORS
330
1C6
102
}
100
AcDbEntity
  8
\U+0411\U+043B\U+043E\U+043A-\U+0441\U+0445\U+0435\U+043C\U+0430
  6
CONTINUOUS
100
AcDbPolyline
 90
        4
 70
     1
 10
73.173759
 20
195.753162
 10
81.164595
 20
195.753162
 10
81.164595
 20
199.083246
 10
73.173759
 20
199.083246
  0
MTEXT
  5
90
100
AcDbEntity
  8
\U+0411\U+043B\U+043E\U+043A-\U+0441\U+0445\U+0435\U+043C\U+0430
100
AcDbMText
 10
77.169177
 20
197.418204
 30
0.0
 40
2.054647
 41
7.990835
 71
     5
 72
     5
  1
\C7;\fArial|b0|i0|;\H2.0546471100301;16
  0
LWPOLYLINE
  5
91
102
{ACAD_REACTORS
330
1C6
102
}
100
AcDbEntity
  8
\U+0411\U+043B\U+043E\U+043A-\U+0441\U+0445\U+0435\U+043C\U+0430
  6
CONTINUOUS
100
AcDbPolyline
 90
        4
 70
     1
 10
73.173759
 20
182.329141
 10
81.164595
 20
182.329141
 10
81.164595
 20
185.659226
 10
73.173759
 20
185.659226
  0
MTEXT
  5
92
100
AcDbEntity
  8
\U+0411\U+043B\U+043E\U+043A-\U+0441\U+0445\U+0435\U+043C\U+0430
100
AcDbMText
 10
77.169177
 20
183.994183
 30
0.0
 40
2.054647
 41
7.990835
 71
     5
 72
     5
  1
\C7;\fArial|b0|i0|;\H2.0546471100301;20
  0
LWPOLYLINE
  5
93
102
{ACAD_REACTORS
330
1C6
102
}
100
AcDbEntity
  8
\U+0411\U+043B\U+043E\U+043A-\U+0441\U+0445\U+0435\U+043C\U+0430
  6
CONTINUOUS
100
AcDbPolyline
 90
        4
 70
     1
 10
73.173759
 20
192.423897
 10
81.164595
 20
192.423897
 10
81.164595
 20
195.753982
 10
73.173759
 20
195.753982
  0
MTEXT
  5
94
100
AcDbEntity
  8
\U+0411\U+043B\U+043E\U+043A-\U+0441\U+0445\U+0435\U+043C\U+0430
100
AcDbMText
 10
77.169177
 20
194.088939
 30
0.0
 40
2.054647
 41
7.990835
 71
     5
 72
     5
  1
\C7;\fArial|b0|i0|;\H2.0546471100301;17
  0
LWPOLYLINE
  5
95
102
{ACAD_REACTORS
330
1C6
102
}
100
AcDbEntity
  8
\U+0411\U+043B\U+043E\U+043A-\U+0441\U+0445\U+0435\U+043C\U+0430
  6
CONTINUOUS
100
AcDbPolyline
 90
        4
 70
     1
 10
73.173759
 20
189.022198
 10
81.164595
 20
189.022198
 10
81.164595
 20
192.352282
 10
73.173759
 20
192.352282
  0
MTEXT
  5
96
100
AcDbEntity
  8
\U+0411\U+043B\U+043E\U+043A-\U+0441\U+0445\U+0435\U+043C\U+0430
100
AcDbMText
 10
77.169177
 20
190.68724
 30
0.0
 40
2.054647
 41
7.990835
 71
     5
 72
     5
  1
\C7;\fArial|b0|i0|;\H2.0546471100301;18
  0
LWPOLYLINE
  5
97
102
{ACAD_REACTORS
330
1C6
102
}
100
AcDbEntity
  8
\U+0411\U+043B\U+043E\U+043A-\U+0441\U+0445\U+0435\U+043C\U+0430
  6
CONTINUOUS
100
AcDbPolyline
 90
        4
 70
     1
 10
73.173759
 20
185.620498
 10
81.164595
 20
185.620498
 10
81.164595
 20
188.950583
 10
73.173759
 20
188.950583
  0
MTEXT
  5
98
100
AcDbEntity
  8
\U+0411\U+043B\U+043E\U+043A-\U+0441\U+0445\U+0435\U+043C\U+0430
100
AcDbMText
 10
77.169177
 20
187.28554
 30
0.0
 40
2.054647
 41
7.990835
 71
     5
 72
     5
  1
\C7;\fArial|b0|i0|;\H2.0546471100301;19
  0
LWPOLYLINE
  5
99
102
{ACAD_REACTORS
330
1C6
102
}
100
AcDbEntity
  8
\U+0411\U+043B\U+043E\U+043A-\U+0441\U+0445\U+0435\U+043C\U+0430
  6
CONTINUOUS
100
AcDbPolyline
 90
        4
 70
     1
 10
73.173759
 20
179.016521
 10
81.164595
 20
179.016521
 10
81.164595
 20
182.346606
 10
73.173759
 20
182.346606
  0
MTEXT
  5
9A
100
AcDbEntity
  8
\U+0411\U+043B\U+043E\U+043A-\U+0441\U+0445\U+0435\U+043C\U+0430
100
AcDbMText
 10
77.169177
 20
180.681563
 30
0.0
 40
2.054647
 41
7.990835
 71
     5
 72
     5
  1
\C7;\fArial|b0|i0|;\H2.0546471100301;21
  0
LWPOLYLINE
  5
9B
102
{ACAD_REACTORS
330
1C6
102
}
100
AcDbEntity
  8
\U+0411\U+043B\U+043E\U+043A-\U+0441\U+0445\U+0435\U+043C\U+0430
  6
CONTINUOUS
100
AcDbPolyline
 90
        4
 70
     1
 10
73.173759
 20
175.68551
 10
81.164595
 20
175.68551
 10
81.164595
 20
179.015595
 10
73.173759
 20
179.015595
  0
MTEXT
  5
9C
100
AcDbEntity
  8
\U+0411\U+043B\U+043E\U+043A-\U+0441\U+0445\U+0435\U+043C\U+0430
100
AcDbMText
 10
77.169177
 20
177.350552
 30
0.0
 40
2.054647
 41
7.990835
 71
     5
 72
     5
  1
\C7;\fArial|b0|i0|;\H2.0546471100301;22
  0
LWPOLYLINE
  5
9D
102
{ACAD_REACTORS
330
1C6
102
}
100
AcDbEntity
  8
\U+0411\U+043B\U+043E\U+043A-\U+0441\U+0445\U+0435\U+043C\U+0430
  6
CONTINUOUS
100
AcDbPolyline
 90
        4
 70
     1
 10
73.173759
 20
162.711406
 10
81.164595
 20
162.711406
 10
81.164595
 20
165.72965
 10
73.173759
 20
165.72965
  0
MTEXT
  5
9E
100
AcDbEntity
  8
\U+0411\U+043B\U+043E\U+043A-\U+0441\U+0445\U+0435\U+043C\U+0430
100
AcDbMText
 10
77.169177
 20
164.220528
 30
0.0
 40
2.054647
 41
7.990835
 71
     5
 72
     5
  1
\C7;\fArial|b0|i0|;\H2.0546471100301;26
  0
LWPOLYLINE
  5
9F
102
{ACAD_REACTORS
330
1C6
102
}
100
AcDbEntity
  8
\U+0411\U+043B\U+043E\U+043A-\U+0441\U+0445\U+0435\U+043C\U+0430
  6
CONTINUOUS
100
AcDbPolyline
 90
        4
 70
     1
 10
73.173759
 20
172.410924
 10
81.164595
 20
172.410924
 10
81.164595
 20
175.741009
 10
73.173759
 20
175.741009
  0
MTEXT
  5
A0
100
AcDbEntity
  8
\U+0411\U+043B\U+043E\U+043A-\U+0441\U+0445\U+0435\U+043C\U+0430
100
AcDbMText
 10
77.169177
 20
174.075966
 30
0.0
 40
2.054647
 41
7.990835
 71
     5
 72
     5
  1
\C7;\fArial|b0|i0|;\H2.0546471100301;23
  0
LWPOLYLINE
  5
A1
102
{ACAD_REACTORS
330
1C6
102
}
100
AcDbEntity
  8
\U+0411\U+043B\U+043E\U+043A-\U+0441\U+0445\U+0435\U+043C\U+0430
  6
CONTINUOUS
100
AcDbPolyline
 90
        4
 70
     1
 10
73.173759
 20
169.009224
 10
81.164595
 20
169.009224
 10
81.164595
 20
172.339309
 10
73.173759
 20
172.339309
  0
MTEXT
  5
A2
100
AcDbEntity
  8
\U+0411\U+043B\U+043E\U+043A-\U+0441\U+0445\U+0435\U+043C\U+0430
100
AcDbMText
 10
77.169177
 20
170.674267
 30
0.0
 40
2.054647
 41
7.990835
 71
     5
 72
     5
  1
\C7;\fArial|b0|i0|;\H2.0546471100301;24
  0
LWPOLYLINE
  5
A3
102
{ACAD_REACTORS
330
1C6
102
}
100
AcDbEntity
  8
\U+0411\U+043B\U+043E\U+043A-\U+0441\U+0445\U+0435\U+043C\U+0430
  6
CONTINUOUS
100
AcDbPolyline
 90
        4
 70
     1
 10
73.173759
 20
165.607525
 10
81.164595
 20
165.607525
 10
81.164595
 20
168.93761
 10
73.173759
 20
168.93761
  0
MTEXT
  5
A4
100
AcDbEntity
  8
\U+0411\U+043B\U+043E\U+043A-\U+0441\U+0445\U+0435\U+043C\U+0430
100
AcDbMText
 10
77.169177
 20
167.272567
 30
0.0
 40
2.054647
 41
7.990835
 71
     5
 72
     5
  1
\C7;\fArial|b0|i0|;\H2.0546471100301;25
  0
LWPOLYLINE
  5
A5
102
{ACAD_REACTORS
330
1C6
102
}
100
AcDbEntity
  8
\U+0411\U+043B\U+043E\U+043A-\U+0441\U+0445\U+0435\U+043C\U+0430
  6
CONTINUOUS
100
AcDbPolyline
 90
        4
 70
     1
 10
73.18455
 20
159.289294
 10
81.175385
 20
159.289294
 10
81.175385
 20
162.619378
 10
73.18455
 20
162.619378
  0
MTEXT
  5
A6
100
AcDbEntity
  8
\U+0411\U+043B\U+043E\U+043A-\U+0441\U+0445\U+0435\U+043C\U+0430
100
AcDbMText
 10
77.179968
 20
160.954336
 30
0.0
 40
2.054647
 41
7.990835
 71
     5
 72
     5
  1
\C7;\fArial|b0|i0|;\H2.0546471100301;27
  0
LWPOLYLINE
  5
A7
102
{ACAD_REACTORS
330
1C6
102
}
100
AcDbEntity
  8
\U+0411\U+043B\U+043E\U+043A-\U+0441\U+0445\U+0435\U+043C\U+0430
  6
CONTINUOUS
100
AcDbPolyline
 90
        4
 70
     1
 10
73.18455
 20
155.887594
 10
81.175385
 20
155.887594
 10
81.175385
 20
159.217679
 10
73.18455
 20
159.217679
  0
MTEXT
  5
A8
100
AcDbEntity
  8
\U+0411\U+043B\U+043E\U+043A-\U+0441\U+0445\U+0435\U+043C\U+0430
100
AcDbMText
 10
77.179968
 20
157.552637
 30
0.0
 40
2.054647
 41
7.990835
 71
     5
 72
     5
  1
\C7;\fArial|b0|i0|;\H2.0546471100301;28
  0
LINE
  5
A9
100
AcDbEntity
  8
0
  6
CONTINUOUS
 62
     7
100
AcDbLine
 10
81.164595
 20
247.045664
 30
0.0
 11
117.4
 21
247.045664
 31
0.0
  0
LINE
  5
AA
100
AcDbEntity
  8
0
  6
CONTINUOUS
 62
     7
100
AcDbLine
 10
81.164595
 20
243.716399
 30
0.0
 11
110.4
 21
243.716399
 31
0.0
  0
LINE
  5
AB
100
AcDbEntity
  8
0
  6
CONTINUOUS
 62
     7
100
AcDbLine
 10
81.164595
 20
240.3147
 30
0.0
 11
113.0
 21
240.396366
 31
0.0
  0
LINE
  5
AC
100
AcDbEntity
  8
0
  6
CONTINUOUS
 62
     7
100
AcDbLine
 10
81.164595
 20
236.913
 30
0.0
 11
89.986259
 21
236.93563
 31
0.0
  0
LINE
  5
AD
100
AcDbEntity
  8
0
  6
CONTINUOUS
 62
     7
100
AcDbLine
 10
81.164595
 20
233.621643
 30
0.0
 11
89.986259
 21
233.644273
 31
0.0
  0
LINE
  5
AE
100
AcDbEntity
  8
0
  6
CONTINUOUS
 62
     7
100
AcDbLine
 10
81.164595
 20
220.301727
 30
0.0
 11
89.986259
 21
220.324357
 31
0.0
  0
LINE
  5
AF
100
AcDbEntity
  8
0
  6
CONTINUOUS
 62
     7
100
AcDbLine
 10
81.164595
 20
223.8
 30
0.0
 11
120.445224
 21
223.8
 31
0.0
  0
LINE
  5
B0
100
AcDbEntity
  8
0
  6
CONTINUOUS
 62
     7
100
AcDbLine
 10
81.164595
 20
213.847988
 30
0.0
 11
89.986259
 21
213.870618
 31
0.0
  0
LWPOLYLINE
  5
B1
100
AcDbEntity
  8
0
  6
CONTINUOUS
 62
     7
100
AcDbPolyline
 90
        3
 70
     0
 10
81.175385
 20
210.581796
 10
88.675385
 20
210.581796
 10
90.0
 20
210.604426
  0
LINE
  5
B2
100
AcDbEntity
  8
0
  6
CONTINUOUS
 62
     7
100
AcDbLine
 10
81.175385
 20
207.180097
 30
0.0
 11
120.445224
 21
207.2
 31
0.0
  0
LINE
  5
B3
100
AcDbEntity
  8
0
  6
CONTINUOUS
 62
     7
100
AcDbLine
 10
81.175385
 20
203.778397
 30
0.0
 11
90.0
 21
203.801027
 31
0.0
  0
LINE
  5
B4
100
AcDbEntity
  8
0
  6
CONTINUOUS
 62
     7
100
AcDbLine
 10
81.175385
 20
200.690878
 30
0.0
 11
90.0
 21
200.748988
 31
0.0
  0
LINE
  5
B5
100
AcDbEntity
  8
0
  6
CONTINUOUS
 62
     7
100
AcDbLine
 10
81.164595
 20
197.418204
 30
0.0
 11
89.986259
 21
197.440834
 31
0.0
  0
LINE
  5
B6
100
AcDbEntity
  8
0
  6
CONTINUOUS
 62
     7
100
AcDbLine
 10
81.164595
 20
194.088939
 30
0.0
 11
89.986259
 21
194.111569
 31
0.0
  0
LINE
  5
B7
100
AcDbEntity
  8
0
  6
CONTINUOUS
 62
     7
100
AcDbLine
 10
81.164595
 20
190.68724
 30
0.0
 11
89.986259
 21
190.70987
 31
0.0
  0
LINE
  5
B8
100
AcDbEntity
  8
0
  6
CONTINUOUS
 62
     7
100
AcDbLine
 10
81.164595
 20
187.28554
 30
0.0
 11
89.986259
 21
187.30817
 31
0.0
  0
LINE
  5
B9
100
AcDbEntity
  8
0
  6
CONTINUOUS
 62
     7
100
AcDbLine
 10
81.164595
 20
183.994183
 30
0.0
 11
89.986259
 21
184.016813
 31
0.0
  0
LINE
  5
BA
100
AcDbEntity
  8
0
  6
CONTINUOUS
 62
     7
100
AcDbLine
 10
81.164595
 20
180.681563
 30
0.0
 11
89.986259
 21
180.704193
 31
0.0
  0
LINE
  5
BB
100
AcDbEntity
  8
0
  6
CONTINUOUS
 62
     7
100
AcDbLine
 10
81.164595
 20
177.350552
 30
0.0
 11
116.0
 21
177.439914
 31
0.0
  0
LINE
  5
BC
100
AcDbEntity
  8
0
  6
CONTINUOUS
 62
     7
100
AcDbLine
 10
81.164595
 20
174.075966
 30
0.0
 11
119.0
 21
174.075966
 31
0.0
  0
LINE
  5
BD
100
AcDbEntity
  8
0
  6
CONTINUOUS
 62
     7
100
AcDbLine
 10
81.164595
 20
170.674267
 30
0.0
 11
89.986259
 21
170.696897
 31
0.0
  0
LINE
  5
BE
100
AcDbEntity
  8
0
  6
CONTINUOUS
 62
     7
100
AcDbLine
 10
81.164595
 20
167.272567
 30
0.0
 11
89.986259
 21
167.295197
 31
0.0
  0
LINE
  5
BF
100
AcDbEntity
  8
0
  6
CONTINUOUS
 62
     7
100
AcDbLine
 10
81.164595
 20
164.220528
 30
0.0
 11
89.986259
 21
164.243158
 31
0.0
  0
LINE
  5
C0
100
AcDbEntity
  8
0
  6
CONTINUOUS
 62
     7
100
AcDbLine
 10
81.175385
 20
160.954336
 30
0.0
 11
90.0
 21
160.976966
 31
0.0
  0
LINE
  5
C1
100
AcDbEntity
  8
0
  6
CONTINUOUS
 62
     7
100
AcDbLine
 10
81.175385
 20
157.552637
 30
0.0
 11
90.0
 21
157.575266
 31
0.0
  0
LWPOLYLINE
  5
C2
100
AcDbEntity
  8
0
  6
CONTINUOUS
 62
     7
100
AcDbPolyline
 90
        5
 70
     0
 10
115.4
 20
243.066667
 10
115.4
 20
244.8
 10
110.4
 20
244.8
 10
110.4
 20
242.8
 10
115.4
 20
242.8
  0
LINE
  5
C3
100
AcDbEntity
  8
0
  6
CONTINUOUS
 62
     7
100
AcDbLine
 10
115.4
 20
243.066667
 30
0.0
 11
115.4
 21
242.8
 31
0.0
  0
LWPOLYLINE
  5
C4
102
{ACAD_REACTORS
330
1C6
102
}
100
AcDbEntity
  8
0
  6
CONTINUOUS
 62
     7
100
AcDbPolyline
 90
        4
 70
     1
 10
104.5
 20
244.435555
 10
109.5
 20
244.435555
 10
109.5
 20
246.5
 10
104.5
 20
246.5
  0
MTEXT
  5
C5
100
AcDbEntity
  8
0
100
AcDbMText
 10
107.0
 20
245.467777
 30
0.0
 40
1.540968
 41
5.0
 71
     5
 72
     5
  1
\C7;\fArial|b0|i0|;\H1.5409676972777;R1
  0
ELLIPSE
  5
C8
102
{ACAD_REACTORS
330
C6
102
}
100
AcDbEntity
  8
ELECTRICAL
  6
CONTINUOUS
100
AcDbEllipse
 10
121.935614
 20
219.534984
 30
0.0
 11
0.7030461905239683
 21
0.0
 31
0.0
210
0.0
220
0.0
230
1.0
 40
0.867333
 41
4.6724102932613842
 42
1.6107750139181876
  0
ELLIPSE
  5
C9
102
{ACAD_REACTORS
330
C6
102
}
100
AcDbEntity
  8
ELECTRICAL
  6
CONTINUOUS
100
AcDbEllipse
 10
121.935614
 20
220.75356
 30
0.0
 11
0.7030461905239682
 21
0.0
 31
0.0
210
0.0
220
0.0
230
1.0
 40
0.867333
 41
4.6724102932613842
 42
1.6107750139181878
  0
ELLIPSE
  5
CA
102
{ACAD_REACTORS
330
C6
102
}
100
AcDbEntity
  8
ELECTRICAL
  6
CONTINUOUS
100
AcDbEllipse
 10
121.935614
 20
221.972136
 30
0.0
 11
0.7030461905239683
 21
0.0
 31
0.0
210
0.0
220
0.0
230
1.0
 40
0.867333
 41
4.6724102932613842
 42
1.6107750139181878
  0
ELLIPSE
  5
CB
102
{ACAD_REACTORS
330
C6
102
}
100
AcDbEntity
  8
ELECTRICAL
  6
CONTINUOUS
100
AcDbEllipse
 10
121.935614
 20
223.190712
 30
0.0
 11
0.7030461905239679
 21
0.0
 31
0.0
210
0.0
220
0.0
230
1.0
 40
0.867333
 41
4.6724102932613842
 42
1.610775013918188
  0
LINE
  5
CC
102
{ACAD_REACTORS
330
C6
102
}
100
AcDbEntity
  8
ELECTRICAL
  6
CONTINUOUS
100
AcDbLine
 10
121.907515
 20
218.925696
 30
0.0
 11
120.445224
 21
218.925696
 31
0.0
  0
LINE
  5
CD
102
{ACAD_REACTORS
330
C6
102
}
100
AcDbEntity
  8
ELECTRICAL
  6
CONTINUOUS
100
AcDbLine
 10
121.907515
 20
223.8
 30
0.0
 11
120.445224
 21
223.8
 31
0.0
  0
ELLIPSE
  5
CF
102
{ACAD_REACTORS
330
CE
102
}
100
AcDbEntity
  8
ELECTRICAL
  6
CONTINUOUS
100
AcDbEllipse
 10
127.390712
 20
216.890466
 30
0.0
 11
0.0
 21
0.7030461905239686
 31
-0.0
210
0.0
220
0.0
230
1.0
 40
0.867333
 41
4.6724102932613842
 42
1.6107750139181878
  0
ELLIPSE
  5
D0
102
{ACAD_REACTORS
330
CE
102
}
100
AcDbEntity
  8
ELECTRICAL
  6
CONTINUOUS
100
AcDbEllipse
 10
126.172136
 20
216.890466
 30
0.0
 11
0.0
 21
0.7030461905239687
 31
-0.0
210
0.0
220
0.0
230
1.0
 40
0.867333
 41
4.6724102932613842
 42
1.6107750139181876
  0
ELLIPSE
  5
D1
102
{ACAD_REACTORS
330
CE
102
}
100
AcDbEntity
  8
ELECTRICAL
  6
CONTINUOUS
100
AcDbEllipse
 10
124.95356
 20
216.890466
 30
0.0
 11
0.0
 21
0.7030461905239692
 31
-0.0
210
0.0
220
0.0
230
1.0
 40
0.867333
 41
4.6724102932613842
 42
1.6107750139181878
  0
ELLIPSE
  5
D2
102
{ACAD_REACTORS
330
CE
102
}
100
AcDbEntity
  8
ELECTRICAL
  6
CONTINUOUS
100
AcDbEllipse
 10
123.734984
 20
216.890466
 30
0.0
 11
0.0
 21
0.7030461905239686
 31
-0.0
210
0.0
220
0.0
230
1.0
 40
0.867333
 41
4.6724102932613842
 42
1.6107750139181882
  0
LINE
  5
D3
102
{ACAD_REACTORS
330
CE
102
}
100
AcDbEntity
  8
ELECTRICAL
  6
CONTINUOUS
100
AcDbLine
 10
128.0
 20
216.862367
 30
0.0
 11
128.0
 21
215.400076
 31
0.0
  0
LINE
  5
D4
102
{ACAD_REACTORS
330
CE
102
}
100
AcDbEntity
  8
ELECTRICAL
  6
CONTINUOUS
100
AcDbLine
 10
123.125696
 20
216.862367
 30
0.0
 11
123.125696
 21
215.400076
 31
0.0
  0
LINE
  5
D5
100
AcDbEntity
  8
0
  6
CONTINUOUS
 62
     7
100
AcDbLine
 10
117.4
 20
247.045664
 30
0.0
 11
117.4
 21
244.0
 31
0.0
  0
LINE
  5
D6
100
AcDbEntity
  8
0
  6
CONTINUOUS
 62
     7
100
AcDbLine
 10
115.4
 20
244.0
 30
0.0
 11
117.4
 21
244.0
 31
0.0
  0
LINE
  5
D7
100
AcDbEntity
  8
0
  6
CONTINUOUS
 62
     7
100
AcDbLine
 10
113.0
 20
242.8
 30
0.0
 11
112.3
 21
242.1
 31
0.0
  0
LINE
  5
D8
100
AcDbEntity
  8
0
  6
CONTINUOUS
 62
     7
100
AcDbLine
 10
113.0
 20
242.8
 30
0.0
 11
113.733333
 21
242.066667
 31
0.0
  0
LINE
  5
D9
100
AcDbEntity
  8
0
  6
CONTINUOUS
 62
     7
100
AcDbLine
 10
113.0
 20
240.396366
 30
0.0
 11
113.0
 21
242.8
 31
0.0
  0
LINE
  5
DB
100
AcDbEntity
  8
\U+0421\U+043E\U+0435\U+0434\U+0438\U+043D\U+0438\U+0442\U+0435\U+043B\U+044C\U+043D\U+0430\U+044F_\U+043B\U+0438\U+043D\U+0438\U+044F
  6
CONTINUOUS
100
AcDbLine
 10
60.453506
 20
241.936179
 30
0.0
 11
60.453506
 21
241.93191
 31
0.0
  0
LINE
  5
DC
100
AcDbEntity
  8
0
  6
CONTINUOUS
 62
     7
100
AcDbLine
 10
81.164595
 20
230.365482
 30
0.0
 11
117.4
 21
230.365482
 31
0.0
  0
LINE
  5
DD
100
AcDbEntity
  8
0
  6
CONTINUOUS
 62
     7
100
AcDbLine
 10
81.164595
 20
227.036217
 30
0.0
 11
110.4
 21
227.036217
 31
0.0
  0
LINE
  5
DE
100
AcDbEntity
  8
0
  6
CONTINUOUS
 62
     7
100
AcDbLine
 10
81.164595
 20
217.0
 30
0.0
 11
113.0
 21
217.081666
 31
0.0
  0
LWPOLYLINE
  5
DF
100
AcDbEntity
  8
0
  6
CONTINUOUS
 62
     7
100
AcDbPolyline
 90
        5
 70
     0
 10
115.4
 20
226.386485
 10
115.4
 20
228.119818
 10
110.4
 20
228.119818
 10
110.4
 20
226.119818
 10
115.4
 20
226.119818
  0
LINE
  5
E0
100
AcDbEntity
  8
0
  6
CONTINUOUS
 62
     7
100
AcDbLine
 10
115.4
 20
226.386485
 30
0.0
 11
115.4
 21
226.119818
 31
0.0
  0
LWPOLYLINE
  5
E1
102
{ACAD_REACTORS
330
1C6
102
}
100
AcDbEntity
  8
0
  6
CONTINUOUS
 62
     7
100
AcDbPolyline
 90
        4
 70
     1
 10
104.5
 20
227.5
 10
109.5
 20
227.5
 10
109.5
 20
229.564445
 10
104.5
 20
229.564445
  0
MTEXT
  5
E2
100
AcDbEntity
  8
0
100
AcDbMText
 10
107.0
 20
228.532223
 30
0.0
 40
1.540968
 41
5.0
 71
     5
 72
     5
  1
\C7;\fArial|b0|i0|;\H1.5409676972777;R2
  0
LINE
  5
E3
100
AcDbEntity
  8
0
  6
CONTINUOUS
 62
     7
100
AcDbLine
 10
117.4
 20
230.365482
 30
0.0
 11
117.4
 21
227.319818
 31
0.0
  0
LINE
  5
E4
100
AcDbEntity
  8
0
  6
CONTINUOUS
 62
     7
100
AcDbLine
 10
115.4
 20
227.319818
 30
0.0
 11
117.4
 21
227.319818
 31
0.0
  0
LINE
  5
E5
100
AcDbEntity
  8
0
  6
CONTINUOUS
 62
     7
100
AcDbLine
 10
113.0
 20
226.119818
 30
0.0
 11
112.3
 21
225.419818
 31
0.0
  0
LINE
  5
E6
100
AcDbEntity
  8
0
  6
CONTINUOUS
 62
     7
100
AcDbLine
 10
113.0
 20
226.119818
 30
0.0
 11
113.733333
 21
225.386485
 31
0.0
  0
LINE
  5
E7
100
AcDbEntity
  8
0
  6
CONTINUOUS
 62
     7
100
AcDbLine
 10
113.0
 20
217.081666
 30
0.0
 11
113.0
 21
226.119818
 31
0.0
  0
LWPOLYLINE
  5
E8
100
AcDbEntity
  8
0
  6
CONTINUOUS
 62
     7
100
AcDbPolyline
 90
        3
 70
     0
 10
120.445224
 20
218.925696
 10
90.0
 20
218.925696
 10
89.986259
 20
220.324357
  0
LWPOLYLINE
  5
EA
100
AcDbEntity
  8
0
  6
CONTINUOUS
 62
     7
100
AcDbPolyline
 90
        2
 70
     1
 10
127.729205
 20
204.762848
 42
1.0
 10
123.396491
 20
204.762848
 42
1.0
  0
ELLIPSE
  5
EC
102
{ACAD_REACTORS
330
EB
102
}
100
AcDbEntity
  8
ELECTRICAL
  6
CONTINUOUS
100
AcDbEllipse
 10
121.935614
 20
202.934984
 30
0.0
 11
0.7030461905239683
 21
0.0
 31
0.0
210
0.0
220
0.0
230
1.0
 40
0.867333
 41
4.6724102932613842
 42
1.6107750139181876
  0
ELLIPSE
  5
ED
102
{ACAD_REACTORS
330
EB
102
}
100
AcDbEntity
  8
ELECTRICAL
  6
CONTINUOUS
100
AcDbEllipse
 10
121.935614
 20
204.15356
 30
0.0
 11
0.7030461905239682
 21
0.0
 31
0.0
210
0.0
220
0.0
230
1.0
 40
0.867333
 41
4.6724102932613842
 42
1.6107750139181878
  0
ELLIPSE
  5
EE
102
{ACAD_REACTORS
330
EB
102
}
100
AcDbEntity
  8
ELECTRICAL
  6
CONTINUOUS
100
AcDbEllipse
 10
121.935614
 20
205.372136
 30
0.0
 11
0.7030461905239683
 21
0.0
 31
0.0
210
0.0
220
0.0
230
1.0
 40
0.867333
 41
4.6724102932613842
 42
1.6107750139181878
  0
ELLIPSE
  5
EF
102
{ACAD_REACTORS
330
EB
102
}
100
AcDbEntity
  8
ELECTRICAL
  6
CONTINUOUS
100
AcDbEllipse
 10
121.935614
 20
206.590712
 30
0.0
 11
0.7030461905239679
 21
0.0
 31
0.0
210
0.0
220
0.0
230
1.0
 40
0.867333
 41
4.6724102932613842
 42
1.610775013918188
  0
LINE
  5
F0
102
{ACAD_REACTORS
330
EB
102
}
100
AcDbEntity
  8
ELECTRICAL
  6
CONTINUOUS
100
AcDbLine
 10
121.907515
 20
202.325696
 30
0.0
 11
120.445224
 21
202.325696
 31
0.0
  0
LINE
  5
F1
102
{ACAD_REACTORS
330
EB
102
}
100
AcDbEntity
  8
ELECTRICAL
  6
CONTINUOUS
100
AcDbLine
 10
121.907515
 20
207.2
 30
0.0
 11
120.445224
 21
207.2
 31
0.0
  0
ELLIPSE
  5
F3
102
{ACAD_REACTORS
330
F2
102
}
100
AcDbEntity
  8
ELECTRICAL
  6
CONTINUOUS
100
AcDbEllipse
 10
127.390712
 20
200.290466
 30
0.0
 11
0.0
 21
0.7030461905239686
 31
-0.0
210
0.0
220
0.0
230
1.0
 40
0.867333
 41
4.6724102932613842
 42
1.6107750139181878
  0
ELLIPSE
  5
F4
102
{ACAD_REACTORS
330
F2
102
}
100
AcDbEntity
  8
ELECTRICAL
  6
CONTINUOUS
100
AcDbEllipse
 10
126.172136
 20
200.290466
 30
0.0
 11
0.0
 21
0.7030461905239687
 31
-0.0
210
0.0
220
0.0
230
1.0
 40
0.867333
 41
4.6724102932613842
 42
1.6107750139181876
  0
ELLIPSE
  5
F5
102
{ACAD_REACTORS
330
F2
102
}
100
AcDbEntity
  8
ELECTRICAL
  6
CONTINUOUS
100
AcDbEllipse
 10
124.95356
 20
200.290466
 30
0.0
 11
0.0
 21
0.7030461905239692
 31
-0.0
210
0.0
220
0.0
230
1.0
 40
0.867333
 41
4.6724102932613842
 42
1.6107750139181878
  0
ELLIPSE
  5
F6
102
{ACAD_REACTORS
330
F2
102
}
100
AcDbEntity
  8
ELECTRICAL
  6
CONTINUOUS
100
AcDbEllipse
 10
123.734984
 20
200.290466
 30
0.0
 11
0.0
 21
0.7030461905239686
 31
-0.0
210
0.0
220
0.0
230
1.0
 40
0.867333
 41
4.6724102932613842
 42
1.6107750139181882
  0
LINE
  5
F7
102
{ACAD_REACTORS
330
F2
102
}
100
AcDbEntity
  8
ELECTRICAL
  6
CONTINUOUS
100
AcDbLine
 10
128.0
 20
200.262367
 30
0.0
 11
128.0
 21
198.800076
 31
0.0
  0
LINE
  5
F8
102
{ACAD_REACTORS
330
F2
102
}
100
AcDbEntity
  8
ELECTRICAL
  6
CONTINUOUS
100
AcDbLine
 10
123.125696
 20
200.262367
 30
0.0
 11
123.125696
 21
198.800076
 31
0.0
  0
LWPOLYLINE
  5
F9
100
AcDbEntity
  8
0
  6
CONTINUOUS
 62
     7
100
AcDbPolyline
 90
        3
 70
     0
 10
120.445224
 20
202.325696
 10
90.0
 20
202.325696
 10
90.0
 20
203.801027
  0
LWPOLYLINE
  5
FA
102
{ACAD_REACTORS
330
1C6
102
}
100
AcDbEntity
  8
\U+0411\U+043B\U+043E\U+043A-\U+0441\U+0445\U+0435\U+043C\U+0430
  6
CONTINUOUS
100
AcDbPolyline
 90
        4
 70
     1
 10
47.2
 20
145.863821
 10
73.756242
 20
145.863821
 10
73.756242
 20
149.2
 10
47.2
 20
149.2
  0
MTEXT
  5
FB
100
AcDbEntity
  8
\U+0411\U+043B\U+043E\U+043A-\U+0441\U+0445\U+0435\U+043C\U+0430
100
AcDbMText
 10
60.478121
 20
147.53191
 30
0.0
 40
2.054647
 41
26.556242
 71
     5
 72
     5
  1
\C7;\fArial|b0|i0|;\H2.0546471100301;U\U+0432\U+044B\U+0445(\U+0442\U+0430\U+0445.3\U+043A\U+0430\U+043D\U+0430\U+043B)
  0
LWPOLYLINE
  5
FC
102
{ACAD_REACTORS
330
1C6
102
}
100
AcDbEntity
  8
\U+0411\U+043B\U+043E\U+043A-\U+0441\U+0445\U+0435\U+043C\U+0430
  6
CONTINUOUS
100
AcDbPolyline
 90
        4
 70
     1
 10
47.2
 20
142.663821
 10
73.756242
 20
142.663821
 10
73.756242
 20
146.0
 10
47.2
 20
146.0
  0
MTEXT
  5
FD
100
AcDbEntity
  8
\U+0411\U+043B\U+043E\U+043A-\U+0441\U+0445\U+0435\U+043C\U+0430
100
AcDbMText
 10
60.478121
 20
144.33191
 30
0.0
 40
2.054647
 41
26.556242
 71
     5
 72
     5
  1
\C7;\fArial|b0|i0|;\H2.0546471100301;U\U+0432\U+044B\U+0445(\U+0442\U+0430\U+0445.3\U+043A\U+0430\U+043D\U+0430\U+043B)
  0
LWPOLYLINE
  5
FE
100
AcDbEntity
  8
\U+0411\U+043B\U+043E\U+043A-\U+0441\U+0445\U+0435\U+043C\U+0430
  6
CONTINUOUS
100
AcDbPolyline
 90
        4
 70
     1
 10
47.2
 20
152.53191
 10
73.756242
 20
152.53191
 10
73.756242
 20
155.86809
 10
47.2
 20
155.86809
  0
MTEXT
  5
FF
100
AcDbEntity
  8
\U+0411\U+043B\U+043E\U+043A-\U+0441\U+0445\U+0435\U+043C\U+0430
100
AcDbMText
 10
60.478121
 20
154.2
 30
0.0
 40
2.054647
 41
26.556242
 71
     5
 72
     5
  1
\C7;\fArial|b0|i0|;\H2.0546471100301;3.3\U+0412(\U+0440\U+0435\U+0437.3 \U+043A\U+0430\U+043D\U+0430\U+043B)
  0
LWPOLYLINE
  5
100
102
{ACAD_REACTORS
330
1C6
102
}
100
AcDbEntity
  8
\U+0411\U+043B\U+043E\U+043A-\U+0441\U+0445\U+0435\U+043C\U+0430
  6
CONTINUOUS
100
AcDbPolyline
 90
        4
 70
     1
 10
47.2
 20
149.13191
 10
73.756242
 20
149.13191
 10
73.756242
 20
152.46809
 10
47.2
 20
152.46809
  0
MTEXT
  5
101
100
AcDbEntity
  8
\U+0411\U+043B\U+043E\U+043A-\U+0441\U+0445\U+0435\U+043C\U+0430
100
AcDbMText
 10
60.478121
 20
150.8
 30
0.0
 40
2.054647
 41
26.556242
 71
     5
 72
     5
  1
\C7;\fArial|b0|i0|;\H2.0546471100301;GND(\U+0440\U+0435\U+0437.3 \U+043A\U+0430\U+043D\U+0430\U+043B)
  0
LWPOLYLINE
  5
102
100
AcDbEntity
  8
\U+0411\U+043B\U+043E\U+043A-\U+0441\U+0445\U+0435\U+043C\U+0430
  6
CONTINUOUS
100
AcDbPolyline
 90
        4
 70
     1
 10
47.21075
 20
139.4
 10
73.766992
 20
139.4
 10
73.766992
 20
142.736179
 10
47.21075
 20
142.736179
  0
MTEXT
  5
103
100
AcDbEntity
  8
\U+0411\U+043B\U+043E\U+043A-\U+0441\U+0445\U+0435\U+043C\U+0430
100
AcDbMText
 10
60.488871
 20
141.06809
 30
0.0
 40
2.054647
 41
26.556242
 71
     5
 72
     5
  1
\C7;\fArial|b0|i0|;\H2.0546471100301;\U+041E\U+0421(\U+0440\U+0435\U+0437.3 \U+043A\U+0430\U+043D\U+0430\U+043B)
  0
LWPOLYLINE
  5
104
100
AcDbEntity
  8
\U+0411\U+043B\U+043E\U+043A-\U+0441\U+0445\U+0435\U+043C\U+0430
  6
CONTINUOUS
100
AcDbPolyline
 90
        4
 70
     1
 10
47.21075
 20
136.073853
 10
73.766992
 20
136.073853
 10
73.766992
 20
139.410032
 10
47.21075
 20
139.410032
  0
MTEXT
  5
105
100
AcDbEntity
  8
\U+0411\U+043B\U+043E\U+043A-\U+0441\U+0445\U+0435\U+043C\U+0430
100
AcDbMText
 10
60.488871
 20
137.741943
 30
0.0
 40
2.054647
 41
26.556242
 71
     5
 72
     5
  1
\C7;\fArial|b0|i0|;\H2.0546471100301;U\U+0443\U+043F\U+0440\U+0430\U+0432\U+043B(3 \U+043A\U+0430\U+043D\U+0430\U+043B)
  0
LWPOLYLINE
  5
106
102
{ACAD_REACTORS
330
1C6
102
}
100
AcDbEntity
  8
\U+0411\U+043B\U+043E\U+043A-\U+0441\U+0445\U+0435\U+043C\U+0430
  6
CONTINUOUS
100
AcDbPolyline
 90
        4
 70
     1
 10
73.198374
 20
142.823812
 10
81.189209
 20
142.823812
 10
81.189209
 20
145.842056
 10
73.198374
 20
145.842056
  0
MTEXT
  5
107
100
AcDbEntity
  8
\U+0411\U+043B\U+043E\U+043A-\U+0441\U+0445\U+0435\U+043C\U+0430
100
AcDbMText
 10
77.193792
 20
144.332934
 30
0.0
 40
2.054647
 41
7.990835
 71
     5
 72
     5
  1
\C7;\fArial|b0|i0|;\H2.0546471100301;32
  0
LWPOLYLINE
  5
108
102
{ACAD_REACTORS
330
1C6
102
}
100
AcDbEntity
  8
\U+0411\U+043B\U+043E\U+043A-\U+0441\U+0445\U+0435\U+043C\U+0430
  6
CONTINUOUS
100
AcDbPolyline
 90
        4
 70
     1
 10
73.198374
 20
152.52333
 10
81.189209
 20
152.52333
 10
81.189209
 20
155.853414
 10
73.198374
 20
155.853414
  0
MTEXT
  5
109
100
AcDbEntity
  8
\U+0411\U+043B\U+043E\U+043A-\U+0441\U+0445\U+0435\U+043C\U+0430
100
AcDbMText
 10
77.193792
 20
154.188372
 30
0.0
 40
2.054647
 41
7.990835
 71
     5
 72
     5
  1
\C7;\fArial|b0|i0|;\H2.0546471100301;29
  0
LWPOLYLINE
  5
10A
102
{ACAD_REACTORS
330
1C6
102
}
100
AcDbEntity
  8
\U+0411\U+043B\U+043E\U+043A-\U+0441\U+0445\U+0435\U+043C\U+0430
  6
CONTINUOUS
100
AcDbPolyline
 90
        4
 70
     1
 10
73.198374
 20
149.12163
 10
81.189209
 20
149.12163
 10
81.189209
 20
152.451715
 10
73.198374
 20
152.451715
  0
MTEXT
  5
10B
100
AcDbEntity
  8
\U+0411\U+043B\U+043E\U+043A-\U+0441\U+0445\U+0435\U+043C\U+0430
100
AcDbMText
 10
77.193792
 20
150.786673
 30
0.0
 40
2.054647
 41
7.990835
 71
     5
 72
     5
  1
\C7;\fArial|b0|i0|;\H2.0546471100301;30
  0
LWPOLYLINE
  5
10C
102
{ACAD_REACTORS
330
1C6
102
}
100
AcDbEntity
  8
\U+0411\U+043B\U+043E\U+043A-\U+0441\U+0445\U+0435\U+043C\U+0430
  6
CONTINUOUS
100
AcDbPolyline
 90
        4
 70
     1
 10
73.198374
 20
145.719931
 10
81.189209
 20
145.719931
 10
81.189209
 20
149.050015
 10
73.198374
 20
149.050015
  0
MTEXT
  5
10D
100
AcDbEntity
  8
\U+0411\U+043B\U+043E\U+043A-\U+0441\U+0445\U+0435\U+043C\U+0430
100
AcDbMText
 10
77.193792
 20
147.384973
 30
0.0
 40
2.054647
 41
7.990835
 71
     5
 72
     5
  1
\C7;\fArial|b0|i0|;\H2.0546471100301;31
  0
LWPOLYLINE
  5
10E
102
{ACAD_REACTORS
330
1C6
102
}
100
AcDbEntity
  8
\U+0411\U+043B\U+043E\U+043A-\U+0441\U+0445\U+0435\U+043C\U+0430
  6
CONTINUOUS
100
AcDbPolyline
 90
        4
 70
     1
 10
73.209165
 20
139.401699
 10
81.2
 20
139.401699
 10
81.2
 20
142.731784
 10
73.209165
 20
142.731784
  0
MTEXT
  5
10F
100
AcDbEntity
  8
\U+0411\U+043B\U+043E\U+043A-\U+0441\U+0445\U+0435\U+043C\U+0430
100
AcDbMText
 10
77.204582
 20
141.066742
 30
0.0
 40
2.054647
 41
7.990835
 71
     5
 72
     5
  1
\C7;\fArial|b0|i0|;\H2.0546471100301;33
  0
LWPOLYLINE
  5
110
102
{ACAD_REACTORS
330
1C6
102
}
100
AcDbEntity
  8
\U+0411\U+043B\U+043E\U+043A-\U+0441\U+0445\U+0435\U+043C\U+0430
  6
CONTINUOUS
100
AcDbPolyline
 90
        4
 70
     1
 10
73.209165
 20
136.0
 10
81.2
 20
136.0
 10
81.2
 20
139.330085
 10
73.209165
 20
139.330085
  0
MTEXT
  5
111
100
AcDbEntity
  8
\U+0411\U+043B\U+043E\U+043A-\U+0441\U+0445\U+0435\U+043C\U+0430
100
AcDbMText
 10
77.204582
 20
137.665042
 30
0.0
 40
2.054647
 41
7.990835
 71
     5
 72
     5
  1
\C7;\fArial|b0|i0|;\H2.0546471100301;34
  0
LINE
  5
112
100
AcDbEntity
  8
0
  6
CONTINUOUS
 62
     7
100
AcDbLine
 10
81.189209
 20
147.384973
 30
0.0
 11
90.010874
 21
147.407603
 31
0.0
  0
LINE
  5
113
100
AcDbEntity
  8
0
  6
CONTINUOUS
 62
     7
100
AcDbLine
 10
81.189209
 20
144.332934
 30
0.0
 11
90.010874
 21
144.355564
 31
0.0
  0
LINE
  5
114
100
AcDbEntity
  8
0
  6
CONTINUOUS
 62
     7
100
AcDbLine
 10
81.2
 20
141.066742
 30
0.0
 11
108.282297
 21
141.066742
 31
0.0
  0
LINE
  5
115
100
AcDbEntity
  8
0
  6
CONTINUOUS
 62
     7
100
AcDbLine
 10
81.2
 20
137.665042
 30
0.0
 11
120.445224
 21
137.8
 31
0.0
  0
LINE
  5
116
100
AcDbEntity
  8
0
  6
CONTINUOUS
 62
     7
100
AcDbLine
 10
123.125696
 20
215.400076
 30
0.0
 11
116.0
 21
215.400076
 31
0.0
  0
LINE
  5
117
100
AcDbEntity
  8
0
  6
CONTINUOUS
 62
     7
100
AcDbLine
 10
116.0
 20
215.400076
 30
0.0
 11
116.0
 21
177.439914
 31
0.0
  0
LINE
  5
118
100
AcDbEntity
  8
0
  6
CONTINUOUS
 62
     7
100
AcDbLine
 10
123.125696
 20
198.800076
 30
0.0
 11
116.0
 21
198.800076
 31
0.0
  0
LWPOLYLINE
  5
119
100
AcDbEntity
  8
0
  6
CONTINUOUS
 62
     7
100
AcDbPolyline
 90
        3
 70
     0
 10
128.0
 20
215.400076
 10
128.0
 20
212.0
 10
119.0
 20
212.0
  0
LWPOLYLINE
  5
11A
100
AcDbEntity
  8
0
  6
CONTINUOUS
 62
     7
100
AcDbPolyline
 90
        3
 70
     0
 10
128.0
 20
198.800076
 10
128.0
 20
196.0
 10
119.0
 20
196.0
  0
LINE
  5
11B
100
AcDbEntity
  8
0
  6
CONTINUOUS
 62
     7
100
AcDbLine
 10
119.0
 20
212.0
 30
0.0
 11
119.0
 21
174.075966
 31
0.0
  0
LINE
  5
11C
100
AcDbEntity
  8
0
  6
CONTINUOUS
 62
     7
100
AcDbLine
 10
81.189209
 20
154.188372
 30
0.0
 11
112.8
 21
154.165482
 31
0.0
  0
LINE
  5
11D
100
AcDbEntity
  8
0
  6
CONTINUOUS
 62
     7
100
AcDbLine
 10
81.189209
 20
150.786673
 30
0.0
 11
105.8
 21
150.786673
 31
0.0
  0
LWPOLYLINE
  5
11E
100
AcDbEntity
  8
0
  6
CONTINUOUS
 62
     7
100
AcDbPolyline
 90
        5
 70
     0
 10
110.8
 20
150.186485
 10
110.8
 20
151.919818
 10
105.8
 20
151.919818
 10
105.8
 20
149.919818
 10
110.8
 20
149.919818
  0
LINE
  5
11F
100
AcDbEntity
  8
0
  6
CONTINUOUS
 62
     7
100
AcDbLine
 10
110.8
 20
150.186485
 30
0.0
 11
110.8
 21
149.919818
 31
0.0
  0
LWPOLYLINE
  5
120
102
{ACAD_REACTORS
330
1C6
102
}
100
AcDbEntity
  8
0
  6
CONTINUOUS
 62
     7
100
AcDbPolyline
 90
        4
 70
     1
 10
99.9
 20
151.5
 10
104.9
 20
151.5
 10
104.9
 20
153.564445
 10
99.9
 20
153.564445
  0
MTEXT
  5
121
100
AcDbEntity
  8
0
100
AcDbMText
 10
102.4
 20
152.532223
 30
0.0
 40
1.540968
 41
5.0
 71
     5
 72
     5
  1
\C7;\fArial|b0|i0|;\H1.5409676972777;R3
  0
LINE
  5
122
100
AcDbEntity
  8
0
  6
CONTINUOUS
 62
     7
100
AcDbLine
 10
112.8
 20
154.165482
 30
0.0
 11
112.8
 21
151.119818
 31
0.0
  0
LINE
  5
123
100
AcDbEntity
  8
0
  6
CONTINUOUS
 62
     7
100
AcDbLine
 10
110.8
 20
151.119818
 30
0.0
 11
112.8
 21
151.119818
 31
0.0
  0
LINE
  5
124
100
AcDbEntity
  8
0
  6
CONTINUOUS
 62
     7
100
AcDbLine
 10
108.4
 20
149.919818
 30
0.0
 11
107.7
 21
149.219818
 31
0.0
  0
LINE
  5
125
100
AcDbEntity
  8
0
  6
CONTINUOUS
 62
     7
100
AcDbLine
 10
108.4
 20
149.919818
 30
0.0
 11
109.133333
 21
149.186485
 31
0.0
  0
LINE
  5
126
100
AcDbEntity
  8
0
  6
CONTINUOUS
 62
     7
100
AcDbLine
 10
108.282297
 20
141.066742
 30
0.0
 11
108.4
 21
149.919818
 31
0.0
  0
LWPOLYLINE
  5
128
100
AcDbEntity
  8
0
  6
CONTINUOUS
 62
     7
100
AcDbPolyline
 90
        2
 70
     1
 10
127.729205
 20
135.362848
 42
1.0
 10
123.396491
 20
135.362848
 42
1.0
  0
ELLIPSE
  5
12A
102
{ACAD_REACTORS
330
129
102
}
100
AcDbEntity
  8
ELECTRICAL
  6
CONTINUOUS
100
AcDbEllipse
 10
121.935614
 20
133.534984
 30
0.0
 11
0.7030461905239683
 21
0.0
 31
0.0
210
0.0
220
0.0
230
1.0
 40
0.867333
 41
4.6724102932613842
 42
1.6107750139181876
  0
ELLIPSE
  5
12B
102
{ACAD_REACTORS
330
129
102
}
100
AcDbEntity
  8
ELECTRICAL
  6
CONTINUOUS
100
AcDbEllipse
 10
121.935614
 20
134.75356
 30
0.0
 11
0.7030461905239682
 21
0.0
 31
0.0
210
0.0
220
0.0
230
1.0
 40
0.867333
 41
4.6724102932613842
 42
1.6107750139181878
  0
ELLIPSE
  5
12C
102
{ACAD_REACTORS
330
129
102
}
100
AcDbEntity
  8
ELECTRICAL
  6
CONTINUOUS
100
AcDbEllipse
 10
121.935614
 20
135.972136
 30
0.0
 11
0.7030461905239683
 21
0.0
 31
0.0
210
0.0
220
0.0
230
1.0
 40
0.867333
 41
4.6724102932613842
 42
1.6107750139181878
  0
ELLIPSE
  5
12D
102
{ACAD_REACTORS
330
129
102
}
100
AcDbEntity
  8
ELECTRICAL
  6
CONTINUOUS
100
AcDbEllipse
 10
121.935614
 20
137.190712
 30
0.0
 11
0.7030461905239679
 21
0.0
 31
0.0
210
0.0
220
0.0
230
1.0
 40
0.867333
 41
4.6724102932613842
 42
1.610775013918188
  0
LINE
  5
12E
102
{ACAD_REACTORS
330
129
102
}
100
AcDbEntity
  8
ELECTRICAL
  6
CONTINUOUS
100
AcDbLine
 10
121.907515
 20
132.925696
 30
0.0
 11
120.445224
 21
132.925696
 31
0.0
  0
LINE
  5
12F
102
{ACAD_REACTORS
330
129
102
}
100
AcDbEntity
  8
ELECTRICAL
  6
CONTINUOUS
100
AcDbLine
 10
121.907515
 20
137.8
 30
0.0
 11
120.445224
 21
137.8
 31
0.0
  0
ELLIPSE
  5
131
102
{ACAD_REACTORS
330
130
102
}
100
AcDbEntity
  8
ELECTRICAL
  6
CONTINUOUS
100
AcDbEllipse
 10
127.390712
 20
130.890466
 30
0.0
 11
0.0
 21
0.7030461905239686
 31
-0.0
210
0.0
220
0.0
230
1.0
 40
0.867333
 41
4.6724102932613842
 42
1.6107750139181878
  0
ELLIPSE
  5
132
102
{ACAD_REACTORS
330
130
102
}
100
AcDbEntity
  8
ELECTRICAL
  6
CONTINUOUS
100
AcDbEllipse
 10
126.172136
 20
130.890466
 30
0.0
 11
0.0
 21
0.7030461905239687
 31
-0.0
210
0.0
220
0.0
230
1.0
 40
0.867333
 41
4.6724102932613842
 42
1.6107750139181876
  0
ELLIPSE
  5
133
102
{ACAD_REACTORS
330
130
102
}
100
AcDbEntity
  8
ELECTRICAL
  6
CONTINUOUS
100
AcDbEllipse
 10
124.95356
 20
130.890466
 30
0.0
 11
0.0
 21
0.7030461905239692
 31
-0.0
210
0.0
220
0.0
230
1.0
 40
0.867333
 41
4.6724102932613842
 42
1.6107750139181878
  0
ELLIPSE
  5
134
102
{ACAD_REACTORS
330
130
102
}
100
AcDbEntity
  8
ELECTRICAL
  6
CONTINUOUS
100
AcDbEllipse
 10
123.734984
 20
130.890466
 30
0.0
 11
0.0
 21
0.7030461905239686
 31
-0.0
210
0.0
220
0.0
230
1.0
 40
0.867333
 41
4.6724102932613842
 42
1.6107750139181882
  0
LINE
  5
135
102
{ACAD_REACTORS
330
130
102
}
100
AcDbEntity
  8
ELECTRICAL
  6
CONTINUOUS
100
AcDbLine
 10
128.0
 20
130.862367
 30
0.0
 11
128.0
 21
129.400076
 31
0.0
  0
LINE
  5
136
102
{ACAD_REACTORS
330
130
102
}
100
AcDbEntity
  8
ELECTRICAL
  6
CONTINUOUS
100
AcDbLine
 10
123.125696
 20
130.862367
 30
0.0
 11
123.125696
 21
129.400076
 31
0.0
  0
LINE
  5
137
100
AcDbEntity
  8
0
  6
CONTINUOUS
 62
     7
100
AcDbLine
 10
123.125696
 20
129.400076
 30
0.0
 11
116.0
 21
129.400076
 31
0.0
  0
LWPOLYLINE
  5
138
100
AcDbEntity
  8
0
  6
CONTINUOUS
 62
     7
100
AcDbPolyline
 90
        3
 70
     0
 10
128.0
 20
129.400076
 10
128.0
 20
126.6
 10
119.0
 20
126.6
  0
LINE
  5
139
100
AcDbEntity
  8
0
  6
CONTINUOUS
 62
     7
100
AcDbLine
 10
116.0
 20
177.439914
 30
0.0
 11
116.0
 21
106.190043
 31
0.0
  0
LINE
  5
13A
100
AcDbEntity
  8
0
  6
CONTINUOUS
 62
     7
100
AcDbLine
 10
119.0
 20
174.075966
 30
0.0
 11
119.0
 21
103.389968
 31
0.0
  0
LWPOLYLINE
  5
13B
102
{ACAD_REACTORS
330
1C6
102
}
100
AcDbEntity
  8
\U+0411\U+043B\U+043E\U+043A-\U+0441\U+0445\U+0435\U+043C\U+0430
  6
CONTINUOUS
100
AcDbPolyline
 90
        4
 70
     1
 10
47.2
 20
125.995731
 10
73.756242
 20
125.995731
 10
73.756242
 20
129.33191
 10
47.2
 20
129.33191
  0
MTEXT
  5
13C
100
AcDbEntity
  8
\U+0411\U+043B\U+043E\U+043A-\U+0441\U+0445\U+0435\U+043C\U+0430
100
AcDbMText
 10
60.478121
 20
127.663821
 30
0.0
 40
2.054647
 41
26.556242
 71
     5
 72
     5
  1
\C7;\fArial|b0|i0|;\H2.0546471100301;GND(\U+0440\U+0435\U+0437.4 \U+043A\U+0430\U+043D\U+0430\U+043B)
  0
LWPOLYLINE
  5
13D
102
{ACAD_REACTORS
330
1C6
102
}
100
AcDbEntity
  8
\U+0411\U+043B\U+043E\U+043A-\U+0441\U+0445\U+0435\U+043C\U+0430
  6
CONTINUOUS
100
AcDbPolyline
 90
        4
 70
     1
 10
47.2
 20
122.795731
 10
73.756242
 20
122.795731
 10
73.756242
 20
126.13191
 10
47.2
 20
126.13191
  0
MTEXT
  5
13E
100
AcDbEntity
  8
\U+0411\U+043B\U+043E\U+043A-\U+0441\U+0445\U+0435\U+043C\U+0430
100
AcDbMText
 10
60.478121
 20
124.463821
 30
0.0
 40
2.054647
 41
26.556242
 71
     5
 72
     5
  1
\C7;\fArial|b0|i0|;\H2.0546471100301;U\U+0432\U+044B\U+0445(\U+0442\U+0430\U+0445.4\U+043A\U+0430\U+043D\U+0430\U+043B)
  0
LWPOLYLINE
  5
13F
100
AcDbEntity
  8
\U+0411\U+043B\U+043E\U+043A-\U+0441\U+0445\U+0435\U+043C\U+0430
  6
CONTINUOUS
100
AcDbPolyline
 90
        4
 70
     1
 10
47.2
 20
132.663821
 10
73.756242
 20
132.663821
 10
73.756242
 20
136.0
 10
47.2
 20
136.0
  0
MTEXT
  5
140
100
AcDbEntity
  8
\U+0411\U+043B\U+043E\U+043A-\U+0441\U+0445\U+0435\U+043C\U+0430
100
AcDbMText
 10
60.478121
 20
134.33191
 30
0.0
 40
2.054647
 41
26.556242
 71
     5
 72
     5
  1
\C7;\fArial|b0|i0|;\H2.0546471100301;U\U+0443\U+043F\U+0440\U+0430\U+0432\U+043B(3 \U+043A\U+0430\U+043D\U+0430\U+043B)
  0
LWPOLYLINE
  5
141
102
{ACAD_REACTORS
330
1C6
102
}
100
AcDbEntity
  8
\U+0411\U+043B\U+043E\U+043A-\U+0441\U+0445\U+0435\U+043C\U+0430
  6
CONTINUOUS
100
AcDbPolyline
 90
        4
 70
     1
 10
47.2
 20
129.263821
 10
73.756242
 20
129.263821
 10
73.756242
 20
132.6
 10
47.2
 20
132.6
  0
MTEXT
  5
142
100
AcDbEntity
  8
\U+0411\U+043B\U+043E\U+043A-\U+0441\U+0445\U+0435\U+043C\U+0430
100
AcDbMText
 10
60.478121
 20
130.93191
 30
0.0
 40
2.054647
 41
26.556242
 71
     5
 72
     5
  1
\C7;\fArial|b0|i0|;\H2.0546471100301;3.3\U+0412(\U+0440\U+0435\U+0437.4 \U+043A\U+0430\U+043D\U+0430\U+043B)
  0
LWPOLYLINE
  5
143
100
AcDbEntity
  8
\U+0411\U+043B\U+043E\U+043A-\U+0441\U+0445\U+0435\U+043C\U+0430
  6
CONTINUOUS
100
AcDbPolyline
 90
        4
 70
     1
 10
47.21075
 20
119.53191
 10
73.766992
 20
119.53191
 10
73.766992
 20
122.86809
 10
47.21075
 20
122.86809
  0
MTEXT
  5
144
100
AcDbEntity
  8
\U+0411\U+043B\U+043E\U+043A-\U+0441\U+0445\U+0435\U+043C\U+0430
100
AcDbMText
 10
60.488871
 20
121.2
 30
0.0
 40
2.054647
 41
26.556242
 71
     5
 72
     5
  1
\C7;\fArial|b0|i0|;\H2.0546471100301;U\U+0432\U+044B\U+0445(\U+0442\U+0430\U+0445.4\U+043A\U+0430\U+043D\U+0430\U+043B)
  0
LWPOLYLINE
  5
145
100
AcDbEntity
  8
\U+0411\U+043B\U+043E\U+043A-\U+0441\U+0445\U+0435\U+043C\U+0430
  6
CONTINUOUS
100
AcDbPolyline
 90
        4
 70
     1
 10
47.21075
 20
116.205764
 10
73.766992
 20
116.205764
 10
73.766992
 20
119.541943
 10
47.21075
 20
119.541943
  0
MTEXT
  5
146
100
AcDbEntity
  8
\U+0411\U+043B\U+043E\U+043A-\U+0441\U+0445\U+0435\U+043C\U+0430
100
AcDbMText
 10
60.488871
 20
117.873853
 30
0.0
 40
2.054647
 41
26.556242
 71
     5
 72
     5
  1
\C7;\fArial|b0|i0|;\H2.0546471100301;\U+041E\U+0421(\U+0440\U+0435\U+0437.4 \U+043A\U+0430\U+043D\U+0430\U+043B)
  0
LWPOLYLINE
  5
147
102
{ACAD_REACTORS
330
1C6
102
}
100
AcDbEntity
  8
\U+0411\U+043B\U+043E\U+043A-\U+0441\U+0445\U+0435\U+043C\U+0430
  6
CONTINUOUS
100
AcDbPolyline
 90
        4
 70
     1
 10
73.198374
 20
122.955722
 10
81.189209
 20
122.955722
 10
81.189209
 20
125.973966
 10
73.198374
 20
125.973966
  0
MTEXT
  5
148
100
AcDbEntity
  8
\U+0411\U+043B\U+043E\U+043A-\U+0441\U+0445\U+0435\U+043C\U+0430
100
AcDbMText
 10
77.193792
 20
124.464844
 30
0.0
 40
2.054647
 41
7.990835
 71
     5
 72
     5
  1
\C7;\fArial|b0|i0|;\H2.0546471100301;38
  0
LWPOLYLINE
  5
149
102
{ACAD_REACTORS
330
1C6
102
}
100
AcDbEntity
  8
\U+0411\U+043B\U+043E\U+043A-\U+0441\U+0445\U+0435\U+043C\U+0430
  6
CONTINUOUS
100
AcDbPolyline
 90
        4
 70
     1
 10
73.198374
 20
132.65524
 10
81.189209
 20
132.65524
 10
81.189209
 20
135.985325
 10
73.198374
 20
135.985325
  0
MTEXT
  5
14A
100
AcDbEntity
  8
\U+0411\U+043B\U+043E\U+043A-\U+0441\U+0445\U+0435\U+043C\U+0430
100
AcDbMText
 10
77.193792
 20
134.320282
 30
0.0
 40
2.054647
 41
7.990835
 71
     5
 72
     5
  1
\C7;\fArial|b0|i0|;\H2.0546471100301;35
  0
LWPOLYLINE
  5
14B
102
{ACAD_REACTORS
330
1C6
102
}
100
AcDbEntity
  8
\U+0411\U+043B\U+043E\U+043A-\U+0441\U+0445\U+0435\U+043C\U+0430
  6
CONTINUOUS
100
AcDbPolyline
 90
        4
 70
     1
 10
73.198374
 20
129.253541
 10
81.189209
 20
129.253541
 10
81.189209
 20
132.583625
 10
73.198374
 20
132.583625
  0
MTEXT
  5
14C
100
AcDbEntity
  8
\U+0411\U+043B\U+043E\U+043A-\U+0441\U+0445\U+0435\U+043C\U+0430
100
AcDbMText
 10
77.193792
 20
130.918583
 30
0.0
 40
2.054647
 41
7.990835
 71
     5
 72
     5
  1
\C7;\fArial|b0|i0|;\H2.0546471100301;36
  0
LWPOLYLINE
  5
14D
102
{ACAD_REACTORS
330
1C6
102
}
100
AcDbEntity
  8
\U+0411\U+043B\U+043E\U+043A-\U+0441\U+0445\U+0435\U+043C\U+0430
  6
CONTINUOUS
100
AcDbPolyline
 90
        4
 70
     1
 10
73.198374
 20
125.851841
 10
81.189209
 20
125.851841
 10
81.189209
 20
129.181926
 10
73.198374
 20
129.181926
  0
MTEXT
  5
14E
100
AcDbEntity
  8
\U+0411\U+043B\U+043E\U+043A-\U+0441\U+0445\U+0435\U+043C\U+0430
100
AcDbMText
 10
77.193792
 20
127.516884
 30
0.0
 40
2.054647
 41
7.990835
 71
     5
 72
     5
  1
\C7;\fArial|b0|i0|;\H2.0546471100301;37
  0
LWPOLYLINE
  5
14F
102
{ACAD_REACTORS
330
1C6
102
}
100
AcDbEntity
  8
\U+0411\U+043B\U+043E\U+043A-\U+0441\U+0445\U+0435\U+043C\U+0430
  6
CONTINUOUS
100
AcDbPolyline
 90
        4
 70
     1
 10
73.209165
 20
119.53361
 10
81.2
 20
119.53361
 10
81.2
 20
122.863695
 10
73.209165
 20
122.863695
  0
MTEXT
  5
150
100
AcDbEntity
  8
\U+0411\U+043B\U+043E\U+043A-\U+0441\U+0445\U+0435\U+043C\U+0430
100
AcDbMText
 10
77.204582
 20
121.198652
 30
0.0
 40
2.054647
 41
7.990835
 71
     5
 72
     5
  1
\C7;\fArial|b0|i0|;\H2.0546471100301;39
  0
LWPOLYLINE
  5
151
102
{ACAD_REACTORS
330
1C6
102
}
100
AcDbEntity
  8
\U+0411\U+043B\U+043E\U+043A-\U+0441\U+0445\U+0435\U+043C\U+0430
  6
CONTINUOUS
100
AcDbPolyline
 90
        4
 70
     1
 10
73.209165
 20
116.13191
 10
81.2
 20
116.13191
 10
81.2
 20
119.461995
 10
73.209165
 20
119.461995
  0
MTEXT
  5
152
100
AcDbEntity
  8
\U+0411\U+043B\U+043E\U+043A-\U+0441\U+0445\U+0435\U+043C\U+0430
100
AcDbMText
 10
77.204582
 20
117.796953
 30
0.0
 40
2.054647
 41
7.990835
 71
     5
 72
     5
  1
\C7;\fArial|b0|i0|;\H2.0546471100301;40
  0
LWPOLYLINE
  5
153
100
AcDbEntity
  8
0
  6
CONTINUOUS
 62
     7
100
AcDbPolyline
 90
        4
 70
     0
 10
81.189209
 20
134.320282
 10
90.0
 20
134.320282
 10
90.0
 20
132.733333
 10
120.445224
 20
132.925696
  0
LINE
  5
154
100
AcDbEntity
  8
0
  6
CONTINUOUS
 62
     7
100
AcDbLine
 10
81.2
 20
124.157416
 30
0.0
 11
90.021665
 21
124.180046
 31
0.0
  0
LINE
  5
155
100
AcDbEntity
  8
0
  6
CONTINUOUS
 62
     7
100
AcDbLine
 10
81.2
 20
121.105377
 30
0.0
 11
90.021665
 21
121.128007
 31
0.0
  0
LINE
  5
156
100
AcDbEntity
  8
0
  6
CONTINUOUS
 62
     7
100
AcDbLine
 10
81.210791
 20
117.839185
 30
0.0
 11
108.293088
 21
117.839185
 31
0.0
  0
LINE
  5
157
100
AcDbEntity
  8
0
  6
CONTINUOUS
 62
     7
100
AcDbLine
 10
81.2
 20
130.960815
 30
0.0
 11
112.810791
 21
130.937925
 31
0.0
  0
LINE
  5
158
100
AcDbEntity
  8
0
  6
CONTINUOUS
 62
     7
100
AcDbLine
 10
81.2
 20
127.559116
 30
0.0
 11
105.810791
 21
127.559116
 31
0.0
  0
LWPOLYLINE
  5
159
100
AcDbEntity
  8
0
  6
CONTINUOUS
 62
     7
100
AcDbPolyline
 90
        5
 70
     0
 10
110.810791
 20
126.958928
 10
110.810791
 20
128.692261
 10
105.810791
 20
128.692261
 10
105.810791
 20
126.692261
 10
110.810791
 20
126.692261
  0
LINE
  5
15A
100
AcDbEntity
  8
0
  6
CONTINUOUS
 62
     7
100
AcDbLine
 10
110.810791
 20
126.958928
 30
0.0
 11
110.810791
 21
126.692261
 31
0.0
  0
LWPOLYLINE
  5
15B
102
{ACAD_REACTORS
330
1C6
102
}
100
AcDbEntity
  8
0
  6
CONTINUOUS
 62
     7
100
AcDbPolyline
 90
        4
 70
     1
 10
99.910791
 20
128.0
 10
104.910791
 20
128.0
 10
104.910791
 20
130.064445
 10
99.910791
 20
130.064445
  0
MTEXT
  5
15C
100
AcDbEntity
  8
0
100
AcDbMText
 10
102.410791
 20
129.032223
 30
0.0
 40
1.540968
 41
5.0
 71
     5
 72
     5
  1
\C7;\fArial|b0|i0|;\H1.5409676972777;R4
  0
LINE
  5
15D
100
AcDbEntity
  8
0
  6
CONTINUOUS
 62
     7
100
AcDbLine
 10
112.810791
 20
130.937925
 30
0.0
 11
112.810791
 21
127.892261
 31
0.0
  0
LINE
  5
15E
100
AcDbEntity
  8
0
  6
CONTINUOUS
 62
     7
100
AcDbLine
 10
110.810791
 20
127.892261
 30
0.0
 11
112.810791
 21
127.892261
 31
0.0
  0
LINE
  5
15F
100
AcDbEntity
  8
0
  6
CONTINUOUS
 62
     7
100
AcDbLine
 10
108.410791
 20
126.692261
 30
0.0
 11
107.710791
 21
125.992261
 31
0.0
  0
LINE
  5
160
100
AcDbEntity
  8
0
  6
CONTINUOUS
 62
     7
100
AcDbLine
 10
108.410791
 20
126.692261
 30
0.0
 11
109.144124
 21
125.958928
 31
0.0
  0
LINE
  5
161
100
AcDbEntity
  8
0
  6
CONTINUOUS
 62
     7
100
AcDbLine
 10
108.293088
 20
117.839185
 30
0.0
 11
108.410791
 21
126.692261
 31
0.0
  0
LWPOLYLINE
  5
162
100
AcDbEntity
  8
\U+0411\U+043B\U+043E\U+043A-\U+0441\U+0445\U+0435\U+043C\U+0430
  6
CONTINUOUS
100
AcDbPolyline
 90
        4
 70
     1
 10
47.21075
 20
112.863821
 10
73.766992
 20
112.863821
 10
73.766992
 20
116.2
 10
47.21075
 20
116.2
  0
MTEXT
  5
163
100
AcDbEntity
  8
\U+0411\U+043B\U+043E\U+043A-\U+0441\U+0445\U+0435\U+043C\U+0430
100
AcDbMText
 10
60.488871
 20
114.53191
 30
0.0
 40
2.054647
 41
26.556242
 71
     5
 72
     5
  1
\C7;\fArial|b0|i0|;\H2.0546471100301;U\U+0443\U+043F\U+0440\U+0430\U+0432\U+043B(4 \U+043A\U+0430\U+043D\U+0430\U+043B)
  0
LWPOLYLINE
  5
164
102
{ACAD_REACTORS
330
1C6
102
}
100
AcDbEntity
  8
\U+0411\U+043B\U+043E\U+043A-\U+0441\U+0445\U+0435\U+043C\U+0430
  6
CONTINUOUS
100
AcDbPolyline
 90
        4
 70
     1
 10
73.209165
 20
112.789968
 10
81.2
 20
112.789968
 10
81.2
 20
116.120052
 10
73.209165
 20
116.120052
  0
MTEXT
  5
165
100
AcDbEntity
  8
\U+0411\U+043B\U+043E\U+043A-\U+0441\U+0445\U+0435\U+043C\U+0430
100
AcDbMText
 10
77.204582
 20
114.45501
 30
0.0
 40
2.054647
 41
7.990835
 71
     5
 72
     5
  1
\C7;\fArial|b0|i0|;\H2.0546471100301;41
  0
LINE
  5
166
100
AcDbEntity
  8
0
  6
CONTINUOUS
 62
     7
100
AcDbLine
 10
81.2
 20
114.45501
 30
0.0
 11
120.445224
 21
114.589968
 31
0.0
  0
LWPOLYLINE
  5
168
100
AcDbEntity
  8
0
  6
CONTINUOUS
 62
     7
100
AcDbPolyline
 90
        2
 70
     1
 10
127.729205
 20
112.152816
 42
1.0
 10
123.396491
 20
112.152816
 42
1.0
  0
ELLIPSE
  5
16A
102
{ACAD_REACTORS
330
169
102
}
100
AcDbEntity
  8
ELECTRICAL
  6
CONTINUOUS
100
AcDbEllipse
 10
121.935614
 20
110.324952
 30
0.0
 11
0.7030461905239683
 21
0.0
 31
0.0
210
0.0
220
0.0
230
1.0
 40
0.867333
 41
4.6724102932613842
 42
1.6107750139181876
  0
ELLIPSE
  5
16B
102
{ACAD_REACTORS
330
169
102
}
100
AcDbEntity
  8
ELECTRICAL
  6
CONTINUOUS
100
AcDbEllipse
 10
121.935614
 20
111.543528
 30
0.0
 11
0.7030461905239682
 21
0.0
 31
0.0
210
0.0
220
0.0
230
1.0
 40
0.867333
 41
4.6724102932613842
 42
1.6107750139181878
  0
ELLIPSE
  5
16C
102
{ACAD_REACTORS
330
169
102
}
100
AcDbEntity
  8
ELECTRICAL
  6
CONTINUOUS
100
AcDbEllipse
 10
121.935614
 20
112.762104
 30
0.0
 11
0.7030461905239683
 21
0.0
 31
0.0
210
0.0
220
0.0
230
1.0
 40
0.867333
 41
4.6724102932613842
 42
1.6107750139181878
  0
ELLIPSE
  5
16D
102
{ACAD_REACTORS
330
169
102
}
100
AcDbEntity
  8
ELECTRICAL
  6
CONTINUOUS
100
AcDbEllipse
 10
121.935614
 20
113.98068
 30
0.0
 11
0.7030461905239679
 21
0.0
 31
0.0
210
0.0
220
0.0
230
1.0
 40
0.867333
 41
4.6724102932613842
 42
1.610775013918188
  0
LINE
  5
16E
102
{ACAD_REACTORS
330
169
102
}
100
AcDbEntity
  8
ELECTRICAL
  6
CONTINUOUS
100
AcDbLine
 10
121.907515
 20
109.715664
 30
0.0
 11
120.445224
 21
109.715664
 31
0.0
  0
LINE
  5
16F
102
{ACAD_REACTORS
330
169
102
}
100
AcDbEntity
  8
ELECTRICAL
  6
CONTINUOUS
100
AcDbLine
 10
121.907515
 20
114.589968
 30
0.0
 11
120.445224
 21
114.589968
 31
0.0
  0
ELLIPSE
  5
171
102
{ACAD_REACTORS
330
170
102
}
100
AcDbEntity
  8
ELECTRICAL
  6
CONTINUOUS
100
AcDbEllipse
 10
127.390712
 20
107.680434
 30
0.0
 11
0.0
 21
0.7030461905239686
 31
-0.0
210
0.0
220
0.0
230
1.0
 40
0.867333
 41
4.6724102932613842
 42
1.6107750139181878
  0
ELLIPSE
  5
172
102
{ACAD_REACTORS
330
170
102
}
100
AcDbEntity
  8
ELECTRICAL
  6
CONTINUOUS
100
AcDbEllipse
 10
126.172136
 20
107.680434
 30
0.0
 11
0.0
 21
0.7030461905239687
 31
-0.0
210
0.0
220
0.0
230
1.0
 40
0.867333
 41
4.6724102932613842
 42
1.6107750139181876
  0
ELLIPSE
  5
173
102
{ACAD_REACTORS
330
170
102
}
100
AcDbEntity
  8
ELECTRICAL
  6
CONTINUOUS
100
AcDbEllipse
 10
124.95356
 20
107.680434
 30
0.0
 11
0.0
 21
0.7030461905239692
 31
-0.0
210
0.0
220
0.0
230
1.0
 40
0.867333
 41
4.6724102932613842
 42
1.6107750139181878
  0
ELLIPSE
  5
174
102
{ACAD_REACTORS
330
170
102
}
100
AcDbEntity
  8
ELECTRICAL
  6
CONTINUOUS
100
AcDbEllipse
 10
123.734984
 20
107.680434
 30
0.0
 11
0.0
 21
0.7030461905239686
 31
-0.0
210
0.0
220
0.0
230
1.0
 40
0.867333
 41
4.6724102932613842
 42
1.6107750139181882
  0
LINE
  5
175
102
{ACAD_REACTORS
330
170
102
}
100
AcDbEntity
  8
ELECTRICAL
  6
CONTINUOUS
100
AcDbLine
 10
128.0
 20
107.652334
 30
0.0
 11
128.0
 21
106.190043
 31
0.0
  0
LINE
  5
176
102
{ACAD_REACTORS
330
170
102
}
100
AcDbEntity
  8
ELECTRICAL
  6
CONTINUOUS
100
AcDbLine
 10
123.125696
 20
107.652334
 30
0.0
 11
123.125696
 21
106.190043
 31
0.0
  0
LINE
  5
177
100
AcDbEntity
  8
0
  6
CONTINUOUS
 62
     7
100
AcDbLine
 10
123.125696
 20
106.190043
 30
0.0
 11
116.0
 21
106.190043
 31
0.0
  0
LWPOLYLINE
  5
178
100
AcDbEntity
  8
0
  6
CONTINUOUS
 62
     7
100
AcDbPolyline
 90
        3
 70
     0
 10
128.0
 20
106.190043
 10
128.0
 20
103.389968
 10
119.0
 20
103.389968
  0
LWPOLYLINE
  5
179
102
{ACAD_REACTORS
330
1C6
102
}
100
AcDbEntity
  8
\U+0411\U+043B\U+043E\U+043A-\U+0441\U+0445\U+0435\U+043C\U+0430
  6
CONTINUOUS
100
AcDbPolyline
 90
        4
 70
     1
 10
47.2
 20
102.785699
 10
73.756242
 20
102.785699
 10
73.756242
 20
106.121878
 10
47.2
 20
106.121878
  0
MTEXT
  5
17A
100
AcDbEntity
  8
\U+0411\U+043B\U+043E\U+043A-\U+0441\U+0445\U+0435\U+043C\U+0430
100
AcDbMText
 10
60.478121
 20
104.453789
 30
0.0
 40
2.054647
 41
26.556242
 71
     5
 72
     5
  1
\C7;\fArial|b0|i0|;\H2.0546471100301;\U+0411\U+043B\U+0435\U+043D\U+043A\U+0435\U+0440 2
  0
LWPOLYLINE
  5
17B
102
{ACAD_REACTORS
330
1C6
102
}
100
AcDbEntity
  8
\U+0411\U+043B\U+043E\U+043A-\U+0441\U+0445\U+0435\U+043C\U+0430
  6
CONTINUOUS
100
AcDbPolyline
 90
        4
 70
     1
 10
47.2
 20
99.585699
 10
73.756242
 20
99.585699
 10
73.756242
 20
102.921878
 10
47.2
 20
102.921878
  0
MTEXT
  5
17C
100
AcDbEntity
  8
\U+0411\U+043B\U+043E\U+043A-\U+0441\U+0445\U+0435\U+043C\U+0430
100
AcDbMText
 10
60.478121
 20
101.253789
 30
0.0
 40
2.054647
 41
26.556242
 71
     5
 72
     5
  1
\C7;\fArial|b0|i0|;\H2.0546471100301;\U+0411\U+043B\U+0435\U+043D\U+043A\U+0435\U+0440\U+044B(\U+043E\U+0431\U+0449.)
  0
LWPOLYLINE
  5
17D
100
AcDbEntity
  8
\U+0411\U+043B\U+043E\U+043A-\U+0441\U+0445\U+0435\U+043C\U+0430
  6
CONTINUOUS
100
AcDbPolyline
 90
        4
 70
     1
 10
47.2
 20
109.453789
 10
73.756242
 20
109.453789
 10
73.756242
 20
112.789968
 10
47.2
 20
112.789968
  0
MTEXT
  5
17E
100
AcDbEntity
  8
\U+0411\U+043B\U+043E\U+043A-\U+0441\U+0445\U+0435\U+043C\U+0430
100
AcDbMText
 10
60.478121
 20
111.121878
 30
0.0
 40
2.054647
 41
26.556242
 71
     5
 72
     5
  1
\C7;\fArial|b0|i0|;\H2.0546471100301;U\U+0443\U+043F\U+0440\U+0430\U+0432\U+043B(4 \U+043A\U+0430\U+043D\U+0430\U+043B)
  0
LWPOLYLINE
  5
17F
102
{ACAD_REACTORS
330
1C6
102
}
100
AcDbEntity
  8
\U+0411\U+043B\U+043E\U+043A-\U+0441\U+0445\U+0435\U+043C\U+0430
  6
CONTINUOUS
100
AcDbPolyline
 90
        4
 70
     1
 10
47.2
 20
106.053789
 10
73.756242
 20
106.053789
 10
73.756242
 20
109.389968
 10
47.2
 20
109.389968
  0
MTEXT
  5
180
100
AcDbEntity
  8
\U+0411\U+043B\U+043E\U+043A-\U+0441\U+0445\U+0435\U+043C\U+0430
100
AcDbMText
 10
60.478121
 20
107.721878
 30
0.0
 40
2.054647
 41
26.556242
 71
     5
 72
     5
  1
\C7;\fArial|b0|i0|;\H2.0546471100301;\U+0411\U+043B\U+0435\U+043D\U+043A\U+0435\U+0440 1
  0
LWPOLYLINE
  5
181
100
AcDbEntity
  8
\U+0411\U+043B\U+043E\U+043A-\U+0441\U+0445\U+0435\U+043C\U+0430
  6
CONTINUOUS
100
AcDbPolyline
 90
        4
 70
     1
 10
47.21075
 20
96.321878
 10
73.766992
 20
96.321878
 10
73.766992
 20
99.658057
 10
47.21075
 20
99.658057
  0
MTEXT
  5
182
100
AcDbEntity
  8
\U+0411\U+043B\U+043E\U+043A-\U+0441\U+0445\U+0435\U+043C\U+0430
100
AcDbMText
 10
60.488871
 20
97.989968
 30
0.0
 40
2.054647
 41
26.556242
 71
     5
 72
     5
  1
\C7;\fArial|b0|i0|;\H2.0546471100301;\U+043D\U+0435\U+0442
  0
LWPOLYLINE
  5
183
100
AcDbEntity
  8
\U+0411\U+043B\U+043E\U+043A-\U+0441\U+0445\U+0435\U+043C\U+0430
  6
CONTINUOUS
100
AcDbPolyline
 90
        4
 70
     1
 10
47.21075
 20
92.995731
 10
73.766992
 20
92.995731
 10
73.766992
 20
96.33191
 10
47.21075
 20
96.33191
  0
MTEXT
  5
184
100
AcDbEntity
  8
\U+0411\U+043B\U+043E\U+043A-\U+0441\U+0445\U+0435\U+043C\U+0430
100
AcDbMText
 10
60.488871
 20
94.663821
 30
0.0
 40
2.054647
 41
26.556242
 71
     5
 72
     5
  1
\C7;\fArial|b0|i0|;\H2.0546471100301;\U+043D\U+0435\U+0442
  0
LWPOLYLINE
  5
185
102
{ACAD_REACTORS
330
1C6
102
}
100
AcDbEntity
  8
\U+0411\U+043B\U+043E\U+043A-\U+0441\U+0445\U+0435\U+043C\U+0430
  6
CONTINUOUS
100
AcDbPolyline
 90
        4
 70
     1
 10
73.198374
 20
99.74569
 10
81.189209
 20
99.74569
 10
81.189209
 20
102.763934
 10
73.198374
 20
102.763934
  0
MTEXT
  5
186
100
AcDbEntity
  8
\U+0411\U+043B\U+043E\U+043A-\U+0441\U+0445\U+0435\U+043C\U+0430
100
AcDbMText
 10
77.193792
 20
101.254812
 30
0.0
 40
2.054647
 41
7.990835
 71
     5
 72
     5
  1
\C7;\fArial|b0|i0|;\H2.0546471100301;45
  0
LWPOLYLINE
  5
187
102
{ACAD_REACTORS
330
1C6
102
}
100
AcDbEntity
  8
\U+0411\U+043B\U+043E\U+043A-\U+0441\U+0445\U+0435\U+043C\U+0430
  6
CONTINUOUS
100
AcDbPolyline
 90
        4
 70
     1
 10
73.198374
 20
109.445208
 10
81.189209
 20
109.445208
 10
81.189209
 20
112.775292
 10
73.198374
 20
112.775292
  0
MTEXT
  5
188
100
AcDbEntity
  8
\U+0411\U+043B\U+043E\U+043A-\U+0441\U+0445\U+0435\U+043C\U+0430
100
AcDbMText
 10
77.193792
 20
111.11025
 30
0.0
 40
2.054647
 41
7.990835
 71
     5
 72
     5
  1
\C7;\fArial|b0|i0|;\H2.0546471100301;42
  0
LWPOLYLINE
  5
189
102
{ACAD_REACTORS
330
1C6
102
}
100
AcDbEntity
  8
\U+0411\U+043B\U+043E\U+043A-\U+0441\U+0445\U+0435\U+043C\U+0430
  6
CONTINUOUS
100
AcDbPolyline
 90
        4
 70
     1
 10
73.198374
 20
106.043508
 10
81.189209
 20
106.043508
 10
81.189209
 20
109.373593
 10
73.198374
 20
109.373593
  0
MTEXT
  5
18A
100
AcDbEntity
  8
\U+0411\U+043B\U+043E\U+043A-\U+0441\U+0445\U+0435\U+043C\U+0430
100
AcDbMText
 10
77.193792
 20
107.708551
 30
0.0
 40
2.054647
 41
7.990835
 71
     5
 72
     5
  1
\C7;\fArial|b0|i0|;\H2.0546471100301;43
  0
LWPOLYLINE
  5
18B
102
{ACAD_REACTORS
330
1C6
102
}
100
AcDbEntity
  8
\U+0411\U+043B\U+043E\U+043A-\U+0441\U+0445\U+0435\U+043C\U+0430
  6
CONTINUOUS
100
AcDbPolyline
 90
        4
 70
     1
 10
73.198374
 20
102.641809
 10
81.189209
 20
102.641809
 10
81.189209
 20
105.971893
 10
73.198374
 20
105.971893
  0
MTEXT
  5
18C
100
AcDbEntity
  8
\U+0411\U+043B\U+043E\U+043A-\U+0441\U+0445\U+0435\U+043C\U+0430
100
AcDbMText
 10
77.193792
 20
104.306851
 30
0.0
 40
2.054647
 41
7.990835
 71
     5
 72
     5
  1
\C7;\fArial|b0|i0|;\H2.0546471100301;44
  0
LWPOLYLINE
  5
18D
102
{ACAD_REACTORS
330
1C6
102
}
100
AcDbEntity
  8
\U+0411\U+043B\U+043E\U+043A-\U+0441\U+0445\U+0435\U+043C\U+0430
  6
CONTINUOUS
100
AcDbPolyline
 90
        4
 70
     1
 10
73.209165
 20
96.323577
 10
81.2
 20
96.323577
 10
81.2
 20
99.653662
 10
73.209165
 20
99.653662
  0
MTEXT
  5
18E
100
AcDbEntity
  8
\U+0411\U+043B\U+043E\U+043A-\U+0441\U+0445\U+0435\U+043C\U+0430
100
AcDbMText
 10
77.204582
 20
97.98862
 30
0.0
 40
2.054647
 41
7.990835
 71
     5
 72
     5
  1
\C7;\fArial|b0|i0|;\H2.0546471100301;46
  0
LWPOLYLINE
  5
18F
102
{ACAD_REACTORS
330
1C6
102
}
100
AcDbEntity
  8
\U+0411\U+043B\U+043E\U+043A-\U+0441\U+0445\U+0435\U+043C\U+0430
  6
CONTINUOUS
100
AcDbPolyline
 90
        4
 70
     1
 10
73.209165
 20
92.921878
 10
81.2
 20
92.921878
 10
81.2
 20
96.251963
 10
73.209165
 20
96.251963
  0
MTEXT
  5
190
100
AcDbEntity
  8
\U+0411\U+043B\U+043E\U+043A-\U+0441\U+0445\U+0435\U+043C\U+0430
100
AcDbMText
 10
77.204582
 20
94.58692
 30
0.0
 40
2.054647
 41
7.990835
 71
     5
 72
     5
  1
\C7;\fArial|b0|i0|;\H2.0546471100301;47
  0
LWPOLYLINE
  5
191
100
AcDbEntity
  8
0
  6
CONTINUOUS
 62
     7
100
AcDbPolyline
 90
        4
 70
     0
 10
81.189209
 20
111.11025
 10
90.0
 20
111.11025
 10
90.0
 20
109.523301
 10
120.445224
 20
109.715664
  0
LINE
  5
192
100
AcDbEntity
  8
0
  6
CONTINUOUS
 62
     7
100
AcDbLine
 10
81.2
 20
100.947384
 30
0.0
 11
90.021665
 21
100.970013
 31
0.0
  0
LINE
  5
193
100
AcDbEntity
  8
0
  6
CONTINUOUS
 62
     7
100
AcDbLine
 10
81.2
 20
97.895344
 30
0.0
 11
90.021665
 21
97.917974
 31
0.0
  0
LINE
  5
194
100
AcDbEntity
  8
0
  6
CONTINUOUS
 62
     7
100
AcDbLine
 10
81.210791
 20
94.629152
 30
0.0
 11
90.0
 21
94.629152
 31
0.0
  0
LINE
  5
195
100
AcDbEntity
  8
0
  6
CONTINUOUS
 62
     7
100
AcDbLine
 10
81.2
 20
107.750783
 30
0.0
 11
90.0
 21
107.74441
 31
0.0
  0
LINE
  5
196
100
AcDbEntity
  8
0
  6
CONTINUOUS
 62
     7
100
AcDbLine
 10
81.2
 20
104.349083
 30
0.0
 11
90.0
 21
104.349083
 31
0.0
  0
LWPOLYLINE
  5
197
102
{ACAD_REACTORS
330
1C6
102
}
100
AcDbEntity
  8
\U+0411\U+043B\U+043E\U+043A-\U+0441\U+0445\U+0435\U+043C\U+0430
  6
CONTINUOUS
100
AcDbPolyline
 90
        4
 70
     1
 10
47.2
 20
86.395731
 10
73.756242
 20
86.395731
 10
73.756242
 20
89.73191
 10
47.2
 20
89.73191
  0
MTEXT
  5
198
100
AcDbEntity
  8
\U+0411\U+043B\U+043E\U+043A-\U+0441\U+0445\U+0435\U+043C\U+0430
100
AcDbMText
 10
60.478121
 20
88.063821
 30
0.0
 40
2.054647
 41
26.556242
 71
     5
 72
     5
  1
\C7;\fArial|b0|i0|;\H2.0546471100301;\U+043D\U+0435\U+0442
  0
LWPOLYLINE
  5
199
102
{ACAD_REACTORS
330
1C6
102
}
100
AcDbEntity
  8
\U+0411\U+043B\U+043E\U+043A-\U+0441\U+0445\U+0435\U+043C\U+0430
  6
CONTINUOUS
100
AcDbPolyline
 90
        4
 70
     1
 10
47.2
 20
83.195731
 10
73.756242
 20
83.195731
 10
73.756242
 20
86.53191
 10
47.2
 20
86.53191
  0
MTEXT
  5
19A
100
AcDbEntity
  8
\U+0411\U+043B\U+043E\U+043A-\U+0441\U+0445\U+0435\U+043C\U+0430
100
AcDbMText
 10
60.478121
 20
84.863821
 30
0.0
 40
2.054647
 41
26.556242
 71
     5
 72
     5
  1
\C7;\fArial|b0|i0|;\H2.0546471100301;\U+043D\U+0435\U+0442
  0
LWPOLYLINE
  5
19B
102
{ACAD_REACTORS
330
1C6
102
}
100
AcDbEntity
  8
\U+0411\U+043B\U+043E\U+043A-\U+0441\U+0445\U+0435\U+043C\U+0430
  6
CONTINUOUS
100
AcDbPolyline
 90
        4
 70
     1
 10
47.2
 20
89.663821
 10
73.756242
 20
89.663821
 10
73.756242
 20
93.0
 10
47.2
 20
93.0
  0
MTEXT
  5
19C
100
AcDbEntity
  8
\U+0411\U+043B\U+043E\U+043A-\U+0441\U+0445\U+0435\U+043C\U+0430
100
AcDbMText
 10
60.478121
 20
91.33191
 30
0.0
 40
2.054647
 41
26.556242
 71
     5
 72
     5
  1
\C7;\fArial|b0|i0|;\H2.0546471100301;\U+043D\U+0435\U+0442
  0
LWPOLYLINE
  5
19D
100
AcDbEntity
  8
\U+0411\U+043B\U+043E\U+043A-\U+0441\U+0445\U+0435\U+043C\U+0430
  6
CONTINUOUS
100
AcDbPolyline
 90
        4
 70
     1
 10
47.21075
 20
79.93191
 10
73.766992
 20
79.93191
 10
73.766992
 20
83.26809
 10
47.21075
 20
83.26809
  0
MTEXT
  5
19E
100
AcDbEntity
  8
\U+0411\U+043B\U+043E\U+043A-\U+0441\U+0445\U+0435\U+043C\U+0430
100
AcDbMText
 10
60.488871
 20
81.6
 30
0.0
 40
2.054647
 41
26.556242
 71
     5
 72
     5
  1
\C7;\fArial|b0|i0|;\H2.0546471100301;\U+043D\U+0435\U+0442
  0
LWPOLYLINE
  5
19F
100
AcDbEntity
  8
\U+0411\U+043B\U+043E\U+043A-\U+0441\U+0445\U+0435\U+043C\U+0430
  6
CONTINUOUS
100
AcDbPolyline
 90
        4
 70
     1
 10
47.21075
 20
76.463821
 10
73.766992
 20
76.463821
 10
73.766992
 20
79.8
 10
47.21075
 20
79.8
  0
MTEXT
  5
1A0
100
AcDbEntity
  8
\U+0411\U+043B\U+043E\U+043A-\U+0441\U+0445\U+0435\U+043C\U+0430
100
AcDbMText
 10
60.488871
 20
78.13191
 30
0.0
 40
2.054647
 41
26.556242
 71
     5
 72
     5
  1
\C7;\fArial|b0|i0|;\H2.0546471100301;\U+043D\U+0435\U+0442
  0
LWPOLYLINE
  5
1A1
102
{ACAD_REACTORS
330
1C6
102
}
100
AcDbEntity
  8
\U+0411\U+043B\U+043E\U+043A-\U+0441\U+0445\U+0435\U+043C\U+0430
  6
CONTINUOUS
100
AcDbPolyline
 90
        4
 70
     1
 10
73.198374
 20
83.355722
 10
81.189209
 20
83.355722
 10
81.189209
 20
86.373966
 10
73.198374
 20
86.373966
  0
MTEXT
  5
1A2
100
AcDbEntity
  8
\U+0411\U+043B\U+043E\U+043A-\U+0441\U+0445\U+0435\U+043C\U+0430
100
AcDbMText
 10
77.193792
 20
84.864844
 30
0.0
 40
2.054647
 41
7.990835
 71
     5
 72
     5
  1
\C7;\fArial|b0|i0|;\H2.0546471100301;50
  0
LWPOLYLINE
  5
1A3
102
{ACAD_REACTORS
330
1C6
102
}
100
AcDbEntity
  8
\U+0411\U+043B\U+043E\U+043A-\U+0441\U+0445\U+0435\U+043C\U+0430
  6
CONTINUOUS
100
AcDbPolyline
 90
        4
 70
     1
 10
73.198374
 20
89.653541
 10
81.189209
 20
89.653541
 10
81.189209
 20
92.983625
 10
73.198374
 20
92.983625
  0
MTEXT
  5
1A4
100
AcDbEntity
  8
\U+0411\U+043B\U+043E\U+043A-\U+0441\U+0445\U+0435\U+043C\U+0430
100
AcDbMText
 10
77.193792
 20
91.318583
 30
0.0
 40
2.054647
 41
7.990835
 71
     5
 72
     5
  1
\C7;\fArial|b0|i0|;\H2.0546471100301;48
  0
LWPOLYLINE
  5
1A5
102
{ACAD_REACTORS
330
1C6
102
}
100
AcDbEntity
  8
\U+0411\U+043B\U+043E\U+043A-\U+0441\U+0445\U+0435\U+043C\U+0430
  6
CONTINUOUS
100
AcDbPolyline
 90
        4
 70
     1
 10
73.198374
 20
86.251841
 10
81.189209
 20
86.251841
 10
81.189209
 20
89.581926
 10
73.198374
 20
89.581926
  0
MTEXT
  5
1A6
100
AcDbEntity
  8
\U+0411\U+043B\U+043E\U+043A-\U+0441\U+0445\U+0435\U+043C\U+0430
100
AcDbMText
 10
77.193792
 20
87.916884
 30
0.0
 40
2.054647
 41
7.990835
 71
     5
 72
     5
  1
\C7;\fArial|b0|i0|;\H2.0546471100301;49
  0
LWPOLYLINE
  5
1A7
102
{ACAD_REACTORS
330
1C6
102
}
100
AcDbEntity
  8
\U+0411\U+043B\U+043E\U+043A-\U+0441\U+0445\U+0435\U+043C\U+0430
  6
CONTINUOUS
100
AcDbPolyline
 90
        4
 70
     1
 10
73.209165
 20
79.93361
 10
81.2
 20
79.93361
 10
81.2
 20
83.263695
 10
73.209165
 20
83.263695
  0
MTEXT
  5
1A8
100
AcDbEntity
  8
\U+0411\U+043B\U+043E\U+043A-\U+0441\U+0445\U+0435\U+043C\U+0430
100
AcDbMText
 10
77.204582
 20
81.598652
 30
0.0
 40
2.054647
 41
7.990835
 71
     5
 72
     5
  1
\C7;\fArial|b0|i0|;\H2.0546471100301;51
  0
LWPOLYLINE
  5
1A9
102
{ACAD_REACTORS
330
1C6
102
}
100
AcDbEntity
  8
\U+0411\U+043B\U+043E\U+043A-\U+0441\U+0445\U+0435\U+043C\U+0430
  6
CONTINUOUS
100
AcDbPolyline
 90
        4
 70
     1
 10
73.209165
 20
76.53191
 10
81.2
 20
76.53191
 10
81.2
 20
79.861995
 10
73.209165
 20
79.861995
  0
MTEXT
  5
1AA
100
AcDbEntity
  8
\U+0411\U+043B\U+043E\U+043A-\U+0441\U+0445\U+0435\U+043C\U+0430
100
AcDbMText
 10
77.204582
 20
78.196953
 30
0.0
 40
2.054647
 41
7.990835
 71
     5
 72
     5
  1
\C7;\fArial|b0|i0|;\H2.0546471100301;52
  0
LINE
  5
1AB
100
AcDbEntity
  8
0
  6
CONTINUOUS
 62
     7
100
AcDbLine
 10
81.2
 20
84.557416
 30
0.0
 11
90.021665
 21
84.580046
 31
0.0
  0
LINE
  5
1AC
100
AcDbEntity
  8
0
  6
CONTINUOUS
 62
     7
100
AcDbLine
 10
81.2
 20
81.505377
 30
0.0
 11
90.021665
 21
81.528007
 31
0.0
  0
LINE
  5
1AD
100
AcDbEntity
  8
0
  6
CONTINUOUS
 62
     7
100
AcDbLine
 10
81.210791
 20
78.239185
 30
0.0
 11
90.0
 21
78.239185
 31
0.0
  0
LINE
  5
1AE
100
AcDbEntity
  8
0
  6
CONTINUOUS
 62
     7
100
AcDbLine
 10
81.2
 20
91.360815
 30
0.0
 11
90.0
 21
91.354443
 31
0.0
  0
LINE
  5
1AF
100
AcDbEntity
  8
0
  6
CONTINUOUS
 62
     7
100
AcDbLine
 10
81.2
 20
87.959116
 30
0.0
 11
90.0
 21
87.959116
 31
0.0
  0
LINE
  5
1B0
100
AcDbEntity
  8
0
  6
CONTINUOUS
 62
     7
100
AcDbLine
 10
90.021665
 20
81.528007
 30
0.0
 11
90.0
 21
78.239185
 31
0.0
  0
LWPOLYLINE
  5
1B1
102
{ACAD_REACTORS
330
1C6
102
}
100
AcDbEntity
  8
\U+0411\U+043B\U+043E\U+043A-\U+0441\U+0445\U+0435\U+043C\U+0430
  6
CONTINUOUS
100
AcDbPolyline
 90
        4
 70
     1
 10
47.2
 20
73.263821
 10
73.756242
 20
73.263821
 10
73.756242
 20
76.6
 10
47.2
 20
76.6
  0
MTEXT
  5
1B2
100
AcDbEntity
  8
\U+0411\U+043B\U+043E\U+043A-\U+0441\U+0445\U+0435\U+043C\U+0430
100
AcDbMText
 10
60.478121
 20
74.93191
 30
0.0
 40
2.054647
 41
26.556242
 71
     5
 72
     5
  1
\C7;\fArial|b0|i0|;\H2.0546471100301;\U+043A\U+043E\U+0440\U+043F\U+0443\U+0441
  0
LWPOLYLINE
  5
1B3
100
AcDbEntity
  8
\U+0411\U+043B\U+043E\U+043A-\U+0441\U+0445\U+0435\U+043C\U+0430
  6
CONTINUOUS
100
AcDbPolyline
 90
        4
 70
     1
 10
47.21075
 20
70.0
 10
73.766992
 20
70.0
 10
73.766992
 20
73.336179
 10
47.21075
 20
73.336179
  0
MTEXT
  5
1B4
100
AcDbEntity
  8
\U+0411\U+043B\U+043E\U+043A-\U+0441\U+0445\U+0435\U+043C\U+0430
100
AcDbMText
 10
60.488871
 20
71.66809
 30
0.0
 40
2.054647
 41
26.556242
 71
     5
 72
     5
  1
\C7;\fArial|b0|i0|;\H2.0546471100301;\U+043A\U+043E\U+0440\U+043F\U+0443\U+0441
  0
LWPOLYLINE
  5
1B5
100
AcDbEntity
  8
\U+0411\U+043B\U+043E\U+043A-\U+0441\U+0445\U+0435\U+043C\U+0430
  6
CONTINUOUS
100
AcDbPolyline
 90
        4
 70
     1
 10
47.21075
 20
66.673853
 10
73.766992
 20
66.673853
 10
73.766992
 20
70.010032
 10
47.21075
 20
70.010032
  0
MTEXT
  5
1B6
100
AcDbEntity
  8
\U+0411\U+043B\U+043E\U+043A-\U+0441\U+0445\U+0435\U+043C\U+0430
100
AcDbMText
 10
60.488871
 20
68.341943
 30
0.0
 40
2.054647
 41
26.556242
 71
     5
 72
     5
  1
\C7;\fArial|b0|i0|;\H2.0546471100301;\U+043D\U+0435\U+0442
  0
LWPOLYLINE
  5
1B7
102
{ACAD_REACTORS
330
1C6
102
}
100
AcDbEntity
  8
\U+0411\U+043B\U+043E\U+043A-\U+0441\U+0445\U+0435\U+043C\U+0430
  6
CONTINUOUS
100
AcDbPolyline
 90
        4
 70
     1
 10
73.198374
 20
73.490878
 10
81.189209
 20
73.490878
 10
81.189209
 20
76.509122
 10
73.198374
 20
76.509122
  0
MTEXT
  5
1B8
100
AcDbEntity
  8
\U+0411\U+043B\U+043E\U+043A-\U+0441\U+0445\U+0435\U+043C\U+0430
100
AcDbMText
 10
77.193792
 20
75.0
 30
0.0
 40
2.054647
 41
7.990835
 71
     5
 72
     5
  1
\C7;\fArial|b0|i0|;\H2.0546471100301;53
  0
LWPOLYLINE
  5
1B9
102
{ACAD_REACTORS
330
1C6
102
}
100
AcDbEntity
  8
\U+0411\U+043B\U+043E\U+043A-\U+0441\U+0445\U+0435\U+043C\U+0430
  6
CONTINUOUS
100
AcDbPolyline
 90
        4
 70
     1
 10
73.209165
 20
70.069915
 10
81.2
 20
70.069915
 10
81.2
 20
73.4
 10
73.209165
 20
73.4
  0
MTEXT
  5
1BA
100
AcDbEntity
  8
\U+0411\U+043B\U+043E\U+043A-\U+0441\U+0445\U+0435\U+043C\U+0430
100
AcDbMText
 10
77.204582
 20
71.734958
 30
0.0
 40
2.054647
 41
7.990835
 71
     5
 72
     5
  1
\C7;\fArial|b0|i0|;\H2.0546471100301;54
  0
LWPOLYLINE
  5
1BB
102
{ACAD_REACTORS
330
1C6
102
}
100
AcDbEntity
  8
\U+0411\U+043B\U+043E\U+043A-\U+0441\U+0445\U+0435\U+043C\U+0430
  6
CONTINUOUS
100
AcDbPolyline
 90
        4
 70
     1
 10
73.209165
 20
66.669915
 10
81.2
 20
66.669915
 10
81.2
 20
70.0
 10
73.209165
 20
70.0
  0
MTEXT
  5
1BC
100
AcDbEntity
  8
\U+0411\U+043B\U+043E\U+043A-\U+0441\U+0445\U+0435\U+043C\U+0430
100
AcDbMText
 10
77.204582
 20
68.334958
 30
0.0
 40
2.054647
 41
7.990835
 71
     5
 72
     5
  1
\C7;\fArial|b0|i0|;\H2.0546471100301;55
  0
LINE
  5
1BD
100
AcDbEntity
  8
0
  6
CONTINUOUS
 62
     7
100
AcDbLine
 10
81.2
 20
74.625506
 30
0.0
 11
90.021665
 21
74.648135
 31
0.0
  0
LINE
  5
1BE
100
AcDbEntity
  8
0
  6
CONTINUOUS
 62
     7
100
AcDbLine
 10
81.2
 20
71.573466
 30
0.0
 11
90.021665
 21
71.596096
 31
0.0
  0
LINE
  5
1BF
100
AcDbEntity
  8
0
  6
CONTINUOUS
 62
     7
100
AcDbLine
 10
81.210791
 20
68.307274
 30
0.0
 11
90.0
 21
68.307274
 31
0.0
  0
MTEXT
  5
1C0
100
AcDbEntity
  8
0
100
AcDbMText
 10
118.130901
 20
267.5
 30
0.0
 40
3.082006
 41
61.261803
 71
     5
 72
     5
  1
\C7;\fArial|b0|i0|;\H3.0820059355348;\U+0421\U+0445\U+0435\U+043C\U+0430 \U+0423\U+0423\U+0410\U+041F
  0
MTEXT
  5
1C1
100
AcDbEntity
  8
0
100
AcDbMText
 10
137.738197
 20
221.280891
 30
0.0
 40
2.054647
 41
16.523605
 71
     5
 72
     5
  1
\C7;\fArial|b0|i0|;\H2.0546471100301;\U+0418\U+043D\U+0434\U+0435\U+043A\U+0441 1
  0
MTEXT
  5
1C2
100
AcDbEntity
  8
0
100
AcDbMText
 10
137.738197
 20
205.219109
 30
0.0
 40
2.054647
 41
16.523605
 71
     5
 72
     5
  1
\C7;\fArial|b0|i0|;\H2.0546471100301;\U+0421\U+0442\U+0440\U+0435\U+043B\U+043A\U+0430
  0
MTEXT
  5
1C3
100
AcDbEntity
  8
0
100
AcDbMText
 10
137.5
 20
111.719109
 30
0.0
 40
2.054647
 41
16.523605
 71
     5
 72
     5
  1
\C7;\fArial|b0|i0|;\H2.0546471100301;\U+0418\U+043D\U+0434\U+0435\U+043A\U+0441 2
  0
MTEXT
  5
1C4
100
AcDbEntity
  8
0
100
AcDbMText
 10
136.738197
 20
135.719109
 30
0.0
 40
2.054647
 41
16.523605
 71
     5
 72
     5
  1
\C7;\fArial|b0|i0|;\H2.0546471100301;\U+0421\U+0442\U+0440\U+0435\U+043B\U+043A\U+04302\P(\U+0420\U+0430\U+0437\U+043E\U+0431\U+0440\U+0430\U+043D)
  0
CIRCLE
  5
1C5
102
{ACAD_REACTORS
330
1C6
102
}
100
AcDbEntity
  8
0
  6
CONTINUOUS
 62
     7
100
AcDbCircle
 10
116.0
 20
198.8
 30
0.0
 40
0.5
  0
HATCH
  5
1C6
100
AcDbEntity
  8
0
 62
     7
100
AcDbHatch
 10
0.0
 20
0.0
 30
0.0
210
0.0
220
0.0
230
1.0
  2
SOLID
 70
     1
 71
     1
 91
        1
 92
        1
 93
        1
 72
     2
 10
115.99999999999999
 20
198.79999999999998
 40
0.499999999999999
 50
0.0
 51
360.0
 73
     1
 97
       84
330
42
330
44
330
46
330
4A
330
4C
330
60
330
62
330
64
330
68
330
6E
330
6F
330
71
330
73
330
75
330
77
330
79
330
7B
330
7D
330
7F
330
81
330
83
330
85
330
87
330
89
330
8B
330
8D
330
8F
330
91
330
93
330
95
330
97
330
99
330
9B
330
9D
330
9F
330
A1
330
A3
330
A5
330
A7
330
C4
330
E1
330
FA
330
FC
330
100
330
106
330
108
330
10A
330
10C
330
10E
330
110
330
120
330
13B
330
13D
330
141
330
147
330
149
330
14B
330
14D
330
14F
330
151
330
15B
330
164
330
179
330
17B
330
17F
330
185
330
187
330
189
330
18B
330
18D
330
18F
330
197
330
199
330
19B
330
1A1
330
1A3
330
1A5
330
1A7
330
1A9
330
1B1
330
1B7
330
1B9
330
1BB
330
1C5
 75
     0
 76
     1
 98
        0
  0
CIRCLE
  5
1C7
102
{ACAD_REACTORS
330
1C8
102
}
100
AcDbEntity
  8
0
  6
CONTINUOUS
 62
     7
100
AcDbCircle
 10
119.0
 20
196.0
 30
0.0
 40
0.5
  0
HATCH
  5
1C8
100
AcDbEntity
  8
0
 62
     7
100
AcDbHatch
 10
0.0
 20
0.0
 30
0.0
210
0.0
220
0.0
230
1.0
  2
SOLID
 70
     1
 71
     1
 91
        1
 92
        1
 93
        1
 72
     2
 10
118.99999999999999
 20
195.99999999999997
 40
0.499999999999999
 50
0.0
 51
360.0
 73
     1
 97
        1
330
1C7
 75
     0
 76
     1
 98
        0
  0
CIRCLE
  5
1C9
102
{ACAD_REACTORS
330
1CA
102
}
100
AcDbEntity
  8
0
  6
CONTINUOUS
 62
     7
100
AcDbCircle
 10
116.0
 20
177.4
 30
0.0
 40
0.5
  0
HATCH
  5
1CA
100
AcDbEntity
  8
0
 62
     7
100
AcDbHatch
 10
0.0
 20
0.0
 30
0.0
210
0.0
220
0.0
230
1.0
  2
SOLID
 70
     1
 71
     1
 91
        1
 92
        1
 93
        1
 72
     2
 10
115.99999999999999
 20
177.39999999999998
 40
0.499999999999999
 50
0.0
 51
360.0
 73
     1
 97
        1
330
1C9
 75
     0
 76
     1
 98
        0
  0
CIRCLE
  5
1CB
102
{ACAD_REACTORS
330
1CC
102
}
100
AcDbEntity
  8
0
  6
CONTINUOUS
 62
     7
100
AcDbCircle
 10
119.0
 20
174.1
 30
0.0
 40
0.5
  0
HATCH
  5
1CC
100
AcDbEntity
  8
0
 62
     7
100
AcDbHatch
 10
0.0
 20
0.0
 30
0.0
210
0.0
220
0.0
230
1.0
  2
SOLID
 70
     1
 71
     1
 91
        1
 92
        1
 93
        1
 72
     2
 10
118.99999999999999
 20
174.09999999999999
 40
0.499999999999999
 50
0.0
 51
360.0
 73
     1
 97
        1
330
1CB
 75
     0
 76
     1
 98
        0
  0
CIRCLE
  5
1CD
102
{ACAD_REACTORS
330
1CE
102
}
100
AcDbEntity
  8
0
  6
CONTINUOUS
 62
     7
100
AcDbCircle
 10
116.0
 20
129.3
 30
0.0
 40
0.5
  0
HATCH
  5
1CE
100
AcDbEntity
  8
0
 62
     7
100
AcDbHatch
 10
0.0
 20
0.0
 30
0.0
210
0.0
220
0.0
230
1.0
  2
SOLID
 70
     1
 71
     1
 91
        1
 92
        1
 93
        1
 72
     2
 10
115.99999999999999
 20
129.29999999999998
 40
0.499999999999999
 50
0.0
 51
360.0
 73
     1
 97
        1
330
1CD
 75
     0
 76
     1
 98
        0
  0
CIRCLE
  5
1CF
102
{ACAD_REACTORS
330
1D0
102
}
100
AcDbEntity
  8
0
  6
CONTINUOUS
 62
     7
100
AcDbCircle
 10
119.0
 20
126.6
 30
0.0
 40
0.5
  0
HATCH
  5
1D0
100
AcDbEntity
  8
0
 62
     7
100
AcDbHatch
 10
0.0
 20
0.0
 30
0.0
210
0.0
220
0.0
230
1.0
  2
SOLID
 70
     1
 71
     1
 91
        1
 92
        1
 93
        1
 72
     2
 10
118.99999999999999
 20
126.59999999999999
 40
0.499999999999999
 50
0.0
 51
360.0
 73
     1
 97
        1
330
1CF
 75
     0
 76
     1
 98
        0
  0
MTEXT
  5
1D1
100
AcDbEntity
  8
0
100
AcDbMText
 10
106.738197
 20
241.719109
 30
0.0
 40
2.054647
 41
16.523605
 71
     5
 72
     5
  1
\C7;\fArial|b0|i0|;\H2.0546471100301;2.5\U+043A
  0
MTEXT
  5
1D2
100
AcDbEntity
  8
0
100
AcDbMText
 10
107.0
 20
225.5
 30
0.0
 40
2.054647
 41
16.523605
 71
     5
 72
     5
  1
\C7;\fArial|b0|i0|;\H2.0546471100301;2.5\U+043A
  0
MTEXT
  5
1D3
100
AcDbEntity
  8
0
100
AcDbMText
 10
102.5
 20
149.0
 30
0.0
 40
2.054647
 41
16.523605
 71
     5
 72
     5
  1
\C7;\fArial|b0|i0|;\H2.0546471100301;1.7\U+043A
  0
MTEXT
  5
1D4
100
AcDbEntity
  8
0
100
AcDbMText
 10
102.5
 20
125.280891
 30
0.0
 40
2.054647
 41
16.523605
 71
     5
 72
     5
  1
\C7;\fArial|b0|i0|;\H2.0546471100301;1.7\U+043A
  0
MTEXT
  5
1D5
100
AcDbEntity
  8
0
100
AcDbMText
 10
62.769993
 20
258.378345
 30
0.0
 40
2.054647
 41
9.460013
 71
     5
 72
     5
  1
\C7;\fArial|b1|i0|;\H2.0546471100301;\U+04251
  0
MTEXT
  5
1D6
100
AcDbEntity
  8
0
100
AcDbMText
 10
64.0
 20
255.0
 30
0.0
 40
2.054647
 41
40.0
 71
     5
 72
     5
  1
\C7;\fArial|b0|i0|;\H2.0546471100301;\U+0421\U+041D\U+042623-55/33\U+0412-1-\U+0412
  0
LINE
  5
1D7
100
AcDbEntity
  8
0
  6
CONTINUOUS
 62
     7
100
AcDbLine
 10
90.021665
 20
74.648135
 30
0.0
 11
90.021665
 21
71.596096
 31
0.0
  0
LWPOLYLINE
  5
1D9
100
AcDbEntity
  8
0
  6
DASHED
 62
     7
100
AcDbPolyline
 90
        3
 70
     0
 10
113.0
 20
241.5
 10
126.0
 20
241.5
 10
125.46387
 20
221.362848
  0
LWPOLYLINE
  5
1DA
100
AcDbEntity
  8
0
  6
DASHED
 62
     7
100
AcDbPolyline
 90
        3
 70
     0
 10
114.0
 20
225.0
 10
114.0
 20
204.987565
 10
125.0
 20
204.762848
  0
LWPOLYLINE
  5
1DB
100
AcDbEntity
  8
0
  6
DASHED
 62
     7
100
AcDbPolyline
 90
        3
 70
     0
 10
108.5
 20
148.5
 10
125.490208
 20
148.5
 10
125.562848
 20
135.362848
  0
LWPOLYLINE
  5
1DC
100
AcDbEntity
  8
0
  6
DASHED
 62
     7
100
AcDbPolyline
 90
        3
 70
     0
 10
125.562848
 20
112.152816
 10
125.562848
 20
125.0
 10
108.5
 20
125.0
  0
ENDSEC
  0
SECTION
  2
OBJECTS
  0
DICTIONARY
  5
C
100
AcDbDictionary
  3
ACAD_GROUP
350
D
  3
ACAD_MLINESTYLE
350
1B
  0
DICTIONARY
  5
D
102
{ACAD_REACTORS
330
C
102
}
100
AcDbDictionary
  3
VISIOGROUP_0
350
31
  3
VISIOGROUP_1
350
C6
  3
VISIOGROUP_2
350
CE
  3
VISIOGROUP_3
350
E9
  3
VISIOGROUP_4
350
EB
  3
VISIOGROUP_5
350
F2
  3
VISIOGROUP_6
350
127
  3
VISIOGROUP_7
350
129
  3
VISIOGROUP_8
350
130
  3
VISIOGROUP_9
350
167
  3
VISIOGROUP_10
350
169
  3
VISIOGROUP_11
350
170
  0
DICTIONARY
  5
1B
102
{ACAD_REACTORS
330
C
102
}
100
AcDbDictionary
  3
STANDARD
350
1C
  0
MLINESTYLE
  5
1C
102
{ACAD_REACTORS
330
1B
102
}
100
AcDbMlineStyle
  2
STANDARD
 70
     0
  3

 62
   256
 51
90.0
 52
90.0
 71
     2
 49
0.5
 62
   256
  6
BYLAYER
 49
-0.5
 62
   256
  6
BYLAYER
  0
GROUP
  5
31
102
{ACAD_REACTORS
330
D
102
}
100
AcDbGroup
300
Group created by Visio.
 70
     0
 71
     1
  0
GROUP
  5
C6
102
{ACAD_REACTORS
330
D
102
}
100
AcDbGroup
300
Group created by Visio.
 70
     0
 71
     1
340
C8
340
C9
340
CA
340
CB
340
CC
340
CD
  0
GROUP
  5
CE
102
{ACAD_REACTORS
330
D
102
}
100
AcDbGroup
300
Group created by Visio.
 70
     0
 71
     1
340
CF
340
D0
340
D1
340
D2
340
D3
340
D4
  0
GROUP
  5
E9
102
{ACAD_REACTORS
330
D
102
}
100
AcDbGroup
300
Group created by Visio.
 70
     0
 71
     1
  0
GROUP
  5
EB
102
{ACAD_REACTORS
330
D
102
}
100
AcDbGroup
300
Group created by Visio.
 70
     0
 71
     1
340
EC
340
ED
340
EE
340
EF
340
F0
340
F1
  0
GROUP
  5
F2
102
{ACAD_REACTORS
330
D
102
}
100
AcDbGroup
300
Group created by Visio.
 70
     0
 71
     1
340
F3
340
F4
340
F5
340
F6
340
F7
340
F8
  0
GROUP
  5
127
102
{ACAD_REACTORS
330
D
102
}
100
AcDbGroup
300
Group created by Visio.
 70
     0
 71
     1
  0
GROUP
  5
129
102
{ACAD_REACTORS
330
D
102
}
100
AcDbGroup
300
Group created by Visio.
 70
     0
 71
     1
340
12A
340
12B
340
12C
340
12D
340
12E
340
12F
  0
GROUP
  5
130
102
{ACAD_REACTORS
330
D
102
}
100
AcDbGroup
300
Group created by Visio.
 70
     0
 71
     1
340
131
340
132
340
133
340
134
340
135
340
136
  0
GROUP
  5
167
102
{ACAD_REACTORS
330
D
102
}
100
AcDbGroup
300
Group created by Visio.
 70
     0
 71
     1
  0
GROUP
  5
169
102
{ACAD_REACTORS
330
D
102
}
100
AcDbGroup
300
Group created by Visio.
 70
     0
 71
     1
340
16A
340
16B
340
16C
340
16D
340
16E
340
16F
  0
GROUP
  5
170
102
{ACAD_REACTORS
330
D
102
}
100
AcDbGroup
300
Group created by Visio.
 70
     0
 71
     1
340
171
340
172
340
173
340
174
340
175
340
176
  0
ENDSEC
  0
EOF
